<?xml version="1.0" encoding="UTF-8"?>
<svg xmlns="http://www.w3.org/2000/svg" xmlns:xlink="http://www.w3.org/1999/xlink" version="1.2" >
<font id="Electrolize">
<font-face  font-family="Electrolize" units-per-em="1000" ascent="911" descent="-275" font-style="normal" font-weight="400" font-stretch="normal" cap-height="700" x-height="500" underline-position="-75" underline-thickness="50" />
<missing-glyph  d="" />
<glyph glyph-name="space" unicode="&#x20;" horiz-adv-x="250" d="" />
<glyph glyph-name="exclam" unicode="&#x21;" horiz-adv-x="284" d="M184 36 L184 59 Q184 80 176 88 Q168 95 144 95 L140 95 Q116 95 109 88 Q102 82 101 78 Q100 74 100 59 L100 36 Q100 15 108 7 Q116 0 140 0 L145 0 Q168 0 175 7 Q182 13 183 17 Q184 21 184 36 Z M173 190 L111 190 L100 450 L100 700 L184 700 L184 450 L173 190 Z " />
<glyph glyph-name="quotedbl" unicode="&#x22;" horiz-adv-x="359" d="M141 672 L141 661 L118 431 L84 431 L64 661 L64 675 Q64 686 71 693 Q79 700 97 700 L115 700 Q125 700 133 693 Q141 685 141 672 Z M295 672 L295 661 L272 431 L238 431 L218 661 L218 675 Q218 686 225 693 Q233 700 251 700 L269 700 Q279 700 287 693 Q295 685 295 672 Z " />
<glyph glyph-name="numbersign" unicode="&#x23;" horiz-adv-x="621" d="M376 456 L403 640 L463 640 L436 456 L566 456 L557 396 L427 396 L412 296 L544 296 L535 236 L403 236 L375 40 L315 40 L343 236 L240 236 L212 40 L152 40 L180 236 L55 236 L64 296 L189 296 L204 396 L77 396 L86 456 L213 456 L240 640 L300 640 L273 456 L376 456 Z M264 396 L249 296 L352 296 L367 396 L264 396 Z " />
<glyph glyph-name="dollar" unicode="&#x24;" horiz-adv-x="628" d="M352 -90 L280 -90 L280 20 L171 20 Q147 20 123 40 L99 60 Q75 80 75 110 L75 150 L159 150 L159 131 Q159 116 160.5 111.5 Q162 107 171 100 Q180 93 185 91.5 Q190 90 208 90 L280 90 L280 320 L181 320 Q157 320 133 340 L106 363 Q85 380 85 403 L85 590 Q85 620 109 640 L133 660 Q157 680 181 680 L280 680 L280 780 L352 780 L352 680 L447 680 Q471 680 495 660 L519 640 Q543 620 543 590 L543 550 L459 550 L459 569 Q459 584 457.5 588.5 Q456 593 447 600 Q438 607 433 608.5 Q428 610 410 610 L352 610 L352 390 L457 390 Q481 390 505 370 L529 350 Q553 330 553 300 L553 110 Q553 80 529 60 L505 40 Q481 20 457 20 L352 20 L352 -90 Z M420 320 L352 320 L352 90 L420 90 Q438 90 443 91.5 Q448 93 457 100 Q466 107 467.5 111.5 Q469 116 469 131 L469 279 Q469 294 467.5 298.5 Q466 303 457 310 Q448 317 443 318.5 Q438 320 420 320 Z M169 569 L169 431 Q169 416 170.5 411.5 Q172 407 181 400 Q190 393 195 391.5 Q200 390 218 390 L280 390 L280 610 L218 610 Q200 610 195 608.5 Q190 607 181 600 Q172 593 170.5 588.5 Q169 584 169 569 Z " />
<glyph glyph-name="percent" unicode="&#x25;" horiz-adv-x="937" d="M813 354 Q822 354 827.5 351 Q833 348 838 344 L850 333 Q855 329 858.5 324 Q862 319 862 308 L862 46 Q862 35 858.5 30 Q855 25 850 21 L838 10 Q833 6 827.5 3 Q822 0 813 0 L609 0 Q600 0 595 3 Q590 6 585 10 L572 21 Q567 25 563.5 30 Q560 35 560 46 L560 308 Q560 319 563.5 324 Q567 329 572 333 L585 344 Q590 348 595 351 Q600 354 609 354 L813 354 Z M796 275 Q796 283 795.5 285.5 Q795 288 790 292 Q785 296 782.5 296.5 Q780 297 771 297 L652 297 Q643 297 640 296.5 Q637 296 632 292 Q627 288 626.5 285.5 Q626 283 626 275 L626 79 Q626 71 626.5 68.5 Q627 66 632 62 Q637 58 640 57.5 Q643 57 652 57 L771 57 Q780 57 782.5 57.5 Q785 58 790 62 Q795 66 795.5 68.5 Q796 71 796 79 L796 275 Z M328 700 Q337 700 342.5 697 Q348 694 353 690 L365 679 Q370 675 373.5 670 Q377 665 377 654 L377 392 Q377 381 373.5 376 Q370 371 365 367 L353 356 Q348 352 342.5 349 Q337 346 328 346 L124 346 Q115 346 110 349 Q105 352 100 356 L87 367 Q82 371 78.5 376 Q75 381 75 392 L75 654 Q75 665 78.5 670 Q82 675 87 679 L100 690 Q105 694 110 697 Q115 700 124 700 L328 700 Z M311 621 Q311 629 310.5 631.5 Q310 634 305 638 Q300 642 297.5 642.5 Q295 643 286 643 L167 643 Q158 643 155 642.5 Q152 642 147 638 Q142 634 141.5 631.5 Q141 629 141 621 L141 425 Q141 417 141.5 414.5 Q142 412 147 408 Q152 404 155 403.5 Q158 403 167 403 L286 403 Q295 403 297.5 403.5 Q300 404 305 408 Q310 412 310.5 414.5 Q311 417 311 425 L311 621 Z M741 716 L249 -46 L180 -46 L668 716 L741 716 Z " />
<glyph glyph-name="ampersand" unicode="&#x26;" horiz-adv-x="690" d="M583 360 L583 90 Q583 70 579.5 62 Q576 54 564 41 L546 23 Q523 0 499 0 L169 0 Q145 0 122 23 L104 41 Q96 50 92.5 54.5 Q89 59 87 67.5 Q85 76 85 90 L85 304 Q85 328 87.5 334 Q90 340 105 352 L146 386 Q163 400 173 400 L213 400 L213 404 Q200 405 186 419 L157 443 Q144 453 141.5 458 Q139 463 139 480 L139 610 Q139 640 163 660 L187 680 Q211 700 235 700 L461 700 Q485 700 509 680 L533 660 Q557 640 557 610 L557 570 L473 570 L473 589 Q473 604 471.5 608.5 Q470 613 461 620 Q452 627 447 628.5 Q442 630 423 630 L272 630 Q254 630 249 628.5 Q244 627 235 620 Q226 613 224.5 608.5 Q223 604 223 589 L223 495 Q223 476 225.5 470.5 Q228 465 243 453 Q262 437 271 433.5 Q280 430 304 430 L655 430 L655 360 L583 360 Z M218 70 L450 70 Q468 70 473 71.5 Q478 73 487 80 Q496 87 497.5 91.5 Q499 96 499 111 L499 360 L248 360 Q229 360 223 358 Q217 356 202 343 L187 330 Q169 314 169 292 L169 111 Q169 96 170.5 91.5 Q172 87 181 80 Q190 73 195 71.5 Q200 70 218 70 Z " />
<glyph glyph-name="quotesingle" unicode="&#x27;" horiz-adv-x="203" d="M139 672 L139 661 L116 431 L82 431 L62 661 L62 675 Q62 686 69 693 Q77 700 95 700 L113 700 Q123 700 131 693 Q139 685 139 672 Z " />
<glyph glyph-name="parenleft" unicode="&#x28;" horiz-adv-x="219" d="M58 -36 L58 636 Q58 659 60.5 665 Q63 671 78 681 L100 696 Q115 706 121 708 Q127 710 146 710 L164 710 L164 671 Q164 648 161.5 642.5 Q159 637 146 627 Q134 619 132 613.5 Q130 608 130 585 L130 15 Q130 -8 132 -13.5 Q134 -19 146 -27 Q159 -37 161.5 -42.5 Q164 -48 164 -71 L164 -110 L146 -110 Q127 -110 121 -108 Q115 -106 100 -96 L78 -81 Q63 -71 60.5 -65 Q58 -59 58 -36 Z " />
<glyph glyph-name="parenright" unicode="&#x29;" horiz-adv-x="219" d="M161 -36 Q161 -59 158.5 -65 Q156 -71 141 -81 L119 -96 Q104 -106 98 -108 Q92 -110 73 -110 L55 -110 L55 -71 Q55 -48 57.5 -42.5 Q60 -37 73 -27 Q85 -19 87 -13.5 Q89 -8 89 15 L89 585 Q89 608 87 613.5 Q85 619 73 627 Q60 637 57.5 642.5 Q55 648 55 671 L55 710 L73 710 Q92 710 98 708 Q104 706 119 696 L141 681 Q156 671 158.5 665 Q161 659 161 636 L161 -36 Z " />
<glyph glyph-name="asterisk" unicode="&#x2a;" horiz-adv-x="535" d="M440 610 L460 553 L317 501 L405 375 L355 341 L265 470 L175 340 L126 374 L214 502 L75 553 L96 609 L234 559 L234 708 L294 708 L294 557 L440 610 Z " />
<glyph glyph-name="plus" unicode="&#x2b;" horiz-adv-x="538" d="M236 535 L301 535 L301 359 L478 359 L478 294 L301 294 L301 117 L236 117 L236 294 L60 294 L60 359 L236 359 L236 535 Z " />
<glyph glyph-name="comma" unicode="&#x2c;" horiz-adv-x="204" d="M138 -10 L114 -120 L84 -100 L84 0 Q76 0 68 8 Q62 13 61 17.5 Q60 22 60 39 L60 56 Q60 80 68 88 Q76 95 101 95 Q128 95 136 88 Q144 80 144 56 L144 39 Q144 15 138 -10 Z " />
<glyph glyph-name="hyphen" unicode="&#x2d;" horiz-adv-x="502" d="M442 359 L442 294 L60 294 L60 359 L442 359 Z " />
<glyph glyph-name="period" unicode="&#x2e;" horiz-adv-x="204" d="M144 59 L144 36 Q144 21 143 17 Q142 13 135 7 Q128 0 105 0 L100 0 Q76 0 68 7 Q60 15 60 36 L60 59 Q60 74 61 78 Q62 82 69 88 Q76 95 100 95 L104 95 Q128 95 136 88 Q144 80 144 59 Z " />
<glyph glyph-name="slash" unicode="&#x2f;" horiz-adv-x="525" d="M485 700 L565 700 L36 -90 L-40 -90 L485 700 Z " />
<glyph glyph-name="zero" unicode="0" horiz-adv-x="780" d="M192 700 L588 700 Q612 700 636 680 L660 660 Q684 640 684 610 L684 90 Q684 60 660 40 L636 20 Q612 0 588 0 L192 0 Q168 0 144 20 L120 40 Q96 60 96 90 L96 610 Q96 640 120 660 L144 680 Q168 700 192 700 Z M600 111 L600 589 Q600 604 598.5 608.5 Q597 613 588 620 Q579 627 574 628.5 Q569 630 551 630 L229 630 Q211 630 206 628.5 Q201 627 192 620 Q183 613 181.5 608.5 Q180 604 180 589 L180 111 Q180 96 181.5 91.5 Q183 87 192 80 Q201 73 206 71.5 Q211 70 229 70 L551 70 Q569 70 574 71.5 Q579 73 588 80 Q597 87 598.5 91.5 Q600 96 600 111 Z " />
<glyph glyph-name="one" unicode="1" horiz-adv-x="383" d="M97 498 L50 547 L191 700 L308 700 L308 0 L230 0 L230 618 Q230 638 233 644 L230 647 L97 498 Z " />
<glyph glyph-name="two" unicode="2" horiz-adv-x="604" d="M75 0 L75 106 Q75 124 77.5 129.5 Q80 135 94 147 L426 450 Q439 461 442 470.5 Q445 480 445 500 L445 589 Q445 604 443.5 608.5 Q442 613 433 620 Q424 627 419 628.5 Q414 630 396 630 L218 630 Q200 630 195 628.5 Q190 627 181 620 Q172 613 170.5 608.5 Q169 604 169 589 L169 570 L85 570 L85 610 Q85 640 109 660 L133 680 Q157 700 181 700 L433 700 Q457 700 481 680 L505 660 Q529 640 529 610 L529 469 Q529 449 526 439.5 Q523 430 510 419 L179 120 Q165 107 162 100 Q159 93 159 74 L159 70 L529 70 L529 0 L75 0 Z " />
<glyph glyph-name="three" unicode="3" horiz-adv-x="624" d="M480 354 L519 322 Q534 310 536.5 304 Q539 298 539 274 L539 90 Q539 70 535.5 62 Q532 54 520 41 L502 23 Q479 0 455 0 L171 0 Q147 0 123 20 L99 40 Q75 60 75 90 L75 130 L159 130 L159 111 Q159 96 160.5 91.5 Q162 87 171 80 Q180 73 185 71.5 Q190 70 208 70 L406 70 Q424 70 429 71.5 Q434 73 443 80 Q452 87 453.5 91.5 Q455 96 455 111 L455 262 Q455 284 437 300 L422 313 Q407 326 401 328 Q395 330 376 330 L216 330 L216 394 L362 394 Q381 394 387 396 Q393 398 408 411 L423 423 Q438 435 440.5 440.5 Q443 446 443 465 L443 589 Q443 604 441.5 608.5 Q440 613 431 620 Q422 627 417 628.5 Q412 630 394 630 L229 630 Q210 630 205 628.5 Q200 627 191 620 Q182 613 180.5 608.5 Q179 604 179 589 L179 570 L95 570 L95 610 Q95 640 119 660 L143 680 Q167 700 191 700 L431 700 Q455 700 479 680 L503 660 Q527 640 527 610 L527 446 Q527 429 524.5 424 Q522 419 509 409 L480 385 Q464 372 452 372 L452 367 Q464 367 480 354 Z " />
<glyph glyph-name="four" unicode="4" horiz-adv-x="654" d="M409 430 L493 430 L493 230 L589 230 L589 160 L493 160 L493 0 L409 0 L409 160 L55 160 L55 242 L397 700 L491 700 L158 253 Q148 238 141 234 L141 230 L409 230 L409 430 Z " />
<glyph glyph-name="five" unicode="5" horiz-adv-x="652" d="M245 460 L471 460 Q495 460 519 440 L543 420 Q567 400 567 370 L567 90 Q567 60 543 40 L519 20 Q495 0 471 0 L171 0 Q147 0 123 20 L99 40 Q75 60 75 90 L75 130 L159 130 L159 111 Q159 96 160.5 91.5 Q162 87 171 80 Q180 73 185 71.5 Q190 70 208 70 L434 70 Q452 70 457 71.5 Q462 73 471 80 Q480 87 481.5 91.5 Q483 96 483 111 L483 349 Q483 364 481.5 368.5 Q480 373 471 380 Q462 387 457 388.5 Q452 390 434 390 L241 390 Q217 390 193 370 Q169 350 169 330 L85 330 L85 700 L555 700 L555 630 L169 630 L169 411 L173 411 Q174 422 195 438 Q225 460 245 460 Z " />
<glyph glyph-name="six" unicode="6" horiz-adv-x="686" d="M591 570 L507 570 L507 589 Q507 604 505.5 608.5 Q504 613 495 620 Q486 627 481 628.5 Q476 630 458 630 L218 630 Q200 630 195 628.5 Q190 627 181 620 Q172 613 170.5 608.5 Q169 604 169 589 L169 390 L173 390 L178 395 Q213 430 233 430 L505 430 Q529 430 553 410 L577 390 Q601 370 601 340 L601 90 Q601 60 577 40 L553 20 Q529 0 505 0 L181 0 Q157 0 133 20 L109 40 Q85 60 85 90 L85 610 Q85 640 109 660 L133 680 Q157 700 181 700 L495 700 Q519 700 543 680 L567 660 Q591 640 591 610 L591 570 Z M517 111 L517 319 Q517 334 515.5 338.5 Q514 343 505 350 Q496 357 491 358.5 Q486 360 468 360 L243 360 Q224 360 217.5 358 Q211 356 193 345 Q170 331 169 320 L169 111 Q169 96 170.5 91.5 Q172 87 181 80 Q190 73 195 71.5 Q200 70 218 70 L468 70 Q486 70 491 71.5 Q496 73 505 80 Q514 87 515.5 91.5 Q517 96 517 111 Z " />
<glyph glyph-name="seven" unicode="7" horiz-adv-x="603" d="M112 0 L441 610 Q450 626 458 630 L25 630 L25 700 L538 700 L538 624 L204 0 L112 0 Z " />
<glyph glyph-name="eight" unicode="8" horiz-adv-x="692" d="M447 320 L245 320 Q230 320 225 318.5 Q220 317 208 307 L186 289 Q173 279 171 274 Q169 269 169 253 L169 111 Q169 96 170.5 91.5 Q172 87 181 80 Q190 73 195 71.5 Q200 70 218 70 L474 70 Q492 70 497 71.5 Q502 73 511 80 Q520 87 521.5 91.5 Q523 96 523 111 L523 253 Q523 269 521 274 Q519 279 506 289 L484 307 Q472 317 467 318.5 Q462 320 447 320 Z M462 630 L230 630 Q212 630 207 628.5 Q202 627 193 620 Q184 613 182.5 608.5 Q181 604 181 589 L181 459 Q181 442 183 437 Q185 432 197 422 L223 401 Q233 393 238.5 391.5 Q244 390 262 390 L430 390 Q448 390 453.5 391.5 Q459 393 469 401 L495 422 Q507 432 509 437 Q511 442 511 459 L511 589 Q511 604 509.5 608.5 Q508 613 499 620 Q490 627 485 628.5 Q480 630 462 630 Z M99 309 L146 348 Q162 361 174 361 L174 366 Q162 366 146 379 L113 405 Q97 418 97 439 L97 610 Q97 640 121 660 L145 680 Q169 700 193 700 L499 700 Q523 700 547 680 L571 660 Q595 640 595 610 L595 439 Q595 418 579 405 L546 379 Q530 366 518 366 L518 361 Q530 361 546 348 L593 309 Q607 298 607 270 L607 90 Q607 60 583 40 Q575 34 559 20 Q535 0 511 0 L181 0 Q157 0 133 20 Q117 34 109 40 Q85 60 85 90 L85 270 Q85 298 99 309 Z " />
<glyph glyph-name="nine" unicode="9" horiz-adv-x="686" d="M95 130 L179 130 L179 111 Q179 96 180.5 91.5 Q182 87 191 80 Q200 73 205 71.5 Q210 70 228 70 L468 70 Q486 70 491 71.5 Q496 73 505 80 Q514 87 515.5 91.5 Q517 96 517 111 L517 310 L513 310 L508 305 Q473 270 453 270 L181 270 Q157 270 133 290 L109 310 Q85 330 85 360 L85 610 Q85 640 109 660 L133 680 Q157 700 181 700 L505 700 Q529 700 553 680 L577 660 Q601 640 601 610 L601 90 Q601 60 577 40 L553 20 Q529 0 505 0 L191 0 Q167 0 143 20 L119 40 Q95 60 95 90 L95 130 Z M169 589 L169 381 Q169 366 170.5 361.5 Q172 357 181 350 Q190 343 195 341.5 Q200 340 218 340 L443 340 Q462 340 468.5 342 Q475 344 493 355 Q516 369 517 380 L517 589 Q517 604 515.5 608.5 Q514 613 505 620 Q496 627 491 628.5 Q486 630 468 630 L218 630 Q200 630 195 628.5 Q190 627 181 620 Q172 613 170.5 608.5 Q169 604 169 589 Z " />
<glyph glyph-name="colon" unicode="&#x3a;" horiz-adv-x="204" d="M144 59 L144 36 Q144 21 143 17 Q142 13 135 7 Q128 0 105 0 L100 0 Q76 0 68 7 Q60 15 60 36 L60 59 Q60 74 61 78 Q62 82 69 88 Q76 95 100 95 L104 95 Q128 95 136 88 Q144 80 144 59 Z M144 449 L144 426 Q144 411 143 407 Q142 403 135 397 Q128 390 105 390 L100 390 Q76 390 68 397 Q60 405 60 426 L60 449 Q60 464 61 468 Q62 472 69 478 Q76 485 100 485 L104 485 Q128 485 136 478 Q144 470 144 449 Z " />
<glyph glyph-name="semicolon" unicode="&#x3b;" horiz-adv-x="204" d="M138 -10 L114 -120 L84 -100 L84 0 Q77 0 68.5 6 Q60 12 60 39 L60 56 Q60 80 67.5 87.5 Q75 95 101 95 Q129 95 136.5 87.5 Q144 80 144 56 L144 39 Q144 15 138 -10 Z M144 460 L144 420 Q144 404 136.5 397 Q129 390 102 390 Q73 390 66.5 397 Q60 404 60 415 L60 459 Q60 470 67 477.5 Q74 485 102 485 Q130 485 137 478 Q144 471 144 460 Z " />
<glyph glyph-name="less" unicode="&#x3c;" horiz-adv-x="516" d="M461 608 L461 524 L169 375 Q136 360 124 360 L124 356 Q134 356 169 341 L461 188 L461 105 L55 317 L55 391 L461 608 Z " />
<glyph glyph-name="equal" unicode="&#x3d;" horiz-adv-x="520" d="M460 466 L460 401 L60 401 L60 466 L460 466 Z M460 310 L460 245 L60 245 L60 310 L460 310 Z " />
<glyph glyph-name="greater" unicode="&#x3e;" horiz-adv-x="516" d="M55 524 L55 608 L461 391 L461 317 L55 105 L55 188 L347 341 Q382 356 392 356 L392 360 Q380 360 347 375 L55 524 Z " />
<glyph glyph-name="question" unicode="&#x3f;" horiz-adv-x="532" d="M257 200 L173 200 L173 300 Q173 330 197 350 L221 370 Q245 390 269 390 L334 390 Q352 390 357 391.5 Q362 393 371 400 Q380 407 381.5 411.5 Q383 416 383 431 L383 589 Q383 604 381.5 608.5 Q380 613 371 620 Q362 627 357 628.5 Q352 630 334 630 L168 630 Q150 630 145 628.5 Q140 627 131 620 Q122 613 120.5 608.5 Q119 604 119 589 L119 570 L35 570 L35 610 Q35 640 59 660 L83 680 Q107 700 131 700 L371 700 Q395 700 419 680 L443 660 Q467 640 467 610 L467 403 Q467 380 445 362 L419 340 Q395 320 371 320 L306 320 Q288 320 283 318.5 Q278 317 269 310 Q260 303 258.5 298.5 Q257 294 257 279 L257 200 Z M257 36 L257 59 Q257 80 249 88 Q241 95 217 95 L213 95 Q189 95 182 88 Q175 82 174 78 Q173 74 173 59 L173 36 Q173 15 181 7 Q189 0 213 0 L218 0 Q241 0 248 7 Q255 13 256 17 Q257 21 257 36 Z " />
<glyph glyph-name="at" unicode="&#x40;" horiz-adv-x="702" d="M580 435 Q580 458 577.5 464 Q575 470 562 481 L550 491 Q537 502 531 504 Q525 506 507 506 L195 506 Q177 506 171 504 Q165 502 152 491 L140 481 Q127 470 124.5 464 Q122 458 122 435 L122 85 Q122 62 124.5 56 Q127 50 140 39 L152 29 Q165 18 171 16 Q177 14 195 14 L594 14 L594 -40 L156 -40 Q132 -40 108 -20 L84 0 Q60 20 60 50 L60 470 Q60 500 84 520 L108 540 Q132 560 156 560 L546 560 Q570 560 594 540 L618 520 Q642 500 642 470 L642 120 L594 80 L502 80 Q484 80 471 91 Q461 100 459 109 L455 109 Q455 100 440 91 Q422 80 403 80 L269 80 Q251 80 233 94 L216 109 Q198 123 198 146 L198 374 Q198 395 216 411 L233 425 Q250 440 269 440 L408 440 Q427 440 436 433 Q444 425 444 418 L448 418 L448 440 L504 440 L504 159 Q504 143 513 136 Q522 128 538 128 L556 128 L580 150 L580 435 Z M268 347 L268 173 Q268 157 277 150 Q286 142 304 142 L380 142 Q399 142 417 153 Q430 161 432 164.5 Q434 168 434 180 L434 347 Q434 363 426 370 Q417 377 398 377 L304 377 Q286 377 277 370 Q268 363 268 347 Z " />
<glyph glyph-name="A" unicode="A" horiz-adv-x="703" d="M50 0 L290 700 L408 700 L653 0 L569 0 L517 145 L184 145 L134 0 L50 0 Z M351 640 L347 640 Q347 628 340 611 L205 210 L496 210 L358 611 Q351 628 351 640 Z " />
<glyph glyph-name="B" unicode="B" horiz-adv-x="653" d="M477 289 L455 307 Q443 317 438 318.5 Q433 320 418 320 L184 320 L184 70 L445 70 Q463 70 468 71.5 Q473 73 482 80 Q491 87 492.5 91.5 Q494 96 494 111 L494 253 Q494 269 492 274 Q490 279 477 289 Z M184 630 L184 390 L401 390 Q419 390 424.5 391.5 Q430 393 440 401 L466 422 Q478 432 480 437 Q482 442 482 459 L482 589 Q482 604 480.5 608.5 Q479 613 470 620 Q461 627 456 628.5 Q451 630 433 630 L184 630 Z M488 366 L488 361 Q500 361 516 348 L564 309 Q573 301 575.5 294.5 Q578 288 578 270 L578 90 Q578 60 554 40 Q546 34 530 20 Q506 0 482 0 L100 0 L100 700 L470 700 Q494 700 518 680 L542 660 Q566 640 566 610 L566 439 Q566 418 550 405 L516 379 Q500 366 488 366 Z " />
<glyph glyph-name="C" unicode="C" horiz-adv-x="663" d="M614 570 L530 570 L530 589 Q530 604 528.5 608.5 Q527 613 518 620 Q509 627 504 628.5 Q499 630 481 630 L233 630 Q215 630 210 628.5 Q205 627 196 620 Q187 613 185.5 608.5 Q184 604 184 589 L184 111 Q184 96 185.5 91.5 Q187 87 196 80 Q205 73 210 71.5 Q215 70 233 70 L481 70 Q499 70 504 71.5 Q509 73 518 80 Q527 87 528.5 91.5 Q530 96 530 111 L530 130 L614 130 L614 90 Q614 60 590 40 L566 20 Q542 0 518 0 L196 0 Q172 0 148 20 L124 40 Q100 60 100 90 L100 610 Q100 640 124 660 L148 680 Q172 700 196 700 L518 700 Q542 700 566 680 L590 660 Q614 640 614 610 L614 570 Z " />
<glyph glyph-name="D" unicode="D" horiz-adv-x="713" d="M100 0 L100 700 L470 700 Q496 700 518 680 L614 600 Q638 580 638 560 L638 140 Q638 120 614 100 L518 20 Q496 0 470 0 L100 0 Z M554 170 L554 530 Q554 550 530 570 L482 610 Q460 630 434 630 L184 630 L184 70 L434 70 Q460 70 482 90 L530 130 Q554 150 554 170 Z " />
<glyph glyph-name="E" unicode="E" horiz-adv-x="623" d="M548 70 L548 0 L100 0 L100 700 L548 700 L548 630 L184 630 L184 390 L492 390 L492 320 L184 320 L184 70 L548 70 Z " />
<glyph glyph-name="F" unicode="F" horiz-adv-x="573" d="M184 0 L100 0 L100 700 L508 700 L508 630 L184 630 L184 390 L452 390 L452 320 L184 320 L184 0 Z " />
<glyph glyph-name="G" unicode="G" horiz-adv-x="687" d="M612 570 L528 570 L528 589 Q528 604 526.5 608.5 Q525 613 516 620 Q507 627 502 628.5 Q497 630 479 630 L233 630 Q215 630 210 628.5 Q205 627 196 620 Q187 613 185.5 608.5 Q184 604 184 589 L184 111 Q184 96 185.5 91.5 Q187 87 196 80 Q205 73 210 71.5 Q215 70 233 70 L479 70 Q497 70 502 71.5 Q507 73 516 80 Q525 87 526.5 91.5 Q528 96 528 111 L528 290 L376 290 L376 360 L612 360 L612 90 Q612 60 588 40 L564 20 Q540 0 516 0 L196 0 Q172 0 148 20 L124 40 Q100 60 100 90 L100 610 Q100 640 124 660 L148 680 Q172 700 196 700 L516 700 Q540 700 564 680 L588 660 Q612 640 612 610 L612 570 Z " />
<glyph glyph-name="H" unicode="H" horiz-adv-x="732" d="M548 700 L632 700 L632 0 L548 0 L548 325 L184 325 L184 0 L100 0 L100 700 L184 700 L184 390 L548 390 L548 700 Z " />
<glyph glyph-name="I" unicode="I" horiz-adv-x="284" d="M100 700 L184 700 L184 0 L100 0 L100 700 Z " />
<glyph glyph-name="J" unicode="J" horiz-adv-x="509" d="M325 700 L409 700 L409 90 Q409 60 385 40 L361 20 Q337 0 313 0 L131 0 Q107 0 83 20 L59 40 Q35 60 35 90 L35 160 L119 160 L119 111 Q119 96 120.5 91.5 Q122 87 131 80 Q140 73 145 71.5 Q150 70 168 70 L276 70 Q294 70 299 71.5 Q304 73 313 80 Q322 87 323.5 91.5 Q325 96 325 111 L325 700 Z " />
<glyph glyph-name="K" unicode="K" horiz-adv-x="619" d="M100 700 L184 700 L184 390 L292 390 L443 633 Q457 657 479 672 L498 685 Q514 696 520.5 698 Q527 700 545 700 L567 700 L567 661 Q567 638 564 632 Q561 626 543 616 L532 610 Q516 601 511 596 Q506 591 495 574 L375 380 Q360 355 350 355 L350 351 Q360 351 375 327 L502 126 Q512 109 517.5 104 Q523 99 539 90 L550 84 Q568 74 571 68 Q574 62 574 39 L574 0 L546 0 Q528 0 521.5 2 Q515 4 499 15 L480 28 Q465 39 460 44.5 Q455 50 444 68 L288 320 L184 320 L184 0 L100 0 L100 700 Z " />
<glyph glyph-name="L" unicode="L" horiz-adv-x="526" d="M532 70 L532 0 L100 0 L100 700 L184 700 L184 70 L532 70 Z " />
<glyph glyph-name="M" unicode="M" horiz-adv-x="916" d="M180 640 L177 639 Q184 615 184 591 L184 0 L100 0 L100 700 L236 700 L450 141 Q456 124 456 113 L460 113 Q460 124 466 141 L681 700 L816 700 L816 0 L732 0 L732 591 Q732 615 739 639 L736 640 L490 0 L426 0 Q380 113 338.5 219 Q297 325 270 396.5 Q243 468 223 522.5 Q203 577 192 607 Q181 637 180 640 Z " />
<glyph glyph-name="N" unicode="N" horiz-adv-x="730" d="M550 130 L553 131 Q546 155 546 179 L546 700 L630 700 L630 0 L546 0 L180 562 L177 561 Q184 537 184 513 L184 0 L100 0 L100 700 L184 700 L550 130 Z " />
<glyph glyph-name="O" unicode="O" horiz-adv-x="758" d="M196 700 L562 700 Q586 700 610 680 L634 660 Q658 640 658 610 L658 90 Q658 60 634 40 L610 20 Q586 0 562 0 L196 0 Q172 0 148 20 L124 40 Q100 60 100 90 L100 610 Q100 640 124 660 L148 680 Q172 700 196 700 Z M574 111 L574 589 Q574 604 572.5 608.5 Q571 613 562 620 Q553 627 548 628.5 Q543 630 525 630 L233 630 Q215 630 210 628.5 Q205 627 196 620 Q187 613 185.5 608.5 Q184 604 184 589 L184 111 Q184 96 185.5 91.5 Q187 87 196 80 Q205 73 210 71.5 Q215 70 233 70 L525 70 Q543 70 548 71.5 Q553 73 562 80 Q571 87 572.5 91.5 Q574 96 574 111 Z " />
<glyph glyph-name="P" unicode="P" horiz-adv-x="641" d="M184 280 L184 0 L100 0 L100 700 L470 700 Q494 700 518 680 L542 660 Q566 640 566 610 L566 370 Q566 340 542 320 L518 300 Q494 280 470 280 L184 280 Z M184 630 L184 350 L433 350 Q451 350 456 351.5 Q461 353 470 360 Q479 367 480.5 371.5 Q482 376 482 391 L482 589 Q482 604 480.5 608.5 Q479 613 470 620 Q461 627 456 628.5 Q451 630 433 630 L184 630 Z " />
<glyph glyph-name="Q" unicode="Q" horiz-adv-x="766" d="M196 700 L562 700 Q586 700 610 680 L634 660 Q658 640 658 610 L658 90 Q658 60 634 40 L610 20 Q586 0 562 0 L451 0 L504 -60 Q513 -70 541 -70 L648 -70 Q661 -80 663.5 -85.5 Q666 -91 666 -114 L666 -140 L509 -140 Q475 -140 461 -120 L361 0 L196 0 Q172 0 148 20 L124 40 Q100 60 100 90 L100 610 Q100 640 124 660 L148 680 Q172 700 196 700 Z M574 111 L574 589 Q574 604 572.5 608.5 Q571 613 562 620 Q553 627 548 628.5 Q543 630 525 630 L233 630 Q215 630 210 628.5 Q205 627 196 620 Q187 613 185.5 608.5 Q184 604 184 589 L184 111 Q184 96 185.5 91.5 Q187 87 196 80 Q205 73 210 71.5 Q215 70 233 70 L525 70 Q543 70 548 71.5 Q553 73 562 80 Q571 87 572.5 91.5 Q574 96 574 111 Z " />
<glyph glyph-name="R" unicode="R" horiz-adv-x="673" d="M100 700 L470 700 Q494 700 518 680 L542 660 Q566 640 566 610 L566 376 Q566 345 541 324 L516 303 Q494 285 470 285 L414 285 L517 125 Q528 108 532.5 103.5 Q537 99 553 90 L564 84 Q582 74 585 68 Q588 62 588 39 L588 0 L563 0 Q545 0 538.5 2 Q532 4 516 15 L497 28 Q475 43 461 67 L328 280 L184 280 L184 0 L100 0 L100 700 Z M184 630 L184 350 L433 350 Q451 350 456 351.5 Q461 353 470 360 Q479 367 480.5 371.5 Q482 376 482 391 L482 589 Q482 604 480.5 608.5 Q479 613 470 620 Q461 627 456 628.5 Q451 630 433 630 L184 630 Z " />
<glyph glyph-name="S" unicode="S" horiz-adv-x="628" d="M420 320 L181 320 Q157 320 133 340 L106 363 Q85 380 85 403 L85 610 Q85 640 109 660 L133 680 Q157 700 181 700 L447 700 Q471 700 495 680 L519 660 Q543 640 543 610 L543 570 L459 570 L459 589 Q459 604 457.5 608.5 Q456 613 447 620 Q438 627 433 628.5 Q428 630 410 630 L218 630 Q200 630 195 628.5 Q190 627 181 620 Q172 613 170.5 608.5 Q169 604 169 589 L169 431 Q169 416 170.5 411.5 Q172 407 181 400 Q190 393 195 391.5 Q200 390 218 390 L457 390 Q481 390 505 370 L529 350 Q553 330 553 300 L553 90 Q553 60 529 40 L505 20 Q481 0 457 0 L171 0 Q147 0 123 20 L99 40 Q75 60 75 90 L75 130 L159 130 L159 111 Q159 96 160.5 91.5 Q162 87 171 80 Q180 73 185 71.5 Q190 70 208 70 L420 70 Q438 70 443 71.5 Q448 73 457 80 Q466 87 467.5 91.5 Q469 96 469 111 L469 279 Q469 294 467.5 298.5 Q466 303 457 310 Q448 317 443 318.5 Q438 320 420 320 Z " />
<glyph glyph-name="T" unicode="T" horiz-adv-x="517" d="M-6 700 L522 700 L522 630 L300 630 L300 0 L216 0 L216 630 L-6 630 L-6 700 Z " />
<glyph glyph-name="U" unicode="U" horiz-adv-x="732" d="M548 700 L632 700 L632 90 Q632 60 608 40 L584 20 Q560 0 536 0 L196 0 Q172 0 148 20 L124 40 Q100 60 100 90 L100 700 L184 700 L184 111 Q184 96 185.5 91.5 Q187 87 196 80 Q205 73 210 71.5 Q215 70 233 70 L499 70 Q517 70 522 71.5 Q527 73 536 80 Q545 87 546.5 91.5 Q548 96 548 111 L548 700 Z " />
<glyph glyph-name="V" unicode="V" horiz-adv-x="604" d="M300 62 L304 62 Q304 68 310 88 L500 700 L589 700 L357 0 L247 0 L15 700 L104 700 L294 88 Q300 68 300 62 Z " />
<glyph glyph-name="W" unicode="W" horiz-adv-x="932" d="M624 0 L478 602 L473 627 L469 627 L464 602 L321 0 L203 0 L15 700 L104 700 L254 84 L259 59 L264 59 L268 84 L416 700 L527 700 L679 84 L685 59 L689 59 L693 84 L838 700 L927 700 L739 0 L624 0 Z " />
<glyph glyph-name="X" unicode="X" horiz-adv-x="616" d="M466 700 L556 700 L369 363 L581 0 L489 0 L320 300 Q310 316 310 328 L306 328 Q306 316 296 300 L127 0 L35 0 L247 363 L60 700 L150 700 L294 430 Q306 406 306 399 L310 399 Q310 403 312 408.5 Q314 414 317.5 420.5 Q321 427 322 430 L466 700 Z " />
<glyph glyph-name="Y" unicode="Y" horiz-adv-x="546" d="M288 394 L449 700 L545 700 L315 292 L315 0 L231 0 L231 292 L1 700 L97 700 L258 394 Q270 373 271 363 L275 363 Q276 369 288 394 Z " />
<glyph glyph-name="Z" unicode="Z" horiz-adv-x="562" d="M135 70 L517 70 L517 0 L45 0 L45 74 L402 609 Q414 622 423 625 L423 630 L47 630 L47 700 L515 700 L515 624 L156 91 Q147 78 135 75 L135 70 Z " />
<glyph glyph-name="bracketleft" unicode="&#x5b;" horiz-adv-x="291" d="M236 -110 L56 -110 L56 710 L236 710 L236 645 L128 645 L128 -45 L236 -45 L236 -110 Z " />
<glyph glyph-name="backslash" unicode="&#x5c;" horiz-adv-x="525" d="M-40 700 L40 700 L565 -90 L489 -90 L-40 700 Z " />
<glyph glyph-name="bracketright" unicode="&#x5d;" horiz-adv-x="294" d="M55 710 L235 710 L235 -110 L55 -110 L55 -45 L163 -45 L163 645 L55 645 L55 710 Z " />
<glyph glyph-name="asciicircum" unicode="&#x5e;" horiz-adv-x="429" d="M178 680 L251 680 L329 560 L254 560 L228 600 Q217 616 217 630 L213 630 Q213 619 202 600 L176 560 L100 560 L178 680 Z " />
<glyph glyph-name="underscore" unicode="&#x5f;" horiz-adv-x="528" d="M528 -70 L528 -135 L0 -135 L0 -70 L528 -70 Z " />
<glyph glyph-name="grave" unicode="&#x60;" horiz-adv-x="330" d="M229 550 L75 646 L118 709 L255 590 L229 550 Z " />
<glyph glyph-name="a" unicode="a" horiz-adv-x="566" d="M412 40 L408 40 Q408 28 386 15 Q368 4 361.5 2 Q355 0 337 0 L166 0 Q142 0 118 20 L94 40 Q70 60 70 90 L70 210 Q70 240 94 260 L118 280 Q142 300 166 300 L345 300 Q364 300 369 298.5 Q374 297 382 290 Q394 280 394 270 L398 270 L398 389 Q398 404 396.5 408.5 Q395 413 386 420 Q377 427 372 428.5 Q367 430 349 430 L187 430 Q169 430 162.5 427.5 Q156 425 138 410 L78 460 L102 480 Q120 495 126.5 497.5 Q133 500 151 500 L386 500 Q410 500 434 480 L458 460 Q482 440 482 410 L482 111 Q482 96 483.5 91.5 Q485 87 494 80 Q503 73 504.5 68.5 Q506 64 506 49 L506 0 L471 0 Q453 0 446.5 2.5 Q440 5 428 15 Q412 28 412 40 Z M154 189 L154 111 Q154 96 155.5 91.5 Q157 87 166 80 Q175 73 180 71.5 Q185 70 203 70 L325 70 Q343 70 349.5 72 Q356 74 374 85 Q392 96 395 101 Q398 106 398 121 L398 189 Q398 204 396.5 208.5 Q395 213 386 220 Q377 227 372 228.5 Q367 230 349 230 L203 230 Q185 230 180 228.5 Q175 227 166 220 Q157 213 155.5 208.5 Q154 204 154 189 Z " />
<glyph glyph-name="b" unicode="b" horiz-adv-x="552" d="M408 111 L408 389 Q408 404 406.5 408.5 Q405 413 396 420 Q387 427 382 428.5 Q377 430 359 430 L218 430 Q199 430 192.5 428 Q186 426 168 415 Q150 404 147 399 Q144 394 144 379 L144 121 Q144 106 147 101 Q150 96 168 85 Q186 74 192.5 72 Q199 70 217 70 L359 70 Q377 70 382 71.5 Q387 73 396 80 Q405 87 406.5 91.5 Q408 96 408 111 Z M144 740 L144 453 L148 453 Q148 462 170 481 Q192 500 208 500 L396 500 Q420 500 444 480 L468 460 Q492 440 492 410 L492 90 Q492 60 468 40 L444 20 Q420 0 396 0 L209 0 Q191 0 184.5 2 Q178 4 160 15 Q137 26 136 37 L132 37 L132 0 L60 0 L60 740 L144 740 Z " />
<glyph glyph-name="c" unicode="c" horiz-adv-x="515" d="M460 370 L376 370 L376 389 Q376 404 374.5 408.5 Q373 413 364 420 Q355 427 350 428.5 Q345 430 327 430 L193 430 Q175 430 170 428.5 Q165 427 156 420 Q147 413 145.5 408.5 Q144 404 144 389 L144 111 Q144 96 145.5 91.5 Q147 87 156 80 Q165 73 170 71.5 Q175 70 193 70 L327 70 Q345 70 350 71.5 Q355 73 364 80 Q373 87 374.5 91.5 Q376 96 376 111 L376 130 L460 130 L460 90 Q460 60 436 40 L412 20 Q388 0 364 0 L156 0 Q132 0 108 20 L84 40 Q60 60 60 90 L60 410 Q60 440 84 460 L108 480 Q132 500 156 500 L364 500 Q388 500 412 480 L436 460 Q460 440 460 410 L460 370 Z " />
<glyph glyph-name="d" unicode="d" horiz-adv-x="576" d="M336 430 L193 430 Q175 430 170 428.5 Q165 427 156 420 Q147 413 145.5 408.5 Q144 404 144 389 L144 111 Q144 96 145.5 91.5 Q147 87 156 80 Q165 73 170 71.5 Q175 70 193 70 L335 70 Q353 70 359.5 72 Q366 74 384 85 Q402 96 405 101 Q408 106 408 121 L408 370 Q408 390 384 410 Q360 430 336 430 Z M347 0 L156 0 Q132 0 108 20 L84 40 Q60 60 60 90 L60 410 Q60 440 84 460 L108 480 Q132 500 156 500 L332 500 Q356 500 380 480 Q404 456 404 450 L408 450 L408 740 L492 740 L492 111 Q492 96 493.5 91.5 Q495 87 504 80 Q513 73 514.5 68.5 Q516 64 516 49 L516 0 L481 0 Q463 0 456.5 2.5 Q450 5 438 15 Q422 28 422 40 L418 40 Q418 28 396 15 Q378 4 371.5 2 Q365 0 347 0 Z " />
<glyph glyph-name="e" unicode="e" horiz-adv-x="546" d="M436 90 L496 40 L472 20 Q454 5 447.5 2.5 Q441 0 423 0 L156 0 Q132 0 108 20 L84 40 Q60 60 60 90 L60 410 Q60 440 84 460 L108 480 Q132 500 156 500 L389 500 Q409 500 437 480 L462 460 Q486 442 486 410 L486 205 L144 205 L144 111 Q144 96 145.5 91.5 Q147 87 156 80 Q165 73 170 71.5 Q175 70 193 70 L387 70 Q405 70 411.5 72.5 Q418 75 436 90 Z M402 270 L402 389 Q402 404 400.5 408.5 Q399 413 390 420 Q381 427 376 428.5 Q371 430 353 430 L193 430 Q175 430 170 428.5 Q165 427 156 420 Q147 413 145.5 408.5 Q144 404 144 389 L144 270 L402 270 Z " />
<glyph glyph-name="f" unicode="f" horiz-adv-x="356" d="M107 430 L53 430 Q40 440 37.5 445.5 Q35 451 35 474 L35 500 L107 500 L107 626 Q107 656 131 676 L155 696 Q179 716 203 716 L323 716 Q336 706 338.5 700.5 Q341 695 341 672 L341 646 L234 646 Q215 646 203 636 Q194 629 192.5 624.5 Q191 620 191 605 L191 500 L303 500 Q316 490 318.5 484.5 Q321 479 321 456 L321 430 L191 430 L191 0 L107 0 L107 430 Z " />
<glyph glyph-name="g" unicode="g" horiz-adv-x="576" d="M193 70 L336 70 Q360 70 384 90 Q408 110 408 130 L408 379 Q408 394 405 399 Q402 404 384 415 Q366 426 359.5 428 Q353 430 335 430 L193 430 Q175 430 170 428.5 Q165 427 156 420 Q147 413 145.5 408.5 Q144 404 144 389 L144 111 Q144 96 145.5 91.5 Q147 87 156 80 Q165 73 170 71.5 Q175 70 193 70 Z M122 -190 L359 -190 Q377 -190 382 -188.5 Q387 -187 396 -180 Q405 -173 406.5 -168.5 Q408 -164 408 -149 L408 48 L404 48 Q402 39 380 20 Q356 0 332 0 L156 0 Q132 0 108 20 L84 40 Q60 60 60 90 L60 410 Q60 440 84 460 L108 480 Q132 500 156 500 L347 500 Q365 500 371.5 498 Q378 496 396 485 Q418 472 418 460 L422 460 Q422 472 438 485 Q450 495 456.5 497.5 Q463 500 481 500 L516 500 L516 451 Q516 436 514.5 431.5 Q513 427 504 420 Q495 413 493.5 408.5 Q492 404 492 389 L492 -170 Q492 -200 468 -220 L444 -240 Q420 -260 396 -260 L104 -260 L104 -234 Q104 -211 106.5 -205.5 Q109 -200 122 -190 Z " />
<glyph glyph-name="h" unicode="h" horiz-adv-x="539" d="M208 500 L383 500 Q407 500 431 480 L455 460 Q479 440 479 410 L479 0 L395 0 L395 389 Q395 404 393.5 408.5 Q392 413 383 420 Q374 427 369 428.5 Q364 430 346 430 L218 430 Q199 430 192.5 428 Q186 426 168 415 Q150 404 147 399 Q144 394 144 379 L144 0 L60 0 L60 740 L144 740 L144 453 L148 453 Q148 462 170 481 Q192 500 208 500 Z " />
<glyph glyph-name="i" unicode="i" horiz-adv-x="212" d="M148 0 L64 0 L64 500 L148 500 L148 0 Z M157 656 L157 648 Q157 629 155.5 624 Q154 619 146 612 Q138 604 109 604 L104 604 Q82 604 77 605 Q72 606 65 612 Q58 619 56.5 624 Q55 629 55 648 L55 656 Q55 675 56.5 680 Q58 685 66 692 Q72 698 77 699 Q82 700 104 700 L108 700 Q138 700 147 692 Q154 685 155.5 680 Q157 675 157 656 Z " />
<glyph glyph-name="j" unicode="j" horiz-adv-x="205" d="M145 500 L145 -110 Q145 -140 121 -160 L97 -180 Q73 -200 49 -200 L-5 -200 L-5 -174 Q-5 -151 -2.5 -145.5 Q0 -140 13 -130 Q32 -130 36 -129 Q40 -128 49 -120 Q58 -113 59.5 -108.5 Q61 -104 61 -89 L61 500 L145 500 Z M153 656 L153 648 Q153 629 151.5 624 Q150 619 142 612 Q134 604 105 604 L100 604 Q78 604 73 605 Q68 606 61 612 Q54 619 52.5 624 Q51 629 51 648 L51 656 Q51 675 52.5 680 Q54 685 62 692 Q68 698 73 699 Q78 700 100 700 L104 700 Q134 700 143 692 Q150 685 151.5 680 Q153 675 153 656 Z " />
<glyph glyph-name="k" unicode="k" horiz-adv-x="500" d="M60 0 L60 740 L144 740 L144 285 L228 285 L318 432 Q329 449 334.5 455 Q340 461 355 472 L374 485 Q390 496 396.5 498 Q403 500 421 500 L441 500 L441 461 Q441 438 438 432.5 Q435 427 417 417 L406 411 Q391 402 386 396.5 Q381 391 369 374 L304 273 Q295 259 286 254 L286 250 Q295 248 309 227 L455 0 L362 0 L229 215 L144 215 L144 0 L60 0 Z " />
<glyph glyph-name="l" unicode="l" horiz-adv-x="248" d="M65 740 L149 740 L149 125 Q149 102 151 96.5 Q153 91 165 83 Q178 73 180.5 67.5 Q183 62 183 39 L183 0 L153 0 Q134 0 128 2 Q122 4 107 14 L85 29 Q70 39 67.5 45 Q65 51 65 74 L65 740 Z " />
<glyph glyph-name="m" unicode="m" horiz-adv-x="851" d="M449 452 L453 452 Q454 461 472 474 L487 485 Q505 496 511.5 498 Q518 500 536 500 L695 500 Q719 500 743 480 L767 460 Q791 440 791 410 L791 0 L707 0 L707 389 Q707 404 705.5 408.5 Q704 413 695 420 Q686 427 681 428.5 Q676 430 658 430 L548 430 Q530 430 523.5 428 Q517 426 499 415 Q476 401 475 389 L475 0 L391 0 L391 389 Q391 404 389.5 408.5 Q388 413 379 420 Q370 427 365 428.5 Q360 430 342 430 L241 430 Q223 430 216.5 428 Q210 426 192 415 Q174 404 171 399 Q168 394 168 379 L168 0 L84 0 L84 389 Q84 404 82.5 408.5 Q81 413 72 420 Q63 427 61.5 431.5 Q60 436 60 451 L60 500 L95 500 Q113 500 119.5 497.5 Q126 495 138 485 Q154 472 154 460 L158 460 Q158 472 180 485 Q198 496 204.5 498 Q211 500 229 500 L379 500 Q403 500 427 480 Q448 461 449 452 Z " />
<glyph glyph-name="n" unicode="n" horiz-adv-x="562" d="M60 500 L95 500 Q113 500 119.5 497.5 Q126 495 138 485 Q154 472 154 460 L158 460 Q158 472 180 485 Q198 496 204.5 498 Q211 500 229 500 L406 500 Q430 500 454 480 L478 460 Q502 440 502 410 L502 0 L418 0 L418 389 Q418 404 416.5 408.5 Q415 413 406 420 Q397 427 392 428.5 Q387 430 369 430 L241 430 Q223 430 216.5 428 Q210 426 192 415 Q174 404 171 399 Q168 394 168 379 L168 0 L84 0 L84 389 Q84 404 82.5 408.5 Q81 413 72 420 Q63 427 61.5 431.5 Q60 436 60 451 L60 500 Z " />
<glyph glyph-name="o" unicode="o" horiz-adv-x="554" d="M157 500 L397 500 Q421 500 445 480 L469 460 Q493 440 493 410 L493 90 Q493 60 469 40 L445 20 Q421 0 397 0 L157 0 Q133 0 109 20 L85 40 Q61 60 61 90 L61 410 Q61 440 85 460 L109 480 Q133 500 157 500 Z M409 111 L409 389 Q409 404 407.5 408.5 Q406 413 397 420 Q388 427 383 428.5 Q378 430 360 430 L194 430 Q176 430 171 428.5 Q166 427 157 420 Q148 413 146.5 408.5 Q145 404 145 389 L145 111 Q145 96 146.5 91.5 Q148 87 157 80 Q166 73 171 71.5 Q176 70 194 70 L360 70 Q378 70 383 71.5 Q388 73 397 80 Q406 87 407.5 91.5 Q409 96 409 111 Z " />
<glyph glyph-name="p" unicode="p" horiz-adv-x="576" d="M60 500 L95 500 Q113 500 119.5 497.5 Q126 495 138 485 Q154 472 154 460 L158 460 Q158 472 180 485 Q198 496 204.5 498 Q211 500 229 500 L420 500 Q444 500 468 480 L492 460 Q516 440 516 410 L516 90 Q516 60 492 40 L468 20 Q444 0 420 0 L244 0 Q218 0 196 20 Q172 44 172 50 L168 50 L168 -260 L84 -260 L84 389 Q84 404 82.5 408.5 Q81 413 72 420 Q63 427 61.5 431.5 Q60 436 60 451 L60 500 Z M240 70 L383 70 Q401 70 406 71.5 Q411 73 420 80 Q429 87 430.5 91.5 Q432 96 432 111 L432 389 Q432 404 430.5 408.5 Q429 413 420 420 Q411 427 406 428.5 Q401 430 383 430 L241 430 Q223 430 216.5 428 Q210 426 192 415 Q174 404 171 399 Q168 394 168 379 L168 130 Q168 110 192 90 Q216 70 240 70 Z " />
<glyph glyph-name="q" unicode="q" horiz-adv-x="576" d="M481 500 L516 500 L516 451 Q516 436 514.5 431.5 Q513 427 504 420 Q495 413 493.5 408.5 Q492 404 492 389 L492 -260 L408 -260 L408 50 L404 50 Q404 44 380 20 Q358 0 332 0 L156 0 Q132 0 108 20 L84 40 Q60 60 60 90 L60 410 Q60 440 84 460 L108 480 Q132 500 156 500 L347 500 Q365 500 371.5 498 Q378 496 396 485 Q418 472 418 460 L422 460 Q422 472 438 485 Q450 495 456.5 497.5 Q463 500 481 500 Z M193 70 L336 70 Q360 70 384 90 Q408 110 408 130 L408 379 Q408 394 405 399 Q402 404 384 415 Q366 426 359.5 428 Q353 430 335 430 L193 430 Q175 430 170 428.5 Q165 427 156 420 Q147 413 145.5 408.5 Q144 404 144 389 L144 111 Q144 96 145.5 91.5 Q147 87 156 80 Q165 73 170 71.5 Q175 70 193 70 Z " />
<glyph glyph-name="r" unicode="r" horiz-adv-x="418" d="M60 500 L95 500 Q113 500 119.5 497.5 Q126 495 138 485 Q154 472 154 460 L158 460 Q158 472 180 485 Q198 496 204.5 498 Q211 500 229 500 L321 500 Q345 500 369 480 L393 460 L333 410 L321 420 Q312 427 307 428.5 Q302 430 284 430 L241 430 Q223 430 216.5 428 Q210 426 192 415 Q174 404 171 399 Q168 394 168 379 L168 0 L84 0 L84 389 Q84 404 82.5 408.5 Q81 413 72 420 Q63 427 61.5 431.5 Q60 436 60 451 L60 500 Z " />
<glyph glyph-name="s" unicode="s" horiz-adv-x="534" d="M378 290 Q402 290 426 270 L450 250 Q474 230 474 200 L474 90 Q474 60 450 40 L426 20 Q402 0 378 0 L156 0 Q132 0 108 20 L84 40 Q60 60 60 90 L60 130 L144 130 L144 111 Q144 96 145.5 91.5 Q147 87 156 80 Q165 73 170 71.5 Q175 70 193 70 L341 70 Q359 70 364 71.5 Q369 73 378 80 Q387 87 388.5 91.5 Q390 96 390 111 L390 192 Q389 200 378 210 Q369 217 364 218.5 Q359 220 341 220 L166 220 Q142 220 118 240 L94 260 Q70 280 70 310 L70 410 Q70 440 94 460 L118 480 Q142 500 166 500 L378 500 Q402 500 426 480 L450 460 Q474 440 474 410 L474 370 L390 370 L390 389 Q390 404 388.5 408.5 Q387 413 378 420 Q369 427 364 428.5 Q359 430 341 430 L203 430 Q185 430 180 428.5 Q175 427 166 420 Q157 413 155.5 408.5 Q154 404 154 389 L154 331 Q154 316 155.5 311.5 Q157 307 166 300 Q175 293 180 291.5 Q185 290 203 290 L378 290 Z " />
<glyph glyph-name="t" unicode="t" horiz-adv-x="378" d="M175 640 L175 500 L303 500 Q316 490 318.5 484.5 Q321 479 321 456 L321 430 L175 430 L175 111 Q175 96 176.5 91.5 Q178 87 187 80 Q196 73 201 71.5 Q206 70 224 70 L315 70 Q328 60 330.5 54.5 Q333 49 333 26 L333 0 L187 0 Q163 0 139 20 L115 40 Q91 60 91 90 L91 430 L43 430 Q30 440 27.5 445.5 Q25 451 25 474 L25 500 L91 500 L91 640 L175 640 Z " />
<glyph glyph-name="u" unicode="u" horiz-adv-x="542" d="M313 0 L156 0 Q132 0 108 20 L84 40 Q60 60 60 90 L60 500 L144 500 L144 111 Q144 96 145.5 91.5 Q147 87 156 80 Q165 73 170 71.5 Q175 70 193 70 L301 70 Q319 70 325.5 72 Q332 74 350 85 Q368 96 371 101 Q374 106 374 121 L374 500 L458 500 L458 111 Q458 96 459.5 91.5 Q461 87 470 80 Q479 73 480.5 68.5 Q482 64 482 49 L482 0 L447 0 Q429 0 422.5 2.5 Q416 5 404 15 Q388 28 388 40 L384 40 Q384 28 362 15 Q344 4 337.5 2 Q331 0 313 0 Z " />
<glyph glyph-name="v" unicode="v" horiz-adv-x="474" d="M244 92 L376 500 L459 500 L285 0 L189 0 L15 500 L98 500 L230 92 Q235 77 235 68 L239 68 Q239 77 244 92 Z " />
<glyph glyph-name="w" unicode="w" horiz-adv-x="744" d="M365 408 L266 0 L157 0 L15 500 L96 500 L204 85 Q209 70 209 61 L213 61 Q213 70 218 85 L321 500 L423 500 L526 85 Q531 65 531 61 L535 61 Q535 70 540 85 L648 500 L729 500 L587 0 L478 0 L379 408 Q374 428 374 432 L370 432 Q370 428 365 408 Z " />
<glyph glyph-name="x" unicode="x" horiz-adv-x="494" d="M245 320 L249 320 Q249 332 262 351 L360 500 L447 500 L290 259 L459 0 L372 0 L262 168 Q249 188 249 198 L245 198 Q245 188 232 168 L122 0 L35 0 L204 259 L47 500 L134 500 L232 351 Q245 332 245 320 Z " />
<glyph glyph-name="y" unicode="y" horiz-adv-x="538" d="M382 -260 L94 -260 L94 -234 Q94 -211 96.5 -205.5 Q99 -200 112 -190 L357 -190 Q375 -190 380 -188.5 Q385 -187 394 -180 Q403 -173 404.5 -168.5 Q406 -164 406 -149 L406 48 L402 48 Q400 39 378 20 Q354 0 330 0 L156 0 Q132 0 108 20 L84 40 Q60 60 60 90 L60 500 L144 500 L144 111 Q144 96 145.5 91.5 Q147 87 156 80 Q165 73 170 71.5 Q175 70 193 70 L321 70 Q339 70 345.5 72 Q352 74 370 85 Q388 96 391 101 Q394 106 394 121 L394 500 L478 500 L478 -170 Q478 -200 454 -220 L430 -240 Q406 -260 382 -260 Z " />
<glyph glyph-name="z" unicode="z" horiz-adv-x="474" d="M136 70 L411 70 Q424 60 426.5 54.5 Q429 49 429 26 L429 0 L45 0 L45 74 L305 409 Q317 422 326 425 L326 430 L67 430 Q54 440 51.5 445.5 Q49 451 49 474 L49 500 L419 500 L419 424 L157 91 Q145 78 136 75 L136 70 Z " />
<glyph glyph-name="braceleft" unicode="&#x7b;" horiz-adv-x="279" d="M113 366 L113 636 Q113 659 115.5 665 Q118 671 133 681 L155 696 Q170 706 176 708 Q182 710 201 710 L219 710 L219 671 Q219 648 216.5 642.5 Q214 637 201 627 Q189 619 187 613.5 Q185 608 185 585 L185 339 Q185 316 182.5 309.5 Q180 303 165 291 L139 270 Q127 260 117 260 L117 256 Q127 256 139 246 L165 225 Q180 213 182.5 206.5 Q185 200 185 177 L185 15 Q185 -8 187 -13.5 Q189 -19 201 -27 Q214 -37 216.5 -42.5 Q219 -48 219 -71 L219 -110 L201 -110 Q182 -110 176 -108 Q170 -106 155 -96 L133 -81 Q118 -71 115.5 -65 Q113 -59 113 -36 L113 150 Q113 172 95 188 L60 218 L60 298 L95 328 Q113 344 113 366 Z " />
<glyph glyph-name="bar" unicode="&#x7c;" horiz-adv-x="270" d="M100 740 L170 740 L170 -180 L100 -180 L100 740 Z " />
<glyph glyph-name="braceright" unicode="&#x7d;" horiz-adv-x="279" d="M166 636 L166 366 Q166 344 184 328 L219 298 L219 218 L184 188 Q166 172 166 150 L166 -36 Q166 -59 163.5 -65 Q161 -71 146 -81 L124 -96 Q109 -106 103 -108 Q97 -110 78 -110 L60 -110 L60 -71 Q60 -48 62.5 -42.5 Q65 -37 78 -27 Q90 -19 92 -13.5 Q94 -8 94 15 L94 177 Q94 200 96.5 206.5 Q99 213 114 225 L140 246 Q152 256 162 256 L162 260 Q152 260 140 270 L114 291 Q99 303 96.5 309.5 Q94 316 94 339 L94 585 Q94 608 92 613.5 Q90 619 78 627 Q65 637 62.5 642.5 Q60 648 60 671 L60 710 L78 710 Q97 710 103 708 Q109 706 124 696 L146 681 Q161 671 163.5 665 Q166 659 166 636 Z " />
<glyph glyph-name="asciitilde" unicode="&#x7e;" horiz-adv-x="455" d="M75 612 L154 651 Q164 657 178 657 Q182 657 197.5 651.5 Q213 646 230 640 Q247 634 261.5 628.5 Q276 623 278 623 Q283 623 291 626 L353 658 L380 607 L301 567 Q290 561 277 561 Q271 561 256 566.5 Q241 572 224.5 578.5 Q208 585 194.5 590.5 Q181 596 178 596 Q168 596 149 586 L102 561 L75 612 Z " />
<glyph glyph-name="nbspace" unicode="&#xa0;" horiz-adv-x="250" d="" />
<glyph glyph-name="exclamdown" unicode="&#xa1;" horiz-adv-x="284" d="M184 404 L184 381 Q184 360 176 352 Q168 345 144 345 L140 345 Q116 345 109 352 Q102 358 101 362 Q100 366 100 381 L100 404 Q100 425 108 433 Q116 440 140 440 L145 440 Q168 440 175 433 Q182 427 183 423 Q184 419 184 404 Z M111 250 L173 250 L184 -10 L184 -260 L100 -260 L100 -10 L111 250 Z " />
<glyph glyph-name="cent" unicode="&#xa2;" horiz-adv-x="540" d="M235 600 L305 600 L305 500 L384 500 Q408 500 432 480 L456 460 Q480 440 480 410 L480 370 L396 370 L396 389 Q396 404 394.5 408.5 Q393 413 384 420 Q375 427 370 428.5 Q365 430 347 430 L193 430 Q175 430 170 428.5 Q165 427 156 420 Q147 413 145.5 408.5 Q144 404 144 389 L144 111 Q144 96 145.5 91.5 Q147 87 156 80 Q165 73 170 71.5 Q175 70 193 70 L347 70 Q365 70 370 71.5 Q375 73 384 80 Q393 87 394.5 91.5 Q396 96 396 111 L396 130 L480 130 L480 90 Q480 60 456 40 L432 20 Q408 0 384 0 L305 0 L305 -101 L235 -101 L235 0 L156 0 Q132 0 108 20 L84 40 Q60 60 60 90 L60 410 Q60 440 84 460 L108 480 Q132 500 156 500 L235 500 L235 600 Z " />
<glyph glyph-name="sterling" unicode="&#xa3;" horiz-adv-x="588" d="M392 365 L392 300 L197 300 L197 147 Q197 123 175 97 Q156 76 150 75 L150 71 L553 71 L553 0 L53 0 L53 71 Q73 71 93 95 Q113 119 113 143 L113 300 L45 300 L45 365 L113 365 L113 604 Q113 628 133 652 L153 676 Q173 700 203 700 L406 700 Q436 700 456 676 L476 652 Q496 628 496 604 L496 570 L412 570 L412 581 Q412 599 410.5 604 Q409 609 402 618 Q395 627 390.5 628.5 Q386 630 371 630 L238 630 Q223 630 218.5 628.5 Q214 627 207 618 Q200 609 198.5 604 Q197 599 197 581 L197 365 L392 365 Z " />
<glyph glyph-name="currency" unicode="&#xa4;" horiz-adv-x="514" d="M91 561 L145 509 L369 509 L423 561 L469 515 L418 464 L418 221 L469 169 L423 123 L371 175 L145 175 L91 123 L45 169 L96 220 L96 463 L45 515 L91 561 Z M152 440 L152 244 Q152 232 158 227 Q165 222 178 222 L336 222 Q349 222 356 227 Q362 232 362 244 L362 440 Q362 452 356 457 Q349 462 336 462 L178 462 Q165 462 158 457 Q152 452 152 440 Z " />
<glyph glyph-name="yen" unicode="&#xa5;" horiz-adv-x="574" d="M487 225 L487 160 L329 160 L329 0 L245 0 L245 160 L87 160 L87 225 L245 225 L245 286 L87 286 L87 351 L211 351 L15 700 L111 700 L272 394 Q284 373 285 363 L289 363 Q290 369 302 394 L463 700 L559 700 L362 351 L487 351 L487 286 L329 286 L329 225 L487 225 Z " />
<glyph glyph-name="brokenbar" unicode="&#xa6;" horiz-adv-x="270" d="M100 199 L170 199 L170 -180 L100 -180 L100 199 Z M100 740 L170 740 L170 361 L100 361 L100 740 Z " />
<glyph glyph-name="section" unicode="&#xa7;" horiz-adv-x="644" d="M518 67 L549 41 Q561 31 564 25.5 Q567 20 567 4 L567 -110 Q567 -140 543 -160 L519 -180 Q495 -200 471 -200 L171 -200 Q147 -200 123 -180 L99 -160 Q75 -140 75 -110 L75 -70 L159 -70 L159 -89 Q159 -104 160.5 -108.5 Q162 -113 171 -120 Q180 -127 185 -128.5 Q190 -130 209 -130 L434 -130 Q452 -130 457 -128.5 Q462 -127 471 -120 Q480 -113 481.5 -108.5 Q483 -104 483 -89 L483 -15 Q483 4 480.5 9.5 Q478 15 463 27 L448 39 Q433 52 427 54 Q421 56 402 56 L304 56 Q286 56 280 58 Q274 60 260 72 L106 200 Q88 214 87 226 L87 334 Q87 358 89.5 364 Q92 370 107 382 L148 416 Q162 427 173 428 L173 432 Q160 433 148 443 L117 469 Q104 479 101.5 484.5 Q99 490 99 506 L99 620 Q99 650 123 670 L147 690 Q171 710 195 710 L447 710 Q471 710 495 690 L519 670 Q543 650 543 620 L543 580 L459 580 L459 599 Q459 614 457.5 618.5 Q456 623 447 630 Q438 637 433 638.5 Q428 640 409 640 L232 640 Q214 640 209 638.5 Q204 637 195 630 Q186 623 184.5 618.5 Q183 614 183 599 L183 525 Q183 506 185.5 500.5 Q188 495 203 483 L218 471 Q233 458 239 456 Q245 454 264 454 L362 454 Q380 454 386 452 Q392 450 406 438 L560 310 Q574 298 576.5 292.5 Q579 287 579 268 L579 176 Q579 152 576.5 146 Q574 140 559 128 L518 94 Q504 83 493 82 L493 78 Q506 77 518 67 Z M338 390 L250 390 Q231 390 225 388 Q219 386 204 373 L189 360 Q171 344 171 322 L171 258 Q171 238 173.5 232.5 Q176 227 190 215 L285 135 Q298 124 304 122 Q310 120 328 120 L416 120 Q435 120 441 122 Q447 124 462 137 L477 150 Q495 166 495 188 L495 252 Q495 272 492.5 277.5 Q490 283 476 295 L381 375 Q368 386 362 388 Q356 390 338 390 Z " />
<glyph glyph-name="dieresis" unicode="&#xa8;" horiz-adv-x="388" d="M162 636 L162 628 Q162 609 161 604.5 Q160 600 153 595 Q144 586 117 586 L112 586 Q86 586 76 595 Q66 604 66 628 L66 636 Q66 658 76 669 Q82 676 87 677 Q92 678 112 678 Q135 678 141 677 Q147 676 154 669 Q160 664 161 659.5 Q162 655 162 636 Z M322 636 L322 628 Q322 609 321 604.5 Q320 600 313 595 Q304 586 277 586 L272 586 Q246 586 236 595 Q226 604 226 628 L226 636 Q226 658 236 669 Q242 676 247 677 Q252 678 272 678 Q295 678 301 677 Q307 676 314 669 Q320 664 321 659.5 Q322 655 322 636 Z " />
<glyph glyph-name="copyright" unicode="&#xa9;" horiz-adv-x="732" d="M657 130 Q657 100 633 80 L609 60 Q585 40 561 40 L171 40 Q147 40 123 60 L99 80 Q75 100 75 130 L75 550 Q75 580 99 600 L123 620 Q147 640 171 640 L561 640 Q585 640 609 620 L633 600 Q657 580 657 550 L657 130 Z M595 515 Q595 538 592.5 544 Q590 550 577 561 L565 571 Q552 582 546 584 Q540 586 522 586 L210 586 Q192 586 186 584 Q180 582 167 571 L155 561 Q142 550 139.5 544 Q137 538 137 515 L137 165 Q137 142 139.5 136 Q142 130 155 119 L167 109 Q180 98 186 96 Q192 94 210 94 L522 94 Q540 94 546 96 Q552 98 565 109 L577 119 Q590 130 592.5 136 Q595 142 595 165 L595 515 Z M470 456 L534 456 L534 493 Q534 511 520 523 L505 534 Q489 546 476 546 L264 546 Q251 546 237 534 L223 523 Q208 512 208 493 L208 187 Q208 168 223 157 L237 146 Q251 134 264 134 L476 134 Q489 134 505 146 L520 157 Q534 169 534 187 L534 224 L470 224 L470 214 Q470 202 462 195 Q455 189 439 189 L301 189 Q286 189 278 195 Q272 201 272 213 L272 467 Q272 479 278 485 Q286 491 301 491 L439 491 Q455 491 462 485 Q470 478 470 466 L470 456 Z " />
<glyph glyph-name="ordfeminine" unicode="&#xaa;" horiz-adv-x="435" d="M315 376 L310 376 Q308 368 298 359 Q282 346 262 346 L129 346 Q110 346 95 361 L77 375 Q61 389 61 410 L61 495 Q61 515 77 531 L95 545 Q111 559 129 559 L258 559 Q276 559 285 552 Q293 545 293 538 L296 538 L296 614 Q296 629 288 636 Q280 643 261 643 L151 643 Q138 643 133 641 Q128 639 116 629 L74 672 L90 686 Q102 696 107 698 Q112 700 125 700 L297 700 Q314 700 332 686 L349 672 Q366 657 366 636 L366 426 Q366 411 374 404 Q382 397 382 382 L382 346 L359 346 Q346 346 341.5 348 Q337 350 328 359 Q317 370 315 376 Z M126 479 L126 432 Q126 417 134 410 Q142 403 160 403 L245 403 Q263 403 279 414 Q291 421 293.5 424.5 Q296 428 296 439 L296 479 Q296 495 288 502 Q279 509 260 509 L160 509 Q142 509 134 502 Q126 495 126 479 Z " />
<glyph glyph-name="guillemotleft" unicode="&#xab;" horiz-adv-x="522" d="M231 541 L284 501 L140 273 L284 45 L231 5 L65 273 L231 541 Z M404 541 L457 501 L313 273 L457 45 L404 5 L238 273 L404 541 Z " />
<glyph glyph-name="logicalnot" unicode="&#xac;" horiz-adv-x="500" d="M60 359 L440 359 L440 187 L375 187 L375 294 L60 294 L60 359 Z " />
<glyph glyph-name="uni00AD" unicode="&#xad;" horiz-adv-x="361" d="M300 359 L300 294 L60 294 L60 359 L300 359 Z " />
<glyph glyph-name="registered" unicode="&#xae;" horiz-adv-x="732" d="M469 546 L208 546 L208 134 L272 134 L272 302 L361 302 L441 173 Q450 160 462 150 L473 142 Q486 134 501 134 L533 134 L533 156 Q533 170 531 173.5 Q529 177 519 184 L512 186 Q499 195 490 209 L431 302 L469 302 Q483 302 496 313 L511 324 Q525 336 525 356 L525 494 Q525 512 512 523 L497 534 Q481 546 469 546 Z M272 354 L272 491 L433 491 Q447 491 455 485 Q463 480 463 466 L463 378 Q463 365 455 360 Q447 354 433 354 L272 354 Z M657 130 Q657 100 633 80 L609 60 Q585 40 561 40 L171 40 Q147 40 123 60 L99 80 Q75 100 75 130 L75 550 Q75 580 99 600 L123 620 Q147 640 171 640 L561 640 Q585 640 609 620 L633 600 Q657 580 657 550 L657 130 Z M595 515 Q595 538 592.5 544 Q590 550 577 561 L565 571 Q552 582 546 584 Q540 586 522 586 L210 586 Q192 586 186 584 Q180 582 167 571 L155 561 Q142 550 139.5 544 Q137 538 137 515 L137 165 Q137 142 139.5 136 Q142 130 155 119 L167 109 Q180 98 186 96 Q192 94 210 94 L522 94 Q540 94 546 96 Q552 98 565 109 L577 119 Q590 130 592.5 136 Q595 142 595 165 L595 515 Z " />
<glyph glyph-name="overscore" unicode="&#xaf;" horiz-adv-x="528" d="M528 700 L528 635 L0 635 L0 700 L528 700 Z " />
<glyph glyph-name="degree" unicode="&#xb0;" horiz-adv-x="401" d="M109 700 L293 700 Q306 700 318 690 L330 679 Q342 669 342 654 L342 466 Q342 451 330 441 L318 430 Q306 420 293 420 L109 420 Q97 420 85 430 L72 441 Q60 451 60 466 L60 654 Q60 669 72 679 L85 690 Q97 700 109 700 Z M276 499 L276 621 Q276 633 270 638 Q264 643 251 643 L152 643 Q139 643 132 638 Q126 633 126 621 L126 499 Q126 487 132 482 Q139 477 152 477 L251 477 Q264 477 270 482 Q276 487 276 499 Z " />
<glyph glyph-name="plusminus" unicode="&#xb1;" horiz-adv-x="538" d="M236 655 L301 655 L301 479 L478 479 L478 414 L301 414 L301 237 L236 237 L236 414 L60 414 L60 479 L236 479 L236 655 Z M60 175 L478 175 L478 110 L60 110 L60 175 Z " />
<glyph glyph-name="twosuperior" unicode="&#xb2;" horiz-adv-x="358" d="M67 340 L67 398 Q67 410 68.5 413.5 Q70 417 77 424 L232 554 Q240 562 240 570 L240 629 Q240 637 235 641 Q230 645 219 645 L140 645 Q129 645 124 641 Q119 637 119 629 L119 615 L59 615 L59 650 Q59 668 72 679 L85 689 Q102 700 111 700 L253 700 Q266 700 280 689 L292 679 Q306 668 306 650 L306 555 Q306 541 294 530 L140 409 Q132 401 132 395 L314 395 L314 340 L67 340 Z " />
<glyph glyph-name="threesuperior" unicode="&#xb3;" horiz-adv-x="371" d="M272 536 L272 532 Q282 532 287 527 L301 513 Q309 505 311 501 Q313 497 313 485 L313 390 Q313 372 303 361 L294 352 Q282 340 267 340 L111 340 Q97 340 84 351 L71 361 Q58 370 58 390 L58 425 L118 425 L118 410 Q118 403 123 399 Q128 395 139 395 L233 395 Q241 395 248 399 Q253 403 253 410 L253 474 Q253 481 245 489 L238 495 Q229 503 218 503 L154 503 L154 555 L211 555 Q223 555 234 564 Q247 574 247 585 L247 629 Q247 637 242 641 Q237 645 227 645 L149 645 Q138 645 133 641 Q128 637 128 629 L128 615 L68 615 L68 650 Q68 668 81 679 L93 689 Q106 700 120 700 L255 700 Q267 700 282 689 L293 679 Q307 667 307 650 L307 571 Q307 557 296 548 L287 541 Q280 536 272 536 Z " />
<glyph glyph-name="acute" unicode="&#xb4;" horiz-adv-x="330" d="M255 646 L101 550 L75 590 L212 709 L255 646 Z " />
<glyph glyph-name="mu" unicode="&#xb5;" horiz-adv-x="556" d="M327 0 L192 0 Q168 0 144 20 L140 20 L140 -260 L60 -260 L60 500 L144 500 L144 111 Q144 96 145.5 91.5 Q147 87 156 80 Q165 73 170 71.5 Q175 70 193 70 L315 70 Q333 70 339.5 72 Q346 74 364 85 Q382 96 385 101 Q388 106 388 121 L388 500 L472 500 L472 111 Q472 96 473.5 91.5 Q475 87 484 80 Q493 73 494.5 68.5 Q496 64 496 49 L496 0 L461 0 Q443 0 436.5 2.5 Q430 5 418 15 Q402 28 402 40 L398 40 Q398 28 376 15 Q358 4 351.5 2 Q345 0 327 0 Z " />
<glyph glyph-name="paragraph" unicode="&#xb6;" horiz-adv-x="517" d="M109 740 L285 740 L285 -180 L225 -180 L225 386 L109 386 Q97 386 85 396 L72 407 Q60 417 60 432 L60 694 Q60 709 72 719 L85 730 Q97 740 109 740 Z M360 740 L420 740 L420 -180 L360 -180 L360 740 Z " />
<glyph glyph-name="middot" unicode="&#xb7;" horiz-adv-x="293" d="M220 311 Q220 299 220 292.5 Q220 286 218.5 281.5 Q217 277 214 274 Q211 271 206 266 Q198 258 191.5 256.5 Q185 255 159 255 L135 255 Q121 255 113 255 Q105 255 100.5 256 Q96 257 92.5 259.5 Q89 262 85 266 Q80 271 77.5 274 Q75 277 73.5 281.5 Q72 286 72 292.5 Q72 299 72 311 L72 349 Q72 361 72 367.5 Q72 374 73.5 378.5 Q75 383 78 386 Q81 389 86 394 Q90 398 93 400.5 Q96 403 100.5 404 Q105 405 113 405 Q121 405 135 405 L158 405 Q171 405 179 405 Q187 405 191.5 404 Q196 403 199.5 400.5 Q203 398 208 394 Q212 389 214.5 386 Q217 383 218.5 378.5 Q220 374 220 367.5 Q220 361 220 349 L220 311 Z " />
<glyph glyph-name="cedilla" unicode="&#xb8;" horiz-adv-x="380" d="M137 0 L186 0 L186 -59 Q212 -40 222 -40 L254 -40 Q266 -40 278 -50 L290 -60 Q302 -70 302 -85 L302 -175 Q302 -190 290 -200 L278 -210 Q266 -220 254 -220 L143 -220 Q131 -220 119 -210 L107 -200 Q95 -190 95 -175 L95 -143 L144 -143 L144 -152 Q144 -163 150 -168 Q156 -173 169 -173 L227 -173 Q241 -173 247 -168 Q253 -163 253 -152 L253 -108 Q253 -97 247 -92 Q241 -87 228 -87 L207 -87 Q201 -87 196 -90 L186 -97 L137 -97 L137 0 Z " />
<glyph glyph-name="onesuperior" unicode="&#xb9;" horiz-adv-x="270" d="M116 700 L215 700 L215 340 L151 340 L151 653 L94 591 L53 631 L116 700 Z " />
<glyph glyph-name="ordmasculine" unicode="&#xba;" horiz-adv-x="422" d="M109 700 L313 700 Q326 700 338 690 L350 679 Q362 669 362 654 L362 392 Q362 377 350 367 L338 356 Q326 346 313 346 L109 346 Q97 346 85 356 L72 367 Q60 377 60 392 L60 654 Q60 669 72 679 L85 690 Q97 700 109 700 Z M296 425 L296 621 Q296 633 290 638 Q284 643 271 643 L152 643 Q139 643 132 638 Q126 633 126 621 L126 425 Q126 413 132 408 Q139 403 152 403 L271 403 Q284 403 290 408 Q296 413 296 425 Z " />
<glyph glyph-name="guillemotright" unicode="&#xbb;" horiz-adv-x="522" d="M238 501 L291 541 L457 273 L291 5 L238 45 L382 273 L238 501 Z M65 501 L118 541 L284 273 L118 5 L65 45 L209 273 L65 501 Z " />
<glyph glyph-name="onequarter" unicode="&#xbc;" horiz-adv-x="769" d="M637 716 L145 -46 L76 -46 L564 716 L637 716 Z M138 700 L237 700 L237 340 L173 340 L173 653 L116 591 L75 631 L138 700 Z M637 356 L471 131 L581 131 L581 221 L641 221 L641 131 L689 131 L689 76 L641 76 L641 1 L581 1 L581 76 L399 76 L399 122 L563 356 L637 356 Z " />
<glyph glyph-name="onehalf" unicode="&#xbd;" horiz-adv-x="776" d="M636 716 L144 -46 L75 -46 L563 716 L636 716 Z M138 700 L237 700 L237 340 L173 340 L173 653 L116 591 L75 631 L138 700 Z M454 1 L454 59 Q454 71 455.5 74.5 Q457 78 464 85 L619 215 Q627 223 627 231 L627 290 Q627 298 622 302 Q617 306 606 306 L527 306 Q516 306 511 302 Q506 298 506 290 L506 276 L446 276 L446 311 Q446 329 459 340 L472 350 Q489 361 498 361 L640 361 Q653 361 667 350 L679 340 Q693 329 693 311 L693 216 Q693 202 681 191 L527 70 Q519 62 519 56 L701 56 L701 1 L454 1 Z " />
<glyph glyph-name="threequarters" unicode="&#xbe;" horiz-adv-x="818" d="M289 536 L289 532 Q299 532 304 527 L318 513 Q326 505 328 501 Q330 497 330 485 L330 390 Q330 372 320 361 L311 352 Q299 340 284 340 L128 340 Q114 340 101 351 L88 361 Q75 370 75 390 L75 425 L135 425 L135 410 Q135 403 140 399 Q145 395 156 395 L250 395 Q258 395 265 399 Q270 403 270 410 L270 474 Q270 481 262 489 L255 495 Q246 503 235 503 L171 503 L171 555 L228 555 Q240 555 251 564 Q264 574 264 585 L264 629 Q264 637 259 641 Q254 645 244 645 L166 645 Q155 645 150 641 Q145 637 145 629 L145 615 L85 615 L85 650 Q85 668 98 679 L110 689 Q123 700 137 700 L272 700 Q284 700 299 689 L310 679 Q324 667 324 650 L324 571 Q324 557 313 548 L304 541 Q297 536 289 536 Z M711 716 L219 -46 L150 -46 L638 716 L711 716 Z M711 356 L545 131 L655 131 L655 221 L715 221 L715 131 L763 131 L763 76 L715 76 L715 1 L655 1 L655 76 L473 76 L473 122 L637 356 L711 356 Z " />
<glyph glyph-name="questiondown" unicode="&#xbf;" horiz-adv-x="532" d="M275 240 L359 240 L359 140 Q359 110 335 90 L311 70 Q287 50 263 50 L198 50 Q180 50 175 48.5 Q170 47 161 40 Q152 33 150.5 28.5 Q149 24 149 9 L149 -149 Q149 -164 150.5 -168.5 Q152 -173 161 -180 Q170 -187 175 -188.5 Q180 -190 198 -190 L364 -190 Q382 -190 387 -188.5 Q392 -187 401 -180 Q410 -173 411.5 -168.5 Q413 -164 413 -149 L413 -130 L497 -130 L497 -170 Q497 -200 473 -220 L449 -240 Q425 -260 401 -260 L161 -260 Q137 -260 113 -240 L89 -220 Q65 -200 65 -170 L65 37 Q65 60 87 78 L113 100 Q137 120 161 120 L226 120 Q244 120 249 121.5 Q254 123 263 130 Q272 137 273.5 141.5 Q275 146 275 161 L275 240 Z M275 381 L275 404 Q275 419 276 423 Q277 427 284 433 Q291 440 314 440 L319 440 Q343 440 351 433 Q359 425 359 404 L359 381 Q359 366 358 362 Q357 358 350 352 Q343 345 319 345 L315 345 Q291 345 283 352 Q275 360 275 381 Z " />
<glyph glyph-name="Agrave" unicode="&#xc0;" horiz-adv-x="703" d="M50 0 L290 700 L408 700 L653 0 L569 0 L517 145 L184 145 L134 0 L50 0 Z M351 640 L347 640 Q347 628 340 611 L205 210 L496 210 L358 611 Q351 628 351 640 Z M230 804 L263 870 L425 773 L406 733 L230 804 Z " />
<glyph glyph-name="Aacute" unicode="&#xc1;" horiz-adv-x="703" d="M50 0 L290 700 L408 700 L653 0 L569 0 L517 145 L184 145 L134 0 L50 0 Z M351 640 L347 640 Q347 628 340 611 L205 210 L496 210 L358 611 Q351 628 351 640 Z M289 733 L270 773 L432 870 L465 804 L289 733 Z " />
<glyph glyph-name="Acircumflex" unicode="&#xc2;" horiz-adv-x="703" d="M50 0 L290 700 L408 700 L653 0 L569 0 L517 145 L184 145 L134 0 L50 0 Z M351 640 L347 640 Q347 628 340 611 L205 210 L496 210 L358 611 Q351 628 351 640 Z M349 810 L247 748 L221 782 L324 870 L377 870 L480 782 L454 748 L353 810 L349 810 Z " />
<glyph glyph-name="Atilde" unicode="&#xc3;" horiz-adv-x="703" d="M50 0 L290 700 L408 700 L653 0 L569 0 L517 145 L184 145 L134 0 L50 0 Z M351 640 L347 640 Q347 628 340 611 L205 210 L496 210 L358 611 Q351 628 351 640 Z M278 841 Q282 843 289 845 Q296 847 302 847 Q312 847 326 841.5 Q340 836 354.5 830 Q369 824 381.5 818.5 Q394 813 402 813 Q407 813 415 816 L477 848 L504 797 L425 757 Q421 755 414 753 Q407 751 401 751 Q389 751 375.5 756.5 Q362 762 348.5 768.5 Q335 775 323 780.5 Q311 786 302 786 Q295 786 291 785 Q287 784 273 776 L226 751 L199 802 L278 841 Z " />
<glyph glyph-name="Adieresis" unicode="&#xc4;" horiz-adv-x="703" d="M50 0 L290 700 L408 700 L653 0 L569 0 L517 145 L184 145 L134 0 L50 0 Z M351 640 L347 640 Q347 628 340 611 L205 210 L496 210 L358 611 Q351 628 351 640 Z M316 798 Q316 779 315 774.5 Q314 770 307 765 Q300 758 294.5 757 Q289 756 271 756 L266 756 Q247 756 242 757.5 Q237 759 230 765 Q223 771 221.5 776 Q220 781 220 798 L220 806 Q220 823 221.5 827 Q223 831 230 839 Q236 846 241 847 Q246 848 266 848 Q289 848 295 847 Q301 846 308 839 Q314 834 315 829.5 Q316 825 316 806 L316 798 Z M482 798 Q482 779 481 774.5 Q480 770 473 765 Q466 758 460.5 757 Q455 756 437 756 L432 756 Q413 756 408 757.5 Q403 759 396 765 Q389 771 387.5 776 Q386 781 386 798 L386 806 Q386 823 387.5 827 Q389 831 396 839 Q402 846 407 847 Q412 848 432 848 Q455 848 461 847 Q467 846 474 839 Q480 834 481 829.5 Q482 825 482 806 L482 798 Z " />
<glyph glyph-name="Aring" unicode="&#xc5;" horiz-adv-x="703" d="M50 0 L290 700 L408 700 L653 0 L569 0 L517 145 L184 145 L134 0 L50 0 Z M351 640 L347 640 Q347 628 340 611 L205 210 L496 210 L358 611 Q351 628 351 640 Z M320 911 L382 911 Q410 911 416.5 909.5 Q423 908 431 900 Q441 890 443 884 Q445 878 445 855 L445 806 Q445 782 443 776.5 Q441 771 431 761 Q423 753 416.5 751.5 Q410 750 382 750 L320 750 Q292 750 285.5 751.5 Q279 753 271 761 Q261 771 259 776.5 Q257 782 257 806 L257 855 Q257 878 259 884 Q261 890 271 900 Q279 908 285.5 909.5 Q292 911 320 911 Z M327 793 L375 793 Q388 793 396 799 Q402 804 402 820 L402 841 Q402 857 396 862 Q388 868 375 868 L327 868 Q314 868 306 862 Q300 857 300 841 L300 820 Q300 804 306 799 Q314 793 327 793 Z " />
<glyph glyph-name="AE" unicode="&#xc6;" horiz-adv-x="903" d="M828 70 L828 0 L410 0 L410 145 L168 145 L118 0 L25 0 L280 700 L828 700 L828 630 L494 630 L494 390 L772 390 L772 320 L494 320 L494 70 L828 70 Z M336 630 L189 210 L410 210 L410 630 L336 630 Z " />
<glyph glyph-name="Ccedilla" unicode="&#xc7;" horiz-adv-x="663" d="M518 0 L389 0 L389 -59 Q415 -40 425 -40 L457 -40 Q469 -40 481 -50 L493 -60 Q505 -70 505 -85 L505 -175 Q505 -190 493 -200 L481 -210 Q469 -220 457 -220 L346 -220 Q334 -220 322 -210 L310 -200 Q298 -190 298 -175 L298 -143 L347 -143 L347 -152 Q347 -163 353 -168 Q359 -173 372 -173 L430 -173 Q444 -173 450 -168 Q456 -163 456 -152 L456 -108 Q456 -97 450 -92 Q444 -87 431 -87 L410 -87 Q404 -87 399 -90 L389 -97 L340 -97 L340 0 L196 0 Q172 0 148 20 L124 40 Q100 60 100 90 L100 610 Q100 640 124 660 L148 680 Q172 700 196 700 L518 700 Q542 700 566 680 L590 660 Q614 640 614 610 L614 570 L530 570 L530 589 Q530 604 528.5 608.5 Q527 613 518 620 Q509 627 504 628.5 Q499 630 481 630 L233 630 Q215 630 210 628.5 Q205 627 196 620 Q187 613 185.5 608.5 Q184 604 184 589 L184 111 Q184 96 185.5 91.5 Q187 87 196 80 Q205 73 210 71.5 Q215 70 233 70 L481 70 Q499 70 504 71.5 Q509 73 518 80 Q527 87 528.5 91.5 Q530 96 530 111 L530 130 L614 130 L614 90 Q614 60 590 40 L566 20 Q542 0 518 0 Z " />
<glyph glyph-name="Egrave" unicode="&#xc8;" horiz-adv-x="623" d="M548 70 L548 0 L100 0 L100 700 L548 700 L548 630 L184 630 L184 390 L492 390 L492 320 L184 320 L184 70 L548 70 Z M210 804 L243 870 L405 773 L386 733 L210 804 Z " />
<glyph glyph-name="Eacute" unicode="&#xc9;" horiz-adv-x="623" d="M548 70 L548 0 L100 0 L100 700 L548 700 L548 630 L184 630 L184 390 L492 390 L492 320 L184 320 L184 70 L548 70 Z M269 733 L250 773 L412 870 L445 804 L269 733 Z " />
<glyph glyph-name="Ecircumflex" unicode="&#xca;" horiz-adv-x="623" d="M548 70 L548 0 L100 0 L100 700 L548 700 L548 630 L184 630 L184 390 L492 390 L492 320 L184 320 L184 70 L548 70 Z M336 810 L234 748 L208 782 L311 870 L364 870 L467 782 L441 748 L340 810 L336 810 Z " />
<glyph glyph-name="Edieresis" unicode="&#xcb;" horiz-adv-x="623" d="M548 70 L548 0 L100 0 L100 700 L548 700 L548 630 L184 630 L184 390 L492 390 L492 320 L184 320 L184 70 L548 70 Z M296 798 Q296 779 295 774.5 Q294 770 287 765 Q280 758 274.5 757 Q269 756 251 756 L246 756 Q227 756 222 757.5 Q217 759 210 765 Q203 771 201.5 776 Q200 781 200 798 L200 806 Q200 823 201.5 827 Q203 831 210 839 Q216 846 221 847 Q226 848 246 848 Q269 848 275 847 Q281 846 288 839 Q294 834 295 829.5 Q296 825 296 806 L296 798 Z M462 798 Q462 779 461 774.5 Q460 770 453 765 Q446 758 440.5 757 Q435 756 417 756 L412 756 Q393 756 388 757.5 Q383 759 376 765 Q369 771 367.5 776 Q366 781 366 798 L366 806 Q366 823 367.5 827 Q369 831 376 839 Q382 846 387 847 Q392 848 412 848 Q435 848 441 847 Q447 846 454 839 Q460 834 461 829.5 Q462 825 462 806 L462 798 Z " />
<glyph glyph-name="Igrave" unicode="&#xcc;" horiz-adv-x="284" d="M100 700 L184 700 L184 0 L100 0 L100 700 Z M2 804 L35 870 L197 773 L178 733 L2 804 Z " />
<glyph glyph-name="Iacute" unicode="&#xcd;" horiz-adv-x="284" d="M100 700 L184 700 L184 0 L100 0 L100 700 Z M97 733 L78 773 L240 870 L273 804 L97 733 Z " />
<glyph glyph-name="Icircumflex" unicode="&#xce;" horiz-adv-x="284" d="M100 700 L184 700 L184 0 L100 0 L100 700 Z M139 810 L37 748 L11 782 L114 870 L167 870 L270 782 L244 748 L143 810 L139 810 Z " />
<glyph glyph-name="Idieresis" unicode="&#xcf;" horiz-adv-x="284" d="M100 700 L184 700 L184 0 L100 0 L100 700 Z M108 798 Q108 779 107 774.5 Q106 770 99 765 Q92 758 86.5 757 Q81 756 63 756 L58 756 Q39 756 34 757.5 Q29 759 22 765 Q15 771 13.5 776 Q12 781 12 798 L12 806 Q12 823 13.5 827 Q15 831 22 839 Q28 846 33 847 Q38 848 58 848 Q81 848 87 847 Q93 846 100 839 Q106 834 107 829.5 Q108 825 108 806 L108 798 Z M274 798 Q274 779 273 774.5 Q272 770 265 765 Q258 758 252.5 757 Q247 756 229 756 L224 756 Q205 756 200 757.5 Q195 759 188 765 Q181 771 179.5 776 Q178 781 178 798 L178 806 Q178 823 179.5 827 Q181 831 188 839 Q194 846 199 847 Q204 848 224 848 Q247 848 253 847 Q259 846 266 839 Q272 834 273 829.5 Q274 825 274 806 L274 798 Z " />
<glyph glyph-name="Eth" unicode="&#xd0;" horiz-adv-x="746" d="M107 385 L107 700 L477 700 Q503 700 525 680 L621 600 Q645 580 645 560 L645 140 Q645 120 621 100 L525 20 Q503 0 477 0 L107 0 L107 320 L15 320 L15 385 L107 385 Z M357 385 L357 320 L191 320 L191 70 L441 70 Q467 70 489 90 L537 130 Q561 150 561 170 L561 530 Q561 550 537 570 L489 610 Q467 630 441 630 L191 630 L191 385 L357 385 Z " />
<glyph glyph-name="Ntilde" unicode="&#xd1;" horiz-adv-x="730" d="M550 130 L553 131 Q546 155 546 179 L546 700 L630 700 L630 0 L546 0 L180 562 L177 561 Q184 537 184 513 L184 0 L100 0 L100 700 L184 700 L550 130 Z M311 841 Q315 843 322 845 Q329 847 335 847 Q345 847 359 841.5 Q373 836 387.5 830 Q402 824 414.5 818.5 Q427 813 435 813 Q440 813 448 816 L510 848 L537 797 L458 757 Q454 755 447 753 Q440 751 434 751 Q422 751 408.5 756.5 Q395 762 381.5 768.5 Q368 775 356 780.5 Q344 786 335 786 Q328 786 324 785 Q320 784 306 776 L259 751 L232 802 L311 841 Z " />
<glyph glyph-name="Ograve" unicode="&#xd2;" horiz-adv-x="788" d="M196 700 L562 700 Q586 700 610 680 L634 660 Q658 640 658 610 L658 90 Q658 60 634 40 L610 20 Q586 0 562 0 L196 0 Q172 0 148 20 L124 40 Q100 60 100 90 L100 610 Q100 640 124 660 L148 680 Q172 700 196 700 Z M574 111 L574 589 Q574 604 572.5 608.5 Q571 613 562 620 Q553 627 548 628.5 Q543 630 525 630 L233 630 Q215 630 210 628.5 Q205 627 196 620 Q187 613 185.5 608.5 Q184 604 184 589 L184 111 Q184 96 185.5 91.5 Q187 87 196 80 Q205 73 210 71.5 Q215 70 233 70 L525 70 Q543 70 548 71.5 Q553 73 562 80 Q571 87 572.5 91.5 Q574 96 574 111 Z M273 804 L306 870 L468 773 L449 733 L273 804 Z " />
<glyph glyph-name="Oacute" unicode="&#xd3;" horiz-adv-x="788" d="M196 700 L562 700 Q586 700 610 680 L634 660 Q658 640 658 610 L658 90 Q658 60 634 40 L610 20 Q586 0 562 0 L196 0 Q172 0 148 20 L124 40 Q100 60 100 90 L100 610 Q100 640 124 660 L148 680 Q172 700 196 700 Z M574 111 L574 589 Q574 604 572.5 608.5 Q571 613 562 620 Q553 627 548 628.5 Q543 630 525 630 L233 630 Q215 630 210 628.5 Q205 627 196 620 Q187 613 185.5 608.5 Q184 604 184 589 L184 111 Q184 96 185.5 91.5 Q187 87 196 80 Q205 73 210 71.5 Q215 70 233 70 L525 70 Q543 70 548 71.5 Q553 73 562 80 Q571 87 572.5 91.5 Q574 96 574 111 Z M342 733 L323 773 L485 870 L518 804 L342 733 Z " />
<glyph glyph-name="Ocircumflex" unicode="&#xd4;" horiz-adv-x="788" d="M196 700 L562 700 Q586 700 610 680 L634 660 Q658 640 658 610 L658 90 Q658 60 634 40 L610 20 Q586 0 562 0 L196 0 Q172 0 148 20 L124 40 Q100 60 100 90 L100 610 Q100 640 124 660 L148 680 Q172 700 196 700 Z M574 111 L574 589 Q574 604 572.5 608.5 Q571 613 562 620 Q553 627 548 628.5 Q543 630 525 630 L233 630 Q215 630 210 628.5 Q205 627 196 620 Q187 613 185.5 608.5 Q184 604 184 589 L184 111 Q184 96 185.5 91.5 Q187 87 196 80 Q205 73 210 71.5 Q215 70 233 70 L525 70 Q543 70 548 71.5 Q553 73 562 80 Q571 87 572.5 91.5 Q574 96 574 111 Z M391 810 L289 748 L263 782 L366 870 L419 870 L522 782 L496 748 L395 810 L391 810 Z " />
<glyph glyph-name="Otilde" unicode="&#xd5;" horiz-adv-x="788" d="M196 700 L562 700 Q586 700 610 680 L634 660 Q658 640 658 610 L658 90 Q658 60 634 40 L610 20 Q586 0 562 0 L196 0 Q172 0 148 20 L124 40 Q100 60 100 90 L100 610 Q100 640 124 660 L148 680 Q172 700 196 700 Z M574 111 L574 589 Q574 604 572.5 608.5 Q571 613 562 620 Q553 627 548 628.5 Q543 630 525 630 L233 630 Q215 630 210 628.5 Q205 627 196 620 Q187 613 185.5 608.5 Q184 604 184 589 L184 111 Q184 96 185.5 91.5 Q187 87 196 80 Q205 73 210 71.5 Q215 70 233 70 L525 70 Q543 70 548 71.5 Q553 73 562 80 Q571 87 572.5 91.5 Q574 96 574 111 Z M320 841 Q324 843 331 845 Q338 847 344 847 Q354 847 368 841.5 Q382 836 396.5 830 Q411 824 423.5 818.5 Q436 813 444 813 Q449 813 457 816 L519 848 L546 797 L467 757 Q463 755 456 753 Q449 751 443 751 Q431 751 417.5 756.5 Q404 762 390.5 768.5 Q377 775 365 780.5 Q353 786 344 786 Q337 786 333 785 Q329 784 315 776 L268 751 L241 802 L320 841 Z " />
<glyph glyph-name="Odieresis" unicode="&#xd6;" horiz-adv-x="788" d="M196 700 L562 700 Q586 700 610 680 L634 660 Q658 640 658 610 L658 90 Q658 60 634 40 L610 20 Q586 0 562 0 L196 0 Q172 0 148 20 L124 40 Q100 60 100 90 L100 610 Q100 640 124 660 L148 680 Q172 700 196 700 Z M574 111 L574 589 Q574 604 572.5 608.5 Q571 613 562 620 Q553 627 548 628.5 Q543 630 525 630 L233 630 Q215 630 210 628.5 Q205 627 196 620 Q187 613 185.5 608.5 Q184 604 184 589 L184 111 Q184 96 185.5 91.5 Q187 87 196 80 Q205 73 210 71.5 Q215 70 233 70 L525 70 Q543 70 548 71.5 Q553 73 562 80 Q571 87 572.5 91.5 Q574 96 574 111 Z M359 798 Q359 779 358 774.5 Q357 770 350 765 Q343 758 337.5 757 Q332 756 314 756 L309 756 Q290 756 285 757.5 Q280 759 273 765 Q266 771 264.5 776 Q263 781 263 798 L263 806 Q263 823 264.5 827 Q266 831 273 839 Q279 846 284 847 Q289 848 309 848 Q332 848 338 847 Q344 846 351 839 Q357 834 358 829.5 Q359 825 359 806 L359 798 Z M525 798 Q525 779 524 774.5 Q523 770 516 765 Q509 758 503.5 757 Q498 756 480 756 L475 756 Q456 756 451 757.5 Q446 759 439 765 Q432 771 430.5 776 Q429 781 429 798 L429 806 Q429 823 430.5 827 Q432 831 439 839 Q445 846 450 847 Q455 848 475 848 Q498 848 504 847 Q510 846 517 839 Q523 834 524 829.5 Q525 825 525 806 L525 798 Z " />
<glyph glyph-name="multiply" unicode="&#xd7;" horiz-adv-x="538" d="M145 155 L99 201 L223 325 L98 450 L144 496 L269 371 L394 496 L440 450 L315 325 L439 201 L393 155 L269 279 L145 155 Z " />
<glyph glyph-name="Oslash" unicode="&#xd8;" horiz-adv-x="764" d="M196 700 L562 700 Q571 700 575 699 L611 750 L675 750 L620 671 L634 660 Q658 640 658 610 L658 90 Q658 60 634 40 L610 20 Q586 0 562 0 L196 0 Q188 0 184 1 L149 -50 L89 -50 L141 25 L124 40 Q100 60 100 90 L100 610 Q100 640 124 660 L148 680 Q172 700 196 700 Z M528 630 L233 630 Q215 630 210 628.5 Q205 627 196 620 Q187 613 185.5 608.5 Q184 604 184 589 L184 111 Q184 94 186 90 L528 630 Z M574 111 L574 589 Q574 600 573 604 L232 70 L525 70 Q543 70 548 71.5 Q553 73 562 80 Q571 87 572.5 91.5 Q574 96 574 111 Z " />
<glyph glyph-name="Ugrave" unicode="&#xd9;" horiz-adv-x="732" d="M548 700 L632 700 L632 90 Q632 60 608 40 L584 20 Q560 0 536 0 L196 0 Q172 0 148 20 L124 40 Q100 60 100 90 L100 700 L184 700 L184 111 Q184 96 185.5 91.5 Q187 87 196 80 Q205 73 210 71.5 Q215 70 233 70 L499 70 Q517 70 522 71.5 Q527 73 536 80 Q545 87 546.5 91.5 Q548 96 548 111 L548 700 Z M245 804 L278 870 L440 773 L421 733 L245 804 Z " />
<glyph glyph-name="Uacute" unicode="&#xda;" horiz-adv-x="732" d="M548 700 L632 700 L632 90 Q632 60 608 40 L584 20 Q560 0 536 0 L196 0 Q172 0 148 20 L124 40 Q100 60 100 90 L100 700 L184 700 L184 111 Q184 96 185.5 91.5 Q187 87 196 80 Q205 73 210 71.5 Q215 70 233 70 L499 70 Q517 70 522 71.5 Q527 73 536 80 Q545 87 546.5 91.5 Q548 96 548 111 L548 700 Z M314 733 L295 773 L457 870 L490 804 L314 733 Z " />
<glyph glyph-name="Ucircumflex" unicode="&#xdb;" horiz-adv-x="732" d="M548 700 L632 700 L632 90 Q632 60 608 40 L584 20 Q560 0 536 0 L196 0 Q172 0 148 20 L124 40 Q100 60 100 90 L100 700 L184 700 L184 111 Q184 96 185.5 91.5 Q187 87 196 80 Q205 73 210 71.5 Q215 70 233 70 L499 70 Q517 70 522 71.5 Q527 73 536 80 Q545 87 546.5 91.5 Q548 96 548 111 L548 700 Z M363 810 L261 748 L235 782 L338 870 L391 870 L494 782 L468 748 L367 810 L363 810 Z " />
<glyph glyph-name="Udieresis" unicode="&#xdc;" horiz-adv-x="732" d="M548 700 L632 700 L632 90 Q632 60 608 40 L584 20 Q560 0 536 0 L196 0 Q172 0 148 20 L124 40 Q100 60 100 90 L100 700 L184 700 L184 111 Q184 96 185.5 91.5 Q187 87 196 80 Q205 73 210 71.5 Q215 70 233 70 L499 70 Q517 70 522 71.5 Q527 73 536 80 Q545 87 546.5 91.5 Q548 96 548 111 L548 700 Z M339 798 Q339 779 338 774.5 Q337 770 330 765 Q323 758 317.5 757 Q312 756 294 756 L289 756 Q270 756 265 757.5 Q260 759 253 765 Q246 771 244.5 776 Q243 781 243 798 L243 806 Q243 823 244.5 827 Q246 831 253 839 Q259 846 264 847 Q269 848 289 848 Q312 848 318 847 Q324 846 331 839 Q337 834 338 829.5 Q339 825 339 806 L339 798 Z M505 798 Q505 779 504 774.5 Q503 770 496 765 Q489 758 483.5 757 Q478 756 460 756 L455 756 Q436 756 431 757.5 Q426 759 419 765 Q412 771 410.5 776 Q409 781 409 798 L409 806 Q409 823 410.5 827 Q412 831 419 839 Q425 846 430 847 Q435 848 455 848 Q478 848 484 847 Q490 846 497 839 Q503 834 504 829.5 Q505 825 505 806 L505 798 Z " />
<glyph glyph-name="Yacute" unicode="&#xdd;" horiz-adv-x="546" d="M288 394 L449 700 L545 700 L315 292 L315 0 L231 0 L231 292 L1 700 L97 700 L258 394 Q270 373 271 363 L275 363 Q276 369 288 394 Z M221 724 L202 764 L364 861 L397 795 L221 724 Z " />
<glyph glyph-name="Thorn" unicode="&#xde;" horiz-adv-x="641" d="M100 0 L100 700 L184 700 L184 590 L470 590 Q494 590 518 570 L542 550 Q566 530 566 500 L566 260 Q566 230 542 210 L518 190 Q494 170 470 170 L184 170 L184 0 L100 0 Z M184 520 L184 240 L433 240 Q451 240 456 241.5 Q461 243 470 250 Q479 257 480.5 261.5 Q482 266 482 281 L482 479 Q482 494 480.5 498.5 Q479 503 470 510 Q461 517 456 518.5 Q451 520 433 520 L184 520 Z " />
<glyph glyph-name="germandbls" unicode="&#xdf;" horiz-adv-x="558" d="M451 350 L474 330 Q498 310 498 280 L498 90 Q498 60 478 40 L458 20 Q440 0 414 0 L198 0 L198 70 L365 70 Q383 70 388 71.5 Q393 73 402 80 Q411 87 412.5 91.5 Q414 96 414 111 L414 269 Q414 293 392 311 Q373 328 348 328 L198 328 L198 392 L335 392 Q358 392 379 408 Q394 420 398 427 Q402 434 402 451 L402 589 Q402 604 400.5 608.5 Q399 613 390 620 Q381 627 376 628.5 Q371 630 353 630 L193 630 Q175 630 170 628.5 Q165 627 156 620 Q147 613 145.5 608.5 Q144 604 144 589 L144 -260 L60 -260 L60 610 Q60 640 84 660 L108 680 Q132 700 156 700 L390 700 Q414 700 438 680 L462 660 Q486 640 486 610 L486 440 Q486 410 462 390 L451 381 Q435 368 423 368 L423 363 Q435 363 451 350 Z " />
<glyph glyph-name="agrave" unicode="&#xe0;" horiz-adv-x="566" d="M412 40 L408 40 Q408 28 386 15 Q368 4 361.5 2 Q355 0 337 0 L166 0 Q142 0 118 20 L94 40 Q70 60 70 90 L70 210 Q70 240 94 260 L118 280 Q142 300 166 300 L345 300 Q364 300 369 298.5 Q374 297 382 290 Q394 280 394 270 L398 270 L398 389 Q398 404 396.5 408.5 Q395 413 386 420 Q377 427 372 428.5 Q367 430 349 430 L187 430 Q169 430 162.5 427.5 Q156 425 138 410 L78 460 L102 480 Q120 495 126.5 497.5 Q133 500 151 500 L386 500 Q410 500 434 480 L458 460 Q482 440 482 410 L482 111 Q482 96 483.5 91.5 Q485 87 494 80 Q503 73 504.5 68.5 Q506 64 506 49 L506 0 L471 0 Q453 0 446.5 2.5 Q440 5 428 15 Q412 28 412 40 Z M154 189 L154 111 Q154 96 155.5 91.5 Q157 87 166 80 Q175 73 180 71.5 Q185 70 203 70 L325 70 Q343 70 349.5 72 Q356 74 374 85 Q392 96 395 101 Q398 106 398 121 L398 189 Q398 204 396.5 208.5 Q395 213 386 220 Q377 227 372 228.5 Q367 230 349 230 L203 230 Q185 230 180 228.5 Q175 227 166 220 Q157 213 155.5 208.5 Q154 204 154 189 Z M317 550 L163 646 L206 709 L343 590 L317 550 Z " />
<glyph glyph-name="aacute" unicode="&#xe1;" horiz-adv-x="566" d="M412 40 L408 40 Q408 28 386 15 Q368 4 361.5 2 Q355 0 337 0 L166 0 Q142 0 118 20 L94 40 Q70 60 70 90 L70 210 Q70 240 94 260 L118 280 Q142 300 166 300 L345 300 Q364 300 369 298.5 Q374 297 382 290 Q394 280 394 270 L398 270 L398 389 Q398 404 396.5 408.5 Q395 413 386 420 Q377 427 372 428.5 Q367 430 349 430 L187 430 Q169 430 162.5 427.5 Q156 425 138 410 L78 460 L102 480 Q120 495 126.5 497.5 Q133 500 151 500 L386 500 Q410 500 434 480 L458 460 Q482 440 482 410 L482 111 Q482 96 483.5 91.5 Q485 87 494 80 Q503 73 504.5 68.5 Q506 64 506 49 L506 0 L471 0 Q453 0 446.5 2.5 Q440 5 428 15 Q412 28 412 40 Z M154 189 L154 111 Q154 96 155.5 91.5 Q157 87 166 80 Q175 73 180 71.5 Q185 70 203 70 L325 70 Q343 70 349.5 72 Q356 74 374 85 Q392 96 395 101 Q398 106 398 121 L398 189 Q398 204 396.5 208.5 Q395 213 386 220 Q377 227 372 228.5 Q367 230 349 230 L203 230 Q185 230 180 228.5 Q175 227 166 220 Q157 213 155.5 208.5 Q154 204 154 189 Z M393 646 L239 550 L213 590 L350 709 L393 646 Z " />
<glyph glyph-name="acircumflex" unicode="&#xe2;" horiz-adv-x="566" d="M412 40 L408 40 Q408 28 386 15 Q368 4 361.5 2 Q355 0 337 0 L166 0 Q142 0 118 20 L94 40 Q70 60 70 90 L70 210 Q70 240 94 260 L118 280 Q142 300 166 300 L345 300 Q364 300 369 298.5 Q374 297 382 290 Q394 280 394 270 L398 270 L398 389 Q398 404 396.5 408.5 Q395 413 386 420 Q377 427 372 428.5 Q367 430 349 430 L187 430 Q169 430 162.5 427.5 Q156 425 138 410 L78 460 L102 480 Q120 495 126.5 497.5 Q133 500 151 500 L386 500 Q410 500 434 480 L458 460 Q482 440 482 410 L482 111 Q482 96 483.5 91.5 Q485 87 494 80 Q503 73 504.5 68.5 Q506 64 506 49 L506 0 L471 0 Q453 0 446.5 2.5 Q440 5 428 15 Q412 28 412 40 Z M154 189 L154 111 Q154 96 155.5 91.5 Q157 87 166 80 Q175 73 180 71.5 Q185 70 203 70 L325 70 Q343 70 349.5 72 Q356 74 374 85 Q392 96 395 101 Q398 106 398 121 L398 189 Q398 204 396.5 208.5 Q395 213 386 220 Q377 227 372 228.5 Q367 230 349 230 L203 230 Q185 230 180 228.5 Q175 227 166 220 Q157 213 155.5 208.5 Q154 204 154 189 Z M347 567 L289 637 Q284 643 284 649 L280 649 Q280 643 275 637 L217 567 L158 586 L255 700 L308 700 L407 586 L347 567 Z " />
<glyph glyph-name="atilde" unicode="&#xe3;" horiz-adv-x="566" d="M412 40 L408 40 Q408 28 386 15 Q368 4 361.5 2 Q355 0 337 0 L166 0 Q142 0 118 20 L94 40 Q70 60 70 90 L70 210 Q70 240 94 260 L118 280 Q142 300 166 300 L345 300 Q364 300 369 298.5 Q374 297 382 290 Q394 280 394 270 L398 270 L398 389 Q398 404 396.5 408.5 Q395 413 386 420 Q377 427 372 428.5 Q367 430 349 430 L187 430 Q169 430 162.5 427.5 Q156 425 138 410 L78 460 L102 480 Q120 495 126.5 497.5 Q133 500 151 500 L386 500 Q410 500 434 480 L458 460 Q482 440 482 410 L482 111 Q482 96 483.5 91.5 Q485 87 494 80 Q503 73 504.5 68.5 Q506 64 506 49 L506 0 L471 0 Q453 0 446.5 2.5 Q440 5 428 15 Q412 28 412 40 Z M154 189 L154 111 Q154 96 155.5 91.5 Q157 87 166 80 Q175 73 180 71.5 Q185 70 203 70 L325 70 Q343 70 349.5 72 Q356 74 374 85 Q392 96 395 101 Q398 106 398 121 L398 189 Q398 204 396.5 208.5 Q395 213 386 220 Q377 227 372 228.5 Q367 230 349 230 L203 230 Q185 230 180 228.5 Q175 227 166 220 Q157 213 155.5 208.5 Q154 204 154 189 Z M130 612 L209 651 Q219 657 233 657 Q240 657 256 651.5 Q272 646 287 640 Q302 634 314.5 628.5 Q327 623 333 623 Q338 623 346 626 L408 658 L435 607 L356 567 Q345 561 332 561 Q320 561 307 566.5 Q294 572 280 578.5 Q266 585 253.5 590.5 Q241 596 233 596 Q223 596 204 586 L157 561 L130 612 Z " />
<glyph glyph-name="adieresis" unicode="&#xe4;" horiz-adv-x="566" d="M412 40 L408 40 Q408 28 386 15 Q368 4 361.5 2 Q355 0 337 0 L166 0 Q142 0 118 20 L94 40 Q70 60 70 90 L70 210 Q70 240 94 260 L118 280 Q142 300 166 300 L345 300 Q364 300 369 298.5 Q374 297 382 290 Q394 280 394 270 L398 270 L398 389 Q398 404 396.5 408.5 Q395 413 386 420 Q377 427 372 428.5 Q367 430 349 430 L187 430 Q169 430 162.5 427.5 Q156 425 138 410 L78 460 L102 480 Q120 495 126.5 497.5 Q133 500 151 500 L386 500 Q410 500 434 480 L458 460 Q482 440 482 410 L482 111 Q482 96 483.5 91.5 Q485 87 494 80 Q503 73 504.5 68.5 Q506 64 506 49 L506 0 L471 0 Q453 0 446.5 2.5 Q440 5 428 15 Q412 28 412 40 Z M154 189 L154 111 Q154 96 155.5 91.5 Q157 87 166 80 Q175 73 180 71.5 Q185 70 203 70 L325 70 Q343 70 349.5 72 Q356 74 374 85 Q392 96 395 101 Q398 106 398 121 L398 189 Q398 204 396.5 208.5 Q395 213 386 220 Q377 227 372 228.5 Q367 230 349 230 L203 230 Q185 230 180 228.5 Q175 227 166 220 Q157 213 155.5 208.5 Q154 204 154 189 Z M251 636 L251 628 Q251 609 250 604.5 Q249 600 242 595 Q233 586 206 586 L201 586 Q175 586 165 595 Q155 604 155 628 L155 636 Q155 658 165 669 Q171 676 176 677 Q181 678 201 678 Q224 678 230 677 Q236 676 243 669 Q249 664 250 659.5 Q251 655 251 636 Z M411 636 L411 628 Q411 609 410 604.5 Q409 600 402 595 Q393 586 366 586 L361 586 Q335 586 325 595 Q315 604 315 628 L315 636 Q315 658 325 669 Q331 676 336 677 Q341 678 361 678 Q384 678 390 677 Q396 676 403 669 Q409 664 410 659.5 Q411 655 411 636 Z " />
<glyph glyph-name="aring" unicode="&#xe5;" horiz-adv-x="566" d="M412 40 L408 40 Q408 28 386 15 Q368 4 361.5 2 Q355 0 337 0 L166 0 Q142 0 118 20 L94 40 Q70 60 70 90 L70 210 Q70 240 94 260 L118 280 Q142 300 166 300 L345 300 Q364 300 369 298.5 Q374 297 382 290 Q394 280 394 270 L398 270 L398 389 Q398 404 396.5 408.5 Q395 413 386 420 Q377 427 372 428.5 Q367 430 349 430 L187 430 Q169 430 162.5 427.5 Q156 425 138 410 L78 460 L102 480 Q120 495 126.5 497.5 Q133 500 151 500 L386 500 Q410 500 434 480 L458 460 Q482 440 482 410 L482 111 Q482 96 483.5 91.5 Q485 87 494 80 Q503 73 504.5 68.5 Q506 64 506 49 L506 0 L471 0 Q453 0 446.5 2.5 Q440 5 428 15 Q412 28 412 40 Z M154 189 L154 111 Q154 96 155.5 91.5 Q157 87 166 80 Q175 73 180 71.5 Q185 70 203 70 L325 70 Q343 70 349.5 72 Q356 74 374 85 Q392 96 395 101 Q398 106 398 121 L398 189 Q398 204 396.5 208.5 Q395 213 386 220 Q377 227 372 228.5 Q367 230 349 230 L203 230 Q185 230 180 228.5 Q175 227 166 220 Q157 213 155.5 208.5 Q154 204 154 189 Z M252 711 L314 711 Q342 711 348.5 709.5 Q355 708 363 700 Q373 690 375 684 Q377 678 377 655 L377 606 Q377 582 375 576.5 Q373 571 363 561 Q355 553 348.5 551.5 Q342 550 314 550 L252 550 Q224 550 217.5 551.5 Q211 553 203 561 Q193 571 191 576.5 Q189 582 189 606 L189 655 Q189 678 191 684 Q193 690 203 700 Q211 708 217.5 709.5 Q224 711 252 711 Z M259 593 L307 593 Q320 593 328 599 Q334 604 334 620 L334 641 Q334 657 328 662 Q320 668 307 668 L259 668 Q246 668 238 662 Q232 657 232 641 L232 620 Q232 604 238 599 Q246 593 259 593 Z " />
<glyph glyph-name="ae" unicode="&#xe6;" horiz-adv-x="884" d="M151 500 L386 500 Q416 500 434 478 L438 473 L442 473 L446 478 Q464 500 494 500 L727 500 Q747 500 775 480 L800 460 Q824 442 824 410 L824 205 L482 205 L482 111 Q482 96 483.5 91.5 Q485 87 494 80 Q503 73 508 71.5 Q513 70 531 70 L725 70 Q743 70 749.5 72.5 Q756 75 774 90 L834 40 L810 20 Q792 5 785.5 2.5 Q779 0 761 0 L494 0 Q470 0 446 20 L422 41 L418 41 Q398 23 386 15 Q369 4 362.5 2 Q356 0 337 0 L166 0 Q142 0 118 20 L94 40 Q70 60 70 90 L70 210 Q70 240 94 260 L118 280 Q142 300 166 300 L345 300 Q364 300 369 298.5 Q374 297 382 290 Q393 279 394 275 L398 275 L398 389 Q398 404 396.5 408.5 Q395 413 386 420 Q377 427 372 428.5 Q367 430 349 430 L187 430 Q169 430 162.5 427.5 Q156 425 138 410 L78 460 L102 480 Q120 495 126.5 497.5 Q133 500 151 500 Z M740 270 L740 389 Q740 404 738.5 408.5 Q737 413 728 420 Q719 427 714 428.5 Q709 430 691 430 L531 430 Q513 430 508 428.5 Q503 427 494 420 Q485 413 483.5 408.5 Q482 404 482 389 L482 270 L740 270 Z M154 189 L154 111 Q154 96 155.5 91.5 Q157 87 166 80 Q175 73 180 71.5 Q185 70 203 70 L325 70 Q343 70 349.5 72 Q356 74 374 85 Q397 99 398 111 L398 189 Q398 204 396.5 208.5 Q395 213 386 220 Q377 227 372 228.5 Q367 230 349 230 L203 230 Q185 230 180 228.5 Q175 227 166 220 Q157 213 155.5 208.5 Q154 204 154 189 Z " />
<glyph glyph-name="ccedilla" unicode="&#xe7;" horiz-adv-x="515" d="M364 0 L275 0 L275 -59 Q301 -40 311 -40 L343 -40 Q355 -40 367 -50 L379 -60 Q391 -70 391 -85 L391 -175 Q391 -190 379 -200 L367 -210 Q355 -220 343 -220 L232 -220 Q220 -220 208 -210 L196 -200 Q184 -190 184 -175 L184 -143 L233 -143 L233 -152 Q233 -163 239 -168 Q245 -173 258 -173 L316 -173 Q330 -173 336 -168 Q342 -163 342 -152 L342 -108 Q342 -97 336 -92 Q330 -87 317 -87 L296 -87 Q290 -87 285 -90 L275 -97 L226 -97 L226 0 L156 0 Q132 0 108 20 L84 40 Q60 60 60 90 L60 410 Q60 440 84 460 L108 480 Q132 500 156 500 L364 500 Q388 500 412 480 L436 460 Q460 440 460 410 L460 370 L376 370 L376 389 Q376 404 374.5 408.5 Q373 413 364 420 Q355 427 350 428.5 Q345 430 327 430 L193 430 Q175 430 170 428.5 Q165 427 156 420 Q147 413 145.5 408.5 Q144 404 144 389 L144 111 Q144 96 145.5 91.5 Q147 87 156 80 Q165 73 170 71.5 Q175 70 193 70 L327 70 Q345 70 350 71.5 Q355 73 364 80 Q373 87 374.5 91.5 Q376 96 376 111 L376 130 L460 130 L460 90 Q460 60 436 40 L412 20 Q388 0 364 0 Z " />
<glyph glyph-name="egrave" unicode="&#xe8;" horiz-adv-x="546" d="M436 90 L496 40 L472 20 Q454 5 447.5 2.5 Q441 0 423 0 L156 0 Q132 0 108 20 L84 40 Q60 60 60 90 L60 410 Q60 440 84 460 L108 480 Q132 500 156 500 L389 500 Q409 500 437 480 L462 460 Q486 442 486 410 L486 205 L144 205 L144 111 Q144 96 145.5 91.5 Q147 87 156 80 Q165 73 170 71.5 Q175 70 193 70 L387 70 Q405 70 411.5 72.5 Q418 75 436 90 Z M402 270 L402 389 Q402 404 400.5 408.5 Q399 413 390 420 Q381 427 376 428.5 Q371 430 353 430 L193 430 Q175 430 170 428.5 Q165 427 156 420 Q147 413 145.5 408.5 Q144 404 144 389 L144 270 L402 270 Z M317 550 L163 646 L206 709 L343 590 L317 550 Z " />
<glyph glyph-name="eacute" unicode="&#xe9;" horiz-adv-x="546" d="M436 90 L496 40 L472 20 Q454 5 447.5 2.5 Q441 0 423 0 L156 0 Q132 0 108 20 L84 40 Q60 60 60 90 L60 410 Q60 440 84 460 L108 480 Q132 500 156 500 L389 500 Q409 500 437 480 L462 460 Q486 442 486 410 L486 205 L144 205 L144 111 Q144 96 145.5 91.5 Q147 87 156 80 Q165 73 170 71.5 Q175 70 193 70 L387 70 Q405 70 411.5 72.5 Q418 75 436 90 Z M402 270 L402 389 Q402 404 400.5 408.5 Q399 413 390 420 Q381 427 376 428.5 Q371 430 353 430 L193 430 Q175 430 170 428.5 Q165 427 156 420 Q147 413 145.5 408.5 Q144 404 144 389 L144 270 L402 270 Z M393 646 L239 550 L213 590 L350 709 L393 646 Z " />
<glyph glyph-name="ecircumflex" unicode="&#xea;" horiz-adv-x="546" d="M436 90 L496 40 L472 20 Q454 5 447.5 2.5 Q441 0 423 0 L156 0 Q132 0 108 20 L84 40 Q60 60 60 90 L60 410 Q60 440 84 460 L108 480 Q132 500 156 500 L389 500 Q409 500 437 480 L462 460 Q486 442 486 410 L486 205 L144 205 L144 111 Q144 96 145.5 91.5 Q147 87 156 80 Q165 73 170 71.5 Q175 70 193 70 L387 70 Q405 70 411.5 72.5 Q418 75 436 90 Z M402 270 L402 389 Q402 404 400.5 408.5 Q399 413 390 420 Q381 427 376 428.5 Q371 430 353 430 L193 430 Q175 430 170 428.5 Q165 427 156 420 Q147 413 145.5 408.5 Q144 404 144 389 L144 270 L402 270 Z M337 567 L279 637 Q274 643 274 649 L270 649 Q270 643 265 637 L207 567 L148 586 L245 700 L298 700 L397 586 L337 567 Z " />
<glyph glyph-name="edieresis" unicode="&#xeb;" horiz-adv-x="546" d="M436 90 L496 40 L472 20 Q454 5 447.5 2.5 Q441 0 423 0 L156 0 Q132 0 108 20 L84 40 Q60 60 60 90 L60 410 Q60 440 84 460 L108 480 Q132 500 156 500 L389 500 Q409 500 437 480 L462 460 Q486 442 486 410 L486 205 L144 205 L144 111 Q144 96 145.5 91.5 Q147 87 156 80 Q165 73 170 71.5 Q175 70 193 70 L387 70 Q405 70 411.5 72.5 Q418 75 436 90 Z M402 270 L402 389 Q402 404 400.5 408.5 Q399 413 390 420 Q381 427 376 428.5 Q371 430 353 430 L193 430 Q175 430 170 428.5 Q165 427 156 420 Q147 413 145.5 408.5 Q144 404 144 389 L144 270 L402 270 Z M241 636 L241 628 Q241 609 240 604.5 Q239 600 232 595 Q223 586 196 586 L191 586 Q165 586 155 595 Q145 604 145 628 L145 636 Q145 658 155 669 Q161 676 166 677 Q171 678 191 678 Q214 678 220 677 Q226 676 233 669 Q239 664 240 659.5 Q241 655 241 636 Z M401 636 L401 628 Q401 609 400 604.5 Q399 600 392 595 Q383 586 356 586 L351 586 Q325 586 315 595 Q305 604 305 628 L305 636 Q305 658 315 669 Q321 676 326 677 Q331 678 351 678 Q374 678 380 677 Q386 676 393 669 Q399 664 400 659.5 Q401 655 401 636 Z " />
<glyph glyph-name="igrave" unicode="&#xec;" horiz-adv-x="204" d="M144 0 L60 0 L60 500 L144 500 L144 0 Z M127 550 L-27 646 L16 709 L153 590 L127 550 Z " />
<glyph glyph-name="iacute" unicode="&#xed;" horiz-adv-x="204" d="M144 0 L60 0 L60 500 L144 500 L144 0 Z M233 646 L79 550 L53 590 L190 709 L233 646 Z " />
<glyph glyph-name="icircumflex" unicode="&#xee;" horiz-adv-x="204" d="M144 0 L60 0 L60 500 L144 500 L144 0 Z M168 567 L110 637 Q105 643 105 649 L101 649 Q101 643 96 637 L38 567 L-21 586 L76 700 L129 700 L228 586 L168 567 Z " />
<glyph glyph-name="idieresis" unicode="&#xef;" horiz-adv-x="204" d="M144 0 L60 0 L60 500 L144 500 L144 0 Z M71 636 L71 628 Q71 609 70 604.5 Q69 600 62 595 Q53 586 26 586 L21 586 Q-5 586 -15 595 Q-25 604 -25 628 L-25 636 Q-25 658 -15 669 Q-9 676 -4 677 Q1 678 21 678 Q44 678 50 677 Q56 676 63 669 Q69 664 70 659.5 Q71 655 71 636 Z M231 636 L231 628 Q231 609 230 604.5 Q229 600 222 595 Q213 586 186 586 L181 586 Q155 586 145 595 Q135 604 135 628 L135 636 Q135 658 145 669 Q151 676 156 677 Q161 678 181 678 Q204 678 210 677 Q216 676 223 669 Q229 664 230 659.5 Q231 655 231 636 Z " />
<glyph glyph-name="eth" unicode="&#xf0;" horiz-adv-x="552" d="M174 707 L223 760 L295 698 L358 767 L406 723 L345 656 L470 551 Q491 530 491 510 L491 80 Q491 60 467 40 L443 20 Q419 0 395 0 L155 0 Q131 0 107 20 L83 40 Q59 60 59 80 L59 420 Q59 440 83 460 L107 480 Q131 500 155 500 L343 500 Q350 500 357 497 Q364 494 372.5 488 Q381 482 386.5 477 Q392 472 401.5 463 Q411 454 415 450 L419 450 L419 479 Q419 495 415 502.5 Q411 510 397 522 L297 605 L243 546 L195 590 L247 646 L174 707 Z M143 389 L143 111 Q143 96 144.5 91.5 Q146 87 155 80 Q164 73 169 71.5 Q174 70 192 70 L358 70 Q376 70 381 71.5 Q386 73 395 80 Q404 87 405.5 91.5 Q407 96 407 111 L407 379 Q407 394 404 399 Q401 404 383 415 Q365 426 358.5 428 Q352 430 333 430 L192 430 Q174 430 169 428.5 Q164 427 155 420 Q146 413 144.5 408.5 Q143 404 143 389 Z " />
<glyph glyph-name="ntilde" unicode="&#xf1;" horiz-adv-x="562" d="M60 500 L95 500 Q113 500 119.5 497.5 Q126 495 138 485 Q154 472 154 460 L158 460 Q158 472 180 485 Q198 496 204.5 498 Q211 500 229 500 L406 500 Q430 500 454 480 L478 460 Q502 440 502 410 L502 0 L418 0 L418 389 Q418 404 416.5 408.5 Q415 413 406 420 Q397 427 392 428.5 Q387 430 369 430 L241 430 Q223 430 216.5 428 Q210 426 192 415 Q174 404 171 399 Q168 394 168 379 L168 0 L84 0 L84 389 Q84 404 82.5 408.5 Q81 413 72 420 Q63 427 61.5 431.5 Q60 436 60 451 L60 500 Z M128 612 L207 651 Q217 657 231 657 Q238 657 254 651.5 Q270 646 285 640 Q300 634 312.5 628.5 Q325 623 331 623 Q336 623 344 626 L406 658 L433 607 L354 567 Q343 561 330 561 Q318 561 305 566.5 Q292 572 278 578.5 Q264 585 251.5 590.5 Q239 596 231 596 Q221 596 202 586 L155 561 L128 612 Z " />
<glyph glyph-name="ograve" unicode="&#xf2;" horiz-adv-x="554" d="M157 500 L397 500 Q421 500 445 480 L469 460 Q493 440 493 410 L493 90 Q493 60 469 40 L445 20 Q421 0 397 0 L157 0 Q133 0 109 20 L85 40 Q61 60 61 90 L61 410 Q61 440 85 460 L109 480 Q133 500 157 500 Z M409 111 L409 389 Q409 404 407.5 408.5 Q406 413 397 420 Q388 427 383 428.5 Q378 430 360 430 L194 430 Q176 430 171 428.5 Q166 427 157 420 Q148 413 146.5 408.5 Q145 404 145 389 L145 111 Q145 96 146.5 91.5 Q148 87 157 80 Q166 73 171 71.5 Q176 70 194 70 L360 70 Q378 70 383 71.5 Q388 73 397 80 Q406 87 407.5 91.5 Q409 96 409 111 Z M311 550 L157 646 L200 709 L337 590 L311 550 Z " />
<glyph glyph-name="oacute" unicode="&#xf3;" horiz-adv-x="554" d="M157 500 L397 500 Q421 500 445 480 L469 460 Q493 440 493 410 L493 90 Q493 60 469 40 L445 20 Q421 0 397 0 L157 0 Q133 0 109 20 L85 40 Q61 60 61 90 L61 410 Q61 440 85 460 L109 480 Q133 500 157 500 Z M409 111 L409 389 Q409 404 407.5 408.5 Q406 413 397 420 Q388 427 383 428.5 Q378 430 360 430 L194 430 Q176 430 171 428.5 Q166 427 157 420 Q148 413 146.5 408.5 Q145 404 145 389 L145 111 Q145 96 146.5 91.5 Q148 87 157 80 Q166 73 171 71.5 Q176 70 194 70 L360 70 Q378 70 383 71.5 Q388 73 397 80 Q406 87 407.5 91.5 Q409 96 409 111 Z M397 646 L243 550 L217 590 L354 709 L397 646 Z " />
<glyph glyph-name="ocircumflex" unicode="&#xf4;" horiz-adv-x="554" d="M157 500 L397 500 Q421 500 445 480 L469 460 Q493 440 493 410 L493 90 Q493 60 469 40 L445 20 Q421 0 397 0 L157 0 Q133 0 109 20 L85 40 Q61 60 61 90 L61 410 Q61 440 85 460 L109 480 Q133 500 157 500 Z M409 111 L409 389 Q409 404 407.5 408.5 Q406 413 397 420 Q388 427 383 428.5 Q378 430 360 430 L194 430 Q176 430 171 428.5 Q166 427 157 420 Q148 413 146.5 408.5 Q145 404 145 389 L145 111 Q145 96 146.5 91.5 Q148 87 157 80 Q166 73 171 71.5 Q176 70 194 70 L360 70 Q378 70 383 71.5 Q388 73 397 80 Q406 87 407.5 91.5 Q409 96 409 111 Z M341 567 L283 637 Q278 643 278 649 L274 649 Q274 643 269 637 L211 567 L152 586 L249 700 L302 700 L401 586 L341 567 Z " />
<glyph glyph-name="otilde" unicode="&#xf5;" horiz-adv-x="554" d="M157 500 L397 500 Q421 500 445 480 L469 460 Q493 440 493 410 L493 90 Q493 60 469 40 L445 20 Q421 0 397 0 L157 0 Q133 0 109 20 L85 40 Q61 60 61 90 L61 410 Q61 440 85 460 L109 480 Q133 500 157 500 Z M409 111 L409 389 Q409 404 407.5 408.5 Q406 413 397 420 Q388 427 383 428.5 Q378 430 360 430 L194 430 Q176 430 171 428.5 Q166 427 157 420 Q148 413 146.5 408.5 Q145 404 145 389 L145 111 Q145 96 146.5 91.5 Q148 87 157 80 Q166 73 171 71.5 Q176 70 194 70 L360 70 Q378 70 383 71.5 Q388 73 397 80 Q406 87 407.5 91.5 Q409 96 409 111 Z M124 612 L203 651 Q213 657 227 657 Q234 657 250 651.5 Q266 646 281 640 Q296 634 308.5 628.5 Q321 623 327 623 Q332 623 340 626 L402 658 L429 607 L350 567 Q339 561 326 561 Q314 561 301 566.5 Q288 572 274 578.5 Q260 585 247.5 590.5 Q235 596 227 596 Q217 596 198 586 L151 561 L124 612 Z " />
<glyph glyph-name="odieresis" unicode="&#xf6;" horiz-adv-x="554" d="M157 500 L397 500 Q421 500 445 480 L469 460 Q493 440 493 410 L493 90 Q493 60 469 40 L445 20 Q421 0 397 0 L157 0 Q133 0 109 20 L85 40 Q61 60 61 90 L61 410 Q61 440 85 460 L109 480 Q133 500 157 500 Z M409 111 L409 389 Q409 404 407.5 408.5 Q406 413 397 420 Q388 427 383 428.5 Q378 430 360 430 L194 430 Q176 430 171 428.5 Q166 427 157 420 Q148 413 146.5 408.5 Q145 404 145 389 L145 111 Q145 96 146.5 91.5 Q148 87 157 80 Q166 73 171 71.5 Q176 70 194 70 L360 70 Q378 70 383 71.5 Q388 73 397 80 Q406 87 407.5 91.5 Q409 96 409 111 Z M245 636 L245 628 Q245 609 244 604.5 Q243 600 236 595 Q227 586 200 586 L195 586 Q169 586 159 595 Q149 604 149 628 L149 636 Q149 658 159 669 Q165 676 170 677 Q175 678 195 678 Q218 678 224 677 Q230 676 237 669 Q243 664 244 659.5 Q245 655 245 636 Z M405 636 L405 628 Q405 609 404 604.5 Q403 600 396 595 Q387 586 360 586 L355 586 Q329 586 319 595 Q309 604 309 628 L309 636 Q309 658 319 669 Q325 676 330 677 Q335 678 355 678 Q378 678 384 677 Q390 676 397 669 Q403 664 404 659.5 Q405 655 405 636 Z " />
<glyph glyph-name="divide" unicode="&#xf7;" horiz-adv-x="538" d="M311 192 L311 152 Q311 136 303.5 129 Q296 122 269 122 Q240 122 233.5 129 Q227 136 227 147 L227 191 Q227 202 234 209.5 Q241 217 269 217 Q297 217 304 210 Q311 203 311 192 Z M311 502 L311 462 Q311 446 303.5 439 Q296 432 269 432 Q240 432 233.5 439 Q227 446 227 457 L227 501 Q227 512 234 519.5 Q241 527 269 527 Q297 527 304 520 Q311 513 311 502 Z M60 359 L478 359 L478 294 L60 294 L60 359 Z " />
<glyph glyph-name="oslash" unicode="&#xf8;" horiz-adv-x="554" d="M157 500 L397 500 Q410 500 419 497 L456 550 L521 550 L462 466 L469 460 Q493 440 493 410 L493 90 Q493 60 469 40 L445 20 Q421 0 397 0 L157 0 Q144 0 135 3 L98 -50 L36 -50 L94 32 L85 40 Q61 60 61 90 L61 410 Q61 440 85 460 L109 480 Q133 500 157 500 Z M372 430 L194 430 Q176 430 171 428.5 Q166 427 157 420 Q148 413 146.5 408.5 Q145 404 145 389 L145 105 L372 430 Z M409 111 L409 389 L182 70 L360 70 Q378 70 383 71.5 Q388 73 397 80 Q406 87 407.5 91.5 Q409 96 409 111 Z " />
<glyph glyph-name="ugrave" unicode="&#xf9;" horiz-adv-x="542" d="M313 0 L156 0 Q132 0 108 20 L84 40 Q60 60 60 90 L60 500 L144 500 L144 111 Q144 96 145.5 91.5 Q147 87 156 80 Q165 73 170 71.5 Q175 70 193 70 L301 70 Q319 70 325.5 72 Q332 74 350 85 Q368 96 371 101 Q374 106 374 121 L374 500 L458 500 L458 111 Q458 96 459.5 91.5 Q461 87 470 80 Q479 73 480.5 68.5 Q482 64 482 49 L482 0 L447 0 Q429 0 422.5 2.5 Q416 5 404 15 Q388 28 388 40 L384 40 Q384 28 362 15 Q344 4 337.5 2 Q331 0 313 0 Z M305 550 L151 646 L194 709 L331 590 L305 550 Z " />
<glyph glyph-name="uacute" unicode="&#xfa;" horiz-adv-x="542" d="M313 0 L156 0 Q132 0 108 20 L84 40 Q60 60 60 90 L60 500 L144 500 L144 111 Q144 96 145.5 91.5 Q147 87 156 80 Q165 73 170 71.5 Q175 70 193 70 L301 70 Q319 70 325.5 72 Q332 74 350 85 Q368 96 371 101 Q374 106 374 121 L374 500 L458 500 L458 111 Q458 96 459.5 91.5 Q461 87 470 80 Q479 73 480.5 68.5 Q482 64 482 49 L482 0 L447 0 Q429 0 422.5 2.5 Q416 5 404 15 Q388 28 388 40 L384 40 Q384 28 362 15 Q344 4 337.5 2 Q331 0 313 0 Z M381 646 L227 550 L201 590 L338 709 L381 646 Z " />
<glyph glyph-name="ucircumflex" unicode="&#xfb;" horiz-adv-x="542" d="M313 0 L156 0 Q132 0 108 20 L84 40 Q60 60 60 90 L60 500 L144 500 L144 111 Q144 96 145.5 91.5 Q147 87 156 80 Q165 73 170 71.5 Q175 70 193 70 L301 70 Q319 70 325.5 72 Q332 74 350 85 Q368 96 371 101 Q374 106 374 121 L374 500 L458 500 L458 111 Q458 96 459.5 91.5 Q461 87 470 80 Q479 73 480.5 68.5 Q482 64 482 49 L482 0 L447 0 Q429 0 422.5 2.5 Q416 5 404 15 Q388 28 388 40 L384 40 Q384 28 362 15 Q344 4 337.5 2 Q331 0 313 0 Z M335 567 L277 637 Q272 643 272 649 L268 649 Q268 643 263 637 L205 567 L146 586 L243 700 L296 700 L395 586 L335 567 Z " />
<glyph glyph-name="udieresis" unicode="&#xfc;" horiz-adv-x="542" d="M313 0 L156 0 Q132 0 108 20 L84 40 Q60 60 60 90 L60 500 L144 500 L144 111 Q144 96 145.5 91.5 Q147 87 156 80 Q165 73 170 71.5 Q175 70 193 70 L301 70 Q319 70 325.5 72 Q332 74 350 85 Q368 96 371 101 Q374 106 374 121 L374 500 L458 500 L458 111 Q458 96 459.5 91.5 Q461 87 470 80 Q479 73 480.5 68.5 Q482 64 482 49 L482 0 L447 0 Q429 0 422.5 2.5 Q416 5 404 15 Q388 28 388 40 L384 40 Q384 28 362 15 Q344 4 337.5 2 Q331 0 313 0 Z M239 636 L239 628 Q239 609 238 604.5 Q237 600 230 595 Q221 586 194 586 L189 586 Q163 586 153 595 Q143 604 143 628 L143 636 Q143 658 153 669 Q159 676 164 677 Q169 678 189 678 Q212 678 218 677 Q224 676 231 669 Q237 664 238 659.5 Q239 655 239 636 Z M399 636 L399 628 Q399 609 398 604.5 Q397 600 390 595 Q381 586 354 586 L349 586 Q323 586 313 595 Q303 604 303 628 L303 636 Q303 658 313 669 Q319 676 324 677 Q329 678 349 678 Q372 678 378 677 Q384 676 391 669 Q397 664 398 659.5 Q399 655 399 636 Z " />
<glyph glyph-name="yacute" unicode="&#xfd;" horiz-adv-x="538" d="M382 -260 L94 -260 L94 -234 Q94 -211 96.5 -205.5 Q99 -200 112 -190 L357 -190 Q375 -190 380 -188.5 Q385 -187 394 -180 Q403 -173 404.5 -168.5 Q406 -164 406 -149 L406 48 L402 48 Q400 39 378 20 Q354 0 330 0 L156 0 Q132 0 108 20 L84 40 Q60 60 60 90 L60 500 L144 500 L144 111 Q144 96 145.5 91.5 Q147 87 156 80 Q165 73 170 71.5 Q175 70 193 70 L321 70 Q339 70 345.5 72 Q352 74 370 85 Q388 96 391 101 Q394 106 394 121 L394 500 L478 500 L478 -170 Q478 -200 454 -220 L430 -240 Q406 -260 382 -260 Z M379 646 L225 550 L199 590 L336 709 L379 646 Z " />
<glyph glyph-name="thorn" unicode="&#xfe;" horiz-adv-x="576" d="M168 476 Q172 480 180 485 Q189 491 194.5 494 Q200 497 204.5 498.5 Q209 500 214.5 500 Q220 500 229 500 L420 500 Q443 500 468 480 L492 460 Q516 440 516 410 L516 90 Q516 59 492 40 L468 20 Q443 0 420 0 L244 0 Q219 0 196 20 Q172 44 172 50 L168 50 L168 -260 L84 -260 L84 740 L168 740 L168 476 Z M240 70 L383 70 Q401 70 406 71.5 Q411 73 420 80 Q429 87 430.5 91.5 Q432 96 432 111 L432 389 Q432 404 430.5 408.5 Q429 413 420 420 Q411 427 406 428.5 Q401 430 383 430 L241 430 Q232 430 226.5 430 Q221 430 216.5 428.5 Q212 427 206.5 424 Q201 421 192 415 Q174 404 171 399 Q168 394 168 379 L168 130 Q168 109 192 90 Q217 70 240 70 Z " />
<glyph glyph-name="ydieresis" unicode="&#xff;" horiz-adv-x="538" d="M382 -260 L94 -260 L94 -234 Q94 -211 96.5 -205.5 Q99 -200 112 -190 L357 -190 Q375 -190 380 -188.5 Q385 -187 394 -180 Q403 -173 404.5 -168.5 Q406 -164 406 -149 L406 48 L402 48 Q400 39 378 20 Q354 0 330 0 L156 0 Q132 0 108 20 L84 40 Q60 60 60 90 L60 500 L144 500 L144 111 Q144 96 145.5 91.5 Q147 87 156 80 Q165 73 170 71.5 Q175 70 193 70 L321 70 Q339 70 345.5 72 Q352 74 370 85 Q388 96 391 101 Q394 106 394 121 L394 500 L478 500 L478 -170 Q478 -200 454 -220 L430 -240 Q406 -260 382 -260 Z M237 636 L237 628 Q237 609 236 604.5 Q235 600 228 595 Q219 586 192 586 L187 586 Q161 586 151 595 Q141 604 141 628 L141 636 Q141 658 151 669 Q157 676 162 677 Q167 678 187 678 Q210 678 216 677 Q222 676 229 669 Q235 664 236 659.5 Q237 655 237 636 Z M397 636 L397 628 Q397 609 396 604.5 Q395 600 388 595 Q379 586 352 586 L347 586 Q321 586 311 595 Q301 604 301 628 L301 636 Q301 658 311 669 Q317 676 322 677 Q327 678 347 678 Q370 678 376 677 Q382 676 389 669 Q395 664 396 659.5 Q397 655 397 636 Z " />
<glyph glyph-name="Ccaron" unicode="&#x10c;" horiz-adv-x="663" d="M614 570 L530 570 L530 589 Q530 604 528.5 608.5 Q527 613 518 620 Q509 627 504 628.5 Q499 630 481 630 L233 630 Q215 630 210 628.5 Q205 627 196 620 Q187 613 185.5 608.5 Q184 604 184 589 L184 111 Q184 96 185.5 91.5 Q187 87 196 80 Q205 73 210 71.5 Q215 70 233 70 L481 70 Q499 70 504 71.5 Q509 73 518 80 Q527 87 528.5 91.5 Q530 96 530 111 L530 130 L614 130 L614 90 Q614 60 590 40 L566 20 Q542 0 518 0 L196 0 Q172 0 148 20 L124 40 Q100 60 100 90 L100 610 Q100 640 124 660 L148 680 Q172 700 196 700 L518 700 Q542 700 566 680 L590 660 Q614 640 614 610 L614 570 Z M364 830 L422 900 L482 881 L383 767 L330 767 L233 881 L292 900 L350 830 Q355 824 355 818 L359 818 Q359 824 364 830 Z " />
<glyph glyph-name="ccaron" unicode="&#x10d;" horiz-adv-x="515" d="M460 370 L376 370 L376 389 Q376 404 374.5 408.5 Q373 413 364 420 Q355 427 350 428.5 Q345 430 327 430 L193 430 Q175 430 170 428.5 Q165 427 156 420 Q147 413 145.5 408.5 Q144 404 144 389 L144 111 Q144 96 145.5 91.5 Q147 87 156 80 Q165 73 170 71.5 Q175 70 193 70 L327 70 Q345 70 350 71.5 Q355 73 364 80 Q373 87 374.5 91.5 Q376 96 376 111 L376 130 L460 130 L460 90 Q460 60 436 40 L412 20 Q388 0 364 0 L156 0 Q132 0 108 20 L84 40 Q60 60 60 90 L60 410 Q60 440 84 460 L108 480 Q132 500 156 500 L364 500 Q388 500 412 480 L436 460 Q460 440 460 410 L460 370 Z M267 630 L325 700 L385 681 L286 567 L233 567 L136 681 L195 700 L253 630 Q258 624 258 618 L262 618 Q262 624 267 630 Z " />
<glyph glyph-name="Dcaron" unicode="&#x10e;" horiz-adv-x="713" d="M100 0 L100 700 L470 700 Q496 700 518 680 L614 600 Q638 580 638 560 L638 140 Q638 120 614 100 L518 20 Q496 0 470 0 L100 0 Z M554 170 L554 530 Q554 550 530 570 L482 610 Q460 630 434 630 L184 630 L184 70 L434 70 Q460 70 482 90 L530 130 Q554 150 554 170 Z M376 830 L434 900 L494 881 L395 767 L342 767 L245 881 L304 900 L362 830 Q367 824 367 818 L371 818 Q371 824 376 830 Z " />
<glyph glyph-name="dcaron" unicode="&#x10f;" horiz-adv-x="685" d="M336 430 L193 430 Q175 430 170 428.5 Q165 427 156 420 Q147 413 145.5 408.5 Q144 404 144 389 L144 111 Q144 96 145.5 91.5 Q147 87 156 80 Q165 73 170 71.5 Q175 70 193 70 L335 70 Q353 70 359.5 72 Q366 74 384 85 Q402 96 405 101 Q408 106 408 121 L408 370 Q408 390 384 410 Q360 430 336 430 Z M347 0 L156 0 Q132 0 108 20 L84 40 Q60 60 60 90 L60 410 Q60 440 84 460 L108 480 Q132 500 156 500 L332 500 Q356 500 380 480 Q404 456 404 450 L408 450 L408 740 L492 740 L492 111 Q492 96 493.5 91.5 Q495 87 504 80 Q513 73 514.5 68.5 Q516 64 516 49 L516 0 L481 0 Q463 0 456.5 2.5 Q450 5 438 15 Q422 28 422 40 L418 40 Q418 28 396 15 Q378 4 371.5 2 Q365 0 347 0 Z M628 636 L604 526 L574 546 L574 646 Q566 646 558 654 Q552 659 551 663 Q550 667 550 685 L550 702 Q550 726 558 734 Q566 741 591 741 Q618 741 626 734 Q634 726 634 702 L634 685 Q634 661 628 636 Z " />
<glyph glyph-name="Ecaron" unicode="&#x11a;" horiz-adv-x="623" d="M548 70 L548 0 L100 0 L100 700 L548 700 L548 630 L184 630 L184 390 L492 390 L492 320 L184 320 L184 70 L548 70 Z M318 814 L420 876 L446 842 L343 754 L290 754 L187 842 L213 876 L314 814 L318 814 Z " />
<glyph glyph-name="ecaron" unicode="&#x11b;" horiz-adv-x="546" d="M436 90 L496 40 L472 20 Q454 5 447.5 2.5 Q441 0 423 0 L156 0 Q132 0 108 20 L84 40 Q60 60 60 90 L60 410 Q60 440 84 460 L108 480 Q132 500 156 500 L389 500 Q409 500 437 480 L462 460 Q486 442 486 410 L486 205 L144 205 L144 111 Q144 96 145.5 91.5 Q147 87 156 80 Q165 73 170 71.5 Q175 70 193 70 L387 70 Q405 70 411.5 72.5 Q418 75 436 90 Z M402 270 L402 389 Q402 404 400.5 408.5 Q399 413 390 420 Q381 427 376 428.5 Q371 430 353 430 L193 430 Q175 430 170 428.5 Q165 427 156 420 Q147 413 145.5 408.5 Q144 404 144 389 L144 270 L402 270 Z M285 630 L343 700 L403 681 L304 567 L251 567 L154 681 L213 700 L271 630 Q276 624 276 618 L280 618 Q280 624 285 630 Z " />
<glyph glyph-name="dotlessi" unicode="&#x131;" horiz-adv-x="204" d="M144 0 L60 0 L60 500 L144 500 L144 0 Z " />
<glyph glyph-name="Ncaron" unicode="&#x147;" horiz-adv-x="730" d="M550 130 L553 131 Q546 155 546 179 L546 700 L630 700 L630 0 L546 0 L180 562 L177 561 Q184 537 184 513 L184 0 L100 0 L100 700 L184 700 L550 130 Z M372 830 L430 900 L490 881 L391 767 L338 767 L241 881 L300 900 L358 830 Q363 824 363 818 L367 818 Q367 824 372 830 Z " />
<glyph glyph-name="ncaron" unicode="&#x148;" horiz-adv-x="562" d="M60 500 L95 500 Q113 500 119.5 497.5 Q126 495 138 485 Q154 472 154 460 L158 460 Q158 472 180 485 Q198 496 204.5 498 Q211 500 229 500 L406 500 Q430 500 454 480 L478 460 Q502 440 502 410 L502 0 L418 0 L418 389 Q418 404 416.5 408.5 Q415 413 406 420 Q397 427 392 428.5 Q387 430 369 430 L241 430 Q223 430 216.5 428 Q210 426 192 415 Q174 404 171 399 Q168 394 168 379 L168 0 L84 0 L84 389 Q84 404 82.5 408.5 Q81 413 72 420 Q63 427 61.5 431.5 Q60 436 60 451 L60 500 Z M288 630 L346 700 L406 681 L307 567 L254 567 L157 681 L216 700 L274 630 Q279 624 279 618 L283 618 Q283 624 288 630 Z " />
<glyph glyph-name="OE" unicode="&#x152;" horiz-adv-x="1025" d="M950 70 L950 0 L196 0 Q172 0 148 20 L124 40 Q100 60 100 90 L100 610 Q100 640 124 660 L148 680 Q172 700 196 700 L950 700 L950 630 L618 630 L618 390 L895 390 L895 320 L618 320 L618 70 L950 70 Z M233 70 L534 70 L534 630 L233 630 Q215 630 210 628.5 Q205 627 196 620 Q187 613 185.5 608.5 Q184 604 184 589 L184 111 Q184 96 185.5 91.5 Q187 87 196 80 Q205 73 210 71.5 Q215 70 233 70 Z " />
<glyph glyph-name="oe" unicode="&#x153;" horiz-adv-x="895" d="M157 500 L397 500 Q427 500 445 478 L449 473 L453 473 L457 478 Q475 500 505 500 L738 500 Q758 500 786 480 L811 460 Q835 442 835 410 L835 205 L493 205 L493 111 Q493 96 494.5 91.5 Q496 87 505 80 Q514 73 519 71.5 Q524 70 542 70 L736 70 Q754 70 760.5 72.5 Q767 75 785 90 L845 40 L821 20 Q803 5 796.5 2.5 Q790 0 772 0 L505 0 Q475 0 457 22 L453 27 L449 27 L445 22 Q427 0 397 0 L157 0 Q133 0 109 20 L85 40 Q61 60 61 90 L61 410 Q61 440 85 460 L109 480 Q133 500 157 500 Z M409 111 L409 401 Q408 410 397 420 Q388 427 383 428.5 Q378 430 360 430 L194 430 Q176 430 171 428.5 Q166 427 157 420 Q148 413 146.5 408.5 Q145 404 145 389 L145 111 Q145 96 146.5 91.5 Q148 87 157 80 Q166 73 171 71.5 Q176 70 194 70 L360 70 Q378 70 383 71.5 Q388 73 397 80 Q406 87 407.5 91.5 Q409 96 409 111 Z M751 270 L751 389 Q751 404 749.5 408.5 Q748 413 739 420 Q730 427 725 428.5 Q720 430 702 430 L542 430 Q524 430 519 428.5 Q514 427 505 420 Q496 413 494.5 408.5 Q493 404 493 389 L493 270 L751 270 Z " />
<glyph glyph-name="Rcaron" unicode="&#x158;" horiz-adv-x="673" d="M100 700 L470 700 Q494 700 518 680 L542 660 Q566 640 566 610 L566 376 Q566 345 541 324 L516 303 Q494 285 470 285 L414 285 L517 125 Q528 108 532.5 103.5 Q537 99 553 90 L564 84 Q582 74 585 68 Q588 62 588 39 L588 0 L563 0 Q545 0 538.5 2 Q532 4 516 15 L497 28 Q475 43 461 67 L328 280 L184 280 L184 0 L100 0 L100 700 Z M184 630 L184 350 L433 350 Q451 350 456 351.5 Q461 353 470 360 Q479 367 480.5 371.5 Q482 376 482 391 L482 589 Q482 604 480.5 608.5 Q479 613 470 620 Q461 627 456 628.5 Q451 630 433 630 L184 630 Z M351 830 L409 900 L469 881 L370 767 L317 767 L220 881 L279 900 L337 830 Q342 824 342 818 L346 818 Q346 824 351 830 Z " />
<glyph glyph-name="rcaron" unicode="&#x159;" horiz-adv-x="418" d="M60 500 L95 500 Q113 500 119.5 497.5 Q126 495 138 485 Q154 472 154 460 L158 460 Q158 472 180 485 Q198 496 204.5 498 Q211 500 229 500 L321 500 Q345 500 369 480 L393 460 L333 410 L321 420 Q312 427 307 428.5 Q302 430 284 430 L241 430 Q223 430 216.5 428 Q210 426 192 415 Q174 404 171 399 Q168 394 168 379 L168 0 L84 0 L84 389 Q84 404 82.5 408.5 Q81 413 72 420 Q63 427 61.5 431.5 Q60 436 60 451 L60 500 Z M233 630 L291 700 L351 681 L252 567 L199 567 L102 681 L161 700 L219 630 Q224 624 224 618 L228 618 Q228 624 233 630 Z " />
<glyph glyph-name="Scaron" unicode="&#x160;" horiz-adv-x="628" d="M420 320 L181 320 Q157 320 133 340 L106 363 Q85 380 85 403 L85 610 Q85 640 109 660 L133 680 Q157 700 181 700 L447 700 Q471 700 495 680 L519 660 Q543 640 543 610 L543 570 L459 570 L459 589 Q459 604 457.5 608.5 Q456 613 447 620 Q438 627 433 628.5 Q428 630 410 630 L218 630 Q200 630 195 628.5 Q190 627 181 620 Q172 613 170.5 608.5 Q169 604 169 589 L169 431 Q169 416 170.5 411.5 Q172 407 181 400 Q190 393 195 391.5 Q200 390 218 390 L457 390 Q481 390 505 370 L529 350 Q553 330 553 300 L553 90 Q553 60 529 40 L505 20 Q481 0 457 0 L171 0 Q147 0 123 20 L99 40 Q75 60 75 90 L75 130 L159 130 L159 111 Q159 96 160.5 91.5 Q162 87 171 80 Q180 73 185 71.5 Q190 70 208 70 L420 70 Q438 70 443 71.5 Q448 73 457 80 Q466 87 467.5 91.5 Q469 96 469 111 L469 279 Q469 294 467.5 298.5 Q466 303 457 310 Q448 317 443 318.5 Q438 320 420 320 Z M321 830 L379 900 L439 881 L340 767 L287 767 L190 881 L249 900 L307 830 Q312 824 312 818 L316 818 Q316 824 321 830 Z " />
<glyph glyph-name="scaron" unicode="&#x161;" horiz-adv-x="534" d="M378 290 Q402 290 426 270 L450 250 Q474 230 474 200 L474 90 Q474 60 450 40 L426 20 Q402 0 378 0 L156 0 Q132 0 108 20 L84 40 Q60 60 60 90 L60 130 L144 130 L144 111 Q144 96 145.5 91.5 Q147 87 156 80 Q165 73 170 71.5 Q175 70 193 70 L341 70 Q359 70 364 71.5 Q369 73 378 80 Q387 87 388.5 91.5 Q390 96 390 111 L390 192 Q389 200 378 210 Q369 217 364 218.5 Q359 220 341 220 L166 220 Q142 220 118 240 L94 260 Q70 280 70 310 L70 410 Q70 440 94 460 L118 480 Q142 500 166 500 L378 500 Q402 500 426 480 L450 460 Q474 440 474 410 L474 370 L390 370 L390 389 Q390 404 388.5 408.5 Q387 413 378 420 Q369 427 364 428.5 Q359 430 341 430 L203 430 Q185 430 180 428.5 Q175 427 166 420 Q157 413 155.5 408.5 Q154 404 154 389 L154 331 Q154 316 155.5 311.5 Q157 307 166 300 Q175 293 180 291.5 Q185 290 203 290 L378 290 Z M274 630 L332 700 L392 681 L293 567 L240 567 L143 681 L202 700 L260 630 Q265 624 265 618 L269 618 Q269 624 274 630 Z " />
<glyph glyph-name="Tcaron" unicode="&#x164;" horiz-adv-x="517" d="M-6 700 L522 700 L522 630 L300 630 L300 0 L216 0 L216 630 L-6 630 L-6 700 Z M265 830 L323 900 L383 881 L284 767 L231 767 L134 881 L193 900 L251 830 Q256 824 256 818 L260 818 Q260 824 265 830 Z " />
<glyph glyph-name="tcaron" unicode="&#x165;" horiz-adv-x="453" d="M175 640 L175 500 L303 500 Q316 490 318.5 484.5 Q321 479 321 456 L321 430 L175 430 L175 111 Q175 96 176.5 91.5 Q178 87 187 80 Q196 73 201 71.5 Q206 70 224 70 L315 70 Q328 60 330.5 54.5 Q333 49 333 26 L333 0 L187 0 Q163 0 139 20 L115 40 Q91 60 91 90 L91 430 L43 430 Q30 440 27.5 445.5 Q25 451 25 474 L25 500 L91 500 L91 640 L175 640 Z M417 540 L393 430 L363 450 L363 550 Q355 550 347 558 Q341 563 340 567 Q339 571 339 589 L339 606 Q339 630 347 638 Q355 645 380 645 Q407 645 415 638 Q423 630 423 606 L423 589 Q423 565 417 540 Z " />
<glyph glyph-name="Uring" unicode="&#x16e;" horiz-adv-x="732" d="M548 700 L632 700 L632 90 Q632 60 608 40 L584 20 Q560 0 536 0 L196 0 Q172 0 148 20 L124 40 Q100 60 100 90 L100 700 L184 700 L184 111 Q184 96 185.5 91.5 Q187 87 196 80 Q205 73 210 71.5 Q215 70 233 70 L499 70 Q517 70 522 71.5 Q527 73 536 80 Q545 87 546.5 91.5 Q548 96 548 111 L548 700 Z M335 911 L397 911 Q425 911 431.5 909.5 Q438 908 446 900 Q456 890 458 884 Q460 878 460 855 L460 806 Q460 782 458 776.5 Q456 771 446 761 Q438 753 431.5 751.5 Q425 750 397 750 L335 750 Q307 750 300.5 751.5 Q294 753 286 761 Q276 771 274 776.5 Q272 782 272 806 L272 855 Q272 878 274 884 Q276 890 286 900 Q294 908 300.5 909.5 Q307 911 335 911 Z M342 793 L390 793 Q403 793 411 799 Q417 804 417 820 L417 841 Q417 857 411 862 Q403 868 390 868 L342 868 Q329 868 321 862 Q315 857 315 841 L315 820 Q315 804 321 799 Q329 793 342 793 Z " />
<glyph glyph-name="uring" unicode="&#x16f;" horiz-adv-x="542" d="M313 0 L156 0 Q132 0 108 20 L84 40 Q60 60 60 90 L60 500 L144 500 L144 111 Q144 96 145.5 91.5 Q147 87 156 80 Q165 73 170 71.5 Q175 70 193 70 L301 70 Q319 70 325.5 72 Q332 74 350 85 Q368 96 371 101 Q374 106 374 121 L374 500 L458 500 L458 111 Q458 96 459.5 91.5 Q461 87 470 80 Q479 73 480.5 68.5 Q482 64 482 49 L482 0 L447 0 Q429 0 422.5 2.5 Q416 5 404 15 Q388 28 388 40 L384 40 Q384 28 362 15 Q344 4 337.5 2 Q331 0 313 0 Z M240 711 L302 711 Q330 711 336.5 709.5 Q343 708 351 700 Q361 690 363 684 Q365 678 365 655 L365 606 Q365 582 363 576.5 Q361 571 351 561 Q343 553 336.5 551.5 Q330 550 302 550 L240 550 Q212 550 205.5 551.5 Q199 553 191 561 Q181 571 179 576.5 Q177 582 177 606 L177 655 Q177 678 179 684 Q181 690 191 700 Q199 708 205.5 709.5 Q212 711 240 711 Z M247 593 L295 593 Q308 593 316 599 Q322 604 322 620 L322 641 Q322 657 316 662 Q308 668 295 668 L247 668 Q234 668 226 662 Q220 657 220 641 L220 620 Q220 604 226 599 Q234 593 247 593 Z " />
<glyph glyph-name="Zcaron" unicode="&#x17d;" horiz-adv-x="562" d="M135 70 L517 70 L517 0 L45 0 L45 74 L402 609 Q414 622 423 625 L423 630 L47 630 L47 700 L515 700 L515 624 L156 91 Q147 78 135 75 L135 70 Z M288 830 L346 900 L406 881 L307 767 L254 767 L157 881 L216 900 L274 830 Q279 824 279 818 L283 818 Q283 824 288 830 Z " />
<glyph glyph-name="zcaron" unicode="&#x17e;" horiz-adv-x="474" d="M136 70 L411 70 Q424 60 426.5 54.5 Q429 49 429 26 L429 0 L45 0 L45 74 L305 409 Q317 422 326 425 L326 430 L67 430 Q54 440 51.5 445.5 Q49 451 49 474 L49 500 L419 500 L419 424 L157 91 Q145 78 136 75 L136 70 Z M244 630 L302 700 L362 681 L263 567 L210 567 L113 681 L172 700 L230 630 Q235 624 235 618 L239 618 Q239 624 244 630 Z " />
<glyph glyph-name="circumflex" unicode="&#x2c6;" horiz-adv-x="399" d="M264 567 L206 637 Q201 643 201 649 L197 649 Q197 643 192 637 L134 567 L75 586 L172 700 L225 700 L324 586 L264 567 Z " />
<glyph glyph-name="caron" unicode="&#x2c7;" horiz-adv-x="399" d="M206 630 L264 700 L324 681 L225 567 L172 567 L75 681 L134 700 L192 630 Q197 624 197 618 L201 618 Q201 624 206 630 Z " />
<glyph glyph-name="ring" unicode="&#x2da;" horiz-adv-x="338" d="M138 711 L200 711 Q228 711 234.5 709.5 Q241 708 249 700 Q259 690 261 684 Q263 678 263 655 L263 606 Q263 582 261 576.5 Q259 571 249 561 Q241 553 234.5 551.5 Q228 550 200 550 L138 550 Q110 550 103.5 551.5 Q97 553 89 561 Q79 571 77 576.5 Q75 582 75 606 L75 655 Q75 678 77 684 Q79 690 89 700 Q97 708 103.5 709.5 Q110 711 138 711 Z M145 593 L193 593 Q206 593 214 599 Q220 604 220 620 L220 641 Q220 657 214 662 Q206 668 193 668 L145 668 Q132 668 124 662 Q118 657 118 641 L118 620 Q118 604 124 599 Q132 593 145 593 Z " />
<glyph glyph-name="tilde" unicode="&#x2dc;" horiz-adv-x="453" d="M73 612 L152 651 Q162 657 176 657 Q183 657 199 651.5 Q215 646 230 640 Q245 634 257.5 628.5 Q270 623 276 623 Q281 623 289 626 L351 658 L378 607 L299 567 Q288 561 275 561 Q263 561 250 566.5 Q237 572 223 578.5 Q209 585 196.5 590.5 Q184 596 176 596 Q166 596 147 586 L100 561 L73 612 Z " />
<glyph glyph-name="endash" unicode="&#x2013;" horiz-adv-x="610" d="M565 359 L565 294 L45 294 L45 359 L565 359 Z " />
<glyph glyph-name="emdash" unicode="&#x2014;" horiz-adv-x="648" d="M648 359 L648 294 L0 294 L0 359 L648 359 Z " />
<glyph glyph-name="quoteleft" unicode="&#x2018;" horiz-adv-x="204" d="M66 605 L90 715 L120 695 L120 595 Q128 595 136 587 Q142 582 143 578 Q144 574 144 556 L144 539 Q144 515 136 507 Q128 500 103 500 Q76 500 68 507 Q60 515 60 539 L60 556 Q60 580 66 605 Z " />
<glyph glyph-name="quoteright" unicode="&#x2019;" horiz-adv-x="204" d="M138 609 L114 499 L84 519 L84 619 Q76 619 68 627 Q62 632 61 636 Q60 640 60 658 L60 675 Q60 699 68 707 Q76 714 101 714 Q128 714 136 707 Q144 699 144 675 L144 658 Q144 634 138 609 Z " />
<glyph glyph-name="quotesinglbase" unicode="&#x201a;" horiz-adv-x="204" d="M138 -10 L114 -120 L84 -100 L84 0 Q76 0 68 8 Q62 13 61 17.5 Q60 22 60 39 L60 56 Q60 80 68 88 Q76 95 101 95 Q128 95 136 88 Q144 80 144 56 L144 39 Q144 15 138 -10 Z " />
<glyph glyph-name="quotedblleft" unicode="&#x201c;" horiz-adv-x="351" d="M66 605 L90 715 L120 695 L120 595 Q128 595 136 587 Q142 582 143 578 Q144 574 144 556 L144 539 Q144 515 136 507 Q128 500 103 500 Q76 500 68 507 Q60 515 60 539 L60 556 Q60 580 66 605 Z M213 605 L237 715 L267 695 L267 595 Q275 595 283 587 Q289 582 290 578 Q291 574 291 556 L291 539 Q291 515 283 507 Q275 500 250 500 Q223 500 215 507 Q207 515 207 539 L207 556 Q207 580 213 605 Z " />
<glyph glyph-name="quotedblright" unicode="&#x201d;" horiz-adv-x="351" d="M285 609 L261 499 L231 519 L231 619 Q223 619 215 627 Q209 632 208 636 Q207 640 207 658 L207 675 Q207 699 215 707 Q223 714 248 714 Q275 714 283 707 Q291 699 291 675 L291 658 Q291 634 285 609 Z M138 609 L114 499 L84 519 L84 619 Q76 619 68 627 Q62 632 61 636 Q60 640 60 658 L60 675 Q60 699 68 707 Q76 714 101 714 Q128 714 136 707 Q144 699 144 675 L144 658 Q144 634 138 609 Z " />
<glyph glyph-name="quotedblbase" unicode="&#x201e;" horiz-adv-x="351" d="M285 -10 L261 -120 L231 -100 L231 0 Q223 0 215 8 Q209 13 208 17.5 Q207 22 207 39 L207 56 Q207 80 215 88 Q223 95 248 95 Q275 95 283 88 Q291 80 291 56 L291 39 Q291 15 285 -10 Z M138 -10 L114 -120 L84 -100 L84 0 Q76 0 68 8 Q62 13 61 17.5 Q60 22 60 39 L60 56 Q60 80 68 88 Q76 95 101 95 Q128 95 136 88 Q144 80 144 56 L144 39 Q144 15 138 -10 Z " />
<glyph glyph-name="bullet" unicode="&#x2022;" horiz-adv-x="350" d="M276 383 L276 331 Q276 299 273.5 291 Q271 283 257 270 Q246 259 237.5 257 Q229 255 193 255 L161 255 Q122 255 113.5 257 Q105 259 93 270 Q80 283 77.5 291 Q75 299 75 331 L75 383 Q75 415 77.5 423 Q80 431 94 444 Q105 455 113.5 457 Q122 459 161 459 L192 459 Q229 459 238 457 Q247 455 260 444 Q272 431 274 423 Q276 415 276 383 Z " />
<glyph glyph-name="guilsinglleft" unicode="&#x2039;" horiz-adv-x="349" d="M231 541 L284 501 L140 273 L284 45 L231 5 L65 273 L231 541 Z " />
<glyph glyph-name="guilsinglright" unicode="&#x203a;" horiz-adv-x="349" d="M65 501 L118 541 L284 273 L118 5 L65 45 L209 273 L65 501 Z " />
<glyph glyph-name="fraction" unicode="&#x2044;" horiz-adv-x="607" d="M589 716 L97 -46 L28 -46 L516 716 L589 716 Z " />
<glyph glyph-name="uni2074" unicode="&#x2074;" horiz-adv-x="363" d="M276 700 L110 475 L220 475 L220 565 L280 565 L280 475 L328 475 L328 420 L280 420 L280 345 L220 345 L220 420 L38 420 L38 466 L202 700 L276 700 Z " />
<glyph glyph-name="Euro" unicode="&#x20ac;" horiz-adv-x="692" d="M430 320 L430 255 L204 255 L204 111 Q204 96 205.5 91.5 Q207 87 216 80 Q225 73 230 71.5 Q235 70 253 70 L499 70 Q517 70 522 71.5 Q527 73 536 80 Q545 87 546.5 91.5 Q548 96 548 111 L548 130 L632 130 L632 90 Q632 60 608 40 L584 20 Q560 0 536 0 L216 0 Q192 0 168 20 L144 40 Q120 60 120 90 L120 255 L20 255 L20 320 L120 320 L120 381 L20 381 L20 446 L120 446 L120 610 Q120 640 144 660 L168 680 Q192 700 216 700 L536 700 Q560 700 584 680 L608 660 Q632 640 632 610 L632 570 L548 570 L548 589 Q548 604 546.5 608.5 Q545 613 536 620 Q527 627 522 628.5 Q517 630 499 630 L253 630 Q235 630 230 628.5 Q225 627 216 620 Q207 613 205.5 608.5 Q204 604 204 589 L204 446 L460 446 L460 381 L204 381 L204 320 L430 320 Z " />
<glyph glyph-name="minus" unicode="&#x2212;" horiz-adv-x="538" d="M478 359 L478 294 L60 294 L60 359 L478 359 Z " />
</font>
</svg>
