<?xml version="1.0" standalone="no"?>
<!DOCTYPE svg PUBLIC "-//W3C//DTD SVG 1.1//EN" "http://www.w3.org/Graphics/SVG/1.1/DTD/svg11.dtd" >
<svg xmlns="http://www.w3.org/2000/svg">
<metadata></metadata>
<defs>
<font id="webfontregular" horiz-adv-x="1171" >
<font-face units-per-em="2048" ascent="1618" descent="-430" />
<missing-glyph horiz-adv-x="530" />
<glyph unicode="&#xfb01;" horiz-adv-x="1042" d="M33 854v135h164v76q0 152 79 238q78 84 207 83q92 0 152 -32l-39 -117q-39 23 -88 23q-158 0 -158 -195v-76h201v-135h-201v-854h-153v854h-164zM709 1233q0 43 30 74q31 31 74 30q43 0 74 -30q29 -31 28 -74q0 -43 -28 -72q-31 -31 -74 -31t-74 31q-31 29 -30 72zM735 0 v989h154v-989h-154z" />
<glyph unicode="&#xfb02;" horiz-adv-x="1042" d="M33 854v135h164v76q0 152 79 238q78 84 207 83q92 0 152 -32l-39 -117q-39 23 -88 23q-158 0 -158 -195v-76h201v-135h-201v-854h-153v854h-164zM735 0v1366h154v-1366h-154z" />
<glyph horiz-adv-x="2048" />
<glyph horiz-adv-x="2048" />
<glyph unicode="&#xd;" horiz-adv-x="2048" />
<glyph unicode=" "  horiz-adv-x="530" />
<glyph unicode="&#x09;" horiz-adv-x="530" />
<glyph unicode="&#xa0;" horiz-adv-x="530" />
<glyph unicode="!" horiz-adv-x="471" d="M123 92q0 47 33 80q35 33 80 33q47 0 79 -33q33 -33 33 -80q0 -45 -33 -78q-35 -35 -79 -34q-45 -1 -80 34q-33 33 -33 78zM139 1366h193l-33 -983h-127z" />
<glyph unicode="&#x22;" horiz-adv-x="704" d="M111 1292q0 39 26 66q27 29 66 28q39 0 67 -28q27 -27 27 -66q0 -29 -55 -448h-76q-55 420 -55 448zM408 1292q0 39 26 66q29 29 68 28q39 0 65 -28q27 -27 27 -66q0 -29 -55 -448h-76q-55 420 -55 448z" />
<glyph unicode="#" horiz-adv-x="1210" d="M45 371l35 108h219l135 408h-221l33 106h225l123 373h127l-123 -373h225l123 373h125l-125 -373h219l-30 -106h-224l-137 -408h227l-32 -108h-232l-123 -371h-125l125 371h-227l-123 -371h-127l125 371h-217zM424 479h225l137 408h-225z" />
<glyph unicode="$" horiz-adv-x="1214" d="M88 193l102 131q141 -168 365 -193v498q-205 55 -291 116q-133 94 -133 263q0 156 121 262q117 102 303 116v187h125v-189q244 -20 405 -188l-102 -125q-119 131 -303 158v-447q207 -57 297 -125q139 -100 139 -280q0 -156 -98 -260q-117 -123 -338 -140v-182h-125v182 q-293 18 -467 216zM307 1018q0 -129 248 -203v418q-111 -8 -178 -68q-70 -59 -70 -147zM680 129q135 14 203 88q57 61 57 148q0 153 -260 231v-467z" />
<glyph unicode="%" horiz-adv-x="1499" d="M63 1047q0 147 93 243q92 96 237 96t240 -96q90 -96 90 -243q0 -143 -90 -238q-94 -96 -240 -96q-145 0 -237 96q-92 94 -93 238zM186 1047q0 -98 58 -164q59 -66 149 -66q91 0 150 66q57 66 57 164q0 102 -57 167q-57 68 -150 68q-90 0 -149 -68q-57 -66 -58 -167z M262 0l873 1366h114l-874 -1366h-113zM776 311q0 145 92 240q92 98 238 98q143 0 237 -98q90 -94 91 -240q0 -145 -91 -239q-92 -96 -237 -97q-146 1 -238 97t-92 239zM897 311q0 -100 57 -164q59 -68 152 -67q92 -1 149 67q57 63 58 164q0 100 -58 166q-57 68 -149 68 t-152 -68q-57 -66 -57 -166z" />
<glyph unicode="&#x26;" horiz-adv-x="1314" d="M76 356q0 244 301 408q-104 178 -105 307q0 135 99 225q100 90 245 90q135 0 220 -69q88 -74 88 -199q0 -137 -109 -235q-66 -59 -240 -150q66 -88 160 -194q74 -88 162 -183q90 139 147 314l132 -60q-90 -217 -187 -352q127 -131 266 -258h-213q-41 35 -149 143 q-168 -168 -393 -168q-184 0 -299 97q-125 102 -125 284zM240 367q0 -123 84 -197q78 -68 192 -68q154 1 285 136q-135 141 -189 206q-98 113 -170 218q-203 -123 -202 -295zM430 1067q0 -97 82 -236q270 133 270 281q0 74 -47 115q-43 41 -114 41q-80 0 -136 -56 q-55 -57 -55 -145z" />
<glyph unicode="'" horiz-adv-x="407" d="M111 1292q0 39 26 66q27 29 66 28q39 0 67 -28q27 -27 27 -66q0 -29 -55 -448h-76q-55 420 -55 448z" />
<glyph unicode="(" horiz-adv-x="507" d="M90 498q0 508 289 905l94 -70q-215 -420 -215 -835q0 -416 215 -834l-94 -72q-289 397 -289 906z" />
<glyph unicode=")" horiz-adv-x="507" d="M35 -336l94 -72q289 397 289 906q0 508 -289 905l-94 -70q215 -420 215 -835q0 -416 -215 -834z" />
<glyph unicode="*" horiz-adv-x="696" d="M70 985l209 107l-209 106l45 82l198 -129l-12 235h94l-12 -235l197 129l47 -82l-209 -106l209 -107l-47 -80l-197 127l12 -235h-94l12 235l-198 -127z" />
<glyph unicode="+" horiz-adv-x="1021" d="M59 637v106h394v424h116v-424h394v-106h-394v-436h-116v436h-394z" />
<glyph unicode="," horiz-adv-x="471" d="M117 -197q119 78 133 191q-8 -4 -29 -4q-41 0 -69 30q-29 29 -29 74t31 78q33 33 77 33q55 0 91 -41q39 -43 38 -115q1 -190 -165 -309z" />
<glyph unicode="-" horiz-adv-x="614" d="M61 428v135h492v-135h-492z" />
<glyph unicode="." horiz-adv-x="473" d="M123 92q0 47 33 80q35 33 80 33q47 0 79 -33q33 -33 33 -80q0 -45 -33 -80q-33 -33 -79 -32q-45 -1 -80 32q-33 35 -33 80z" />
<glyph unicode="/" horiz-adv-x="606" d="M0 -41l485 1448h121l-485 -1448h-121z" />
<glyph unicode="0" horiz-adv-x="1253" d="M104 682q0 285 121 477q141 227 402 227q258 0 401 -227q121 -195 121 -477q0 -283 -121 -477q-143 -229 -401 -230q-261 1 -402 230q-121 195 -121 477zM279 682q0 -233 75 -379q92 -176 273 -176q180 0 272 176q76 145 76 379q0 231 -76 379q-92 174 -272 174 t-273 -174q-76 -147 -75 -379z" />
<glyph unicode="1" horiz-adv-x="694" d="M43 1014l342 352h150v-1366h-170v1143l-220 -234z" />
<glyph unicode="2" horiz-adv-x="1204" d="M109 1171q162 215 475 215q186 0 315 -98q143 -111 143 -303q0 -190 -188 -407q-139 -162 -475 -426h670v-152h-938v137q420 328 565 479q195 205 194 369q0 123 -90 191q-80 59 -196 59q-236 0 -371 -172z" />
<glyph unicode="3" horiz-adv-x="1140" d="M59 201l101 106q135 -180 381 -180q147 0 233 70t86 186q0 242 -340 242q-121 0 -141 -2v155q23 -2 141 -2q139 0 223 53q94 59 95 172q0 109 -90 175q-84 59 -216 59q-207 0 -360 -166l-94 107q172 211 469 210q203 0 330 -94q131 -100 131 -268q0 -135 -99 -225 q-82 -74 -194 -92q113 -12 205 -91q111 -98 110 -247q0 -174 -129 -283q-135 -111 -356 -111q-332 1 -486 226z" />
<glyph unicode="4" horiz-adv-x="1142" d="M66 346v141l585 879h234v-870h192v-150h-192v-346h-170v346h-649zM236 496h479v712z" />
<glyph unicode="5" horiz-adv-x="1208" d="M135 195l105 114q141 -182 376 -182q139 0 228 84q88 84 88 209q0 133 -88 215q-86 80 -226 80q-182 0 -315 -127l-125 43v735h836v-152h-666v-475q127 123 320 123q182 0 305 -112q131 -121 131 -324t-141 -330q-135 -121 -347 -121q-315 1 -481 220z" />
<glyph unicode="6" horiz-adv-x="1210" d="M104 682q0 299 136 492q150 213 422 212q238 0 376 -163l-86 -127q-119 139 -290 139q-186 0 -293 -168q-92 -147 -93 -369v-53q51 82 150 141q117 72 238 72q195 0 315 -108q131 -119 131 -328q0 -184 -127 -311q-135 -135 -350 -136q-271 0 -408 213q-121 186 -121 494 zM283 508q12 -152 88 -254q92 -127 254 -127q147 0 235 96q78 84 78 193q0 143 -92 223q-84 72 -221 72q-217 0 -342 -203z" />
<glyph unicode="7" horiz-adv-x="1054" d="M63 1214v152h932v-117l-559 -1249h-188l551 1214h-736z" />
<glyph unicode="8" horiz-adv-x="1191" d="M106 346q0 129 99 229q88 88 227 130q-303 86 -303 327q0 172 147 271q131 84 320 83q188 0 319 -83q150 -98 150 -271q0 -240 -305 -327q139 -41 227 -130q98 -100 98 -229q0 -168 -143 -272q-137 -98 -346 -99q-209 1 -346 99q-143 102 -144 272zM279 365 q0 -106 94 -175q90 -63 223 -63q131 0 221 63q96 68 96 175q0 117 -127 194q-92 57 -190 70q-98 -12 -190 -70q-127 -78 -127 -194zM301 1010q0 -184 295 -236q297 52 297 236q0 102 -86 166q-84 59 -211 59t-209 -59q-86 -61 -86 -166z" />
<glyph unicode="9" horiz-adv-x="1210" d="M100 942q0 184 127 311q135 135 353 136q268 0 407 -213q121 -186 121 -494q0 -299 -135 -489q-150 -215 -422 -216q-234 0 -379 164l86 127q119 -139 293 -139q193 0 297 170q88 147 88 367q0 35 -2 53q-51 -82 -150 -141q-115 -72 -235 -72q-195 0 -316 108 q-133 119 -133 328zM272 948q0 -143 93 -223q84 -72 223 -72q217 0 342 205q-14 152 -88 252q-94 127 -256 127q-145 0 -236 -94q-78 -84 -78 -195z" />
<glyph unicode=":" horiz-adv-x="460" d="M123 92q0 47 33 80q35 33 80 33q47 0 79 -33q33 -33 33 -80q0 -45 -33 -80q-33 -33 -79 -32q-45 -1 -80 32q-33 35 -33 80zM123 891q0 47 33 80q35 33 80 33q47 0 79 -33q33 -33 33 -80q0 -45 -33 -78q-35 -35 -79 -35q-45 0 -80 35q-33 33 -33 78z" />
<glyph unicode=";" horiz-adv-x="471" d="M117 -195q119 78 133 193q-8 -4 -29 -4q-41 0 -69 29q-29 31 -29 75q0 45 31 78q33 33 77 33q55 0 91 -41q39 -43 38 -115q1 -190 -165 -309zM123 891q0 47 33 80q35 33 80 33q47 0 79 -33q33 -33 33 -80q0 -45 -33 -78q-35 -35 -79 -35q-45 0 -80 35q-33 33 -33 78z" />
<glyph unicode="&#x3c;" horiz-adv-x="1021" d="M59 631v108l904 449v-129l-773 -375l773 -371v-129z" />
<glyph unicode="=" horiz-adv-x="1021" d="M59 432v109h904v-109h-904zM59 827v109h904v-109h-904z" />
<glyph unicode="&#x3e;" horiz-adv-x="1021" d="M59 184v129l772 371l-772 375v129l904 -449v-108z" />
<glyph unicode="?" horiz-adv-x="946" d="M37 1178q160 209 444 208q182 0 295 -92q106 -90 107 -225q0 -168 -197 -309q-113 -80 -137 -103q-61 -59 -62 -125q0 -61 54 -98l-125 -55q-78 66 -78 168q0 135 184 264q184 131 185 233q0 82 -60 134q-66 57 -180 57q-203 0 -328 -168zM346 92q0 47 33 80q35 33 80 33 q47 0 80 -33t32 -80q0 -45 -32 -80q-33 -33 -80 -32q-45 -1 -80 32q-33 35 -33 80z" />
<glyph unicode="@" horiz-adv-x="1603" d="M72 500q0 328 247 569q242 238 566 238q285 0 467 -191q178 -184 178 -459q0 -225 -113 -360q-100 -123 -241 -123q-82 0 -134 51q-49 45 -53 115v14q-127 -180 -325 -180q-141 0 -228 92q-86 92 -86 242q0 209 150 364q145 150 331 150q193 0 263 -160l26 127h140 l-117 -555q-4 -25 -4 -43q0 -106 96 -106q78 0 141 80q82 104 82 292q0 254 -160 416q-162 164 -419 164q-295 0 -517 -223q-219 -221 -219 -510q0 -248 166 -412q166 -168 420 -168q199 0 381 115l37 -53q-201 -129 -426 -129q-279 0 -465 186q-184 184 -184 457zM498 516 q0 -100 55 -162q55 -66 154 -65q176 0 303 184l59 285q-53 150 -211 149q-150 0 -256 -121q-104 -117 -104 -270z" />
<glyph unicode="A" horiz-adv-x="1347" d="M18 0l551 1366h211l549 -1366h-194l-121 305h-680l-121 -305h-195zM385 455h580l-291 737z" />
<glyph unicode="B" horiz-adv-x="1288" d="M160 0v1366h608q176 0 281 -96q102 -96 102 -252q0 -123 -74 -211q-66 -82 -166 -102q109 -16 189 -115q78 -98 78 -221q0 -166 -105 -267q-106 -102 -291 -102h-622zM330 152h420q119 0 184 63q67 62 67 169q0 101 -63 167q-70 72 -188 72h-420v-471zM330 774h409 q113 0 176 64q59 59 60 155q0 96 -60 158q-66 63 -176 63h-409v-440z" />
<glyph unicode="C" horiz-adv-x="1384" d="M104 682q0 311 205 510q199 197 498 197q330 0 518 -271l-141 -80q-133 199 -377 199q-227 0 -375 -154q-151 -157 -151 -398q0 -245 151 -402q150 -156 375 -156q242 0 377 199l143 -78q-199 -272 -520 -273q-299 0 -498 197q-205 199 -205 510z" />
<glyph unicode="D" horiz-adv-x="1433" d="M160 0v1366h467q313 0 510 -197q190 -193 190 -487q0 -297 -190 -487q-195 -195 -510 -195h-467zM330 152h297q242 0 387 155q137 147 137 375q0 229 -135 377q-142 155 -386 155h-3h-297v-1062z" />
<glyph unicode="E" horiz-adv-x="1165" d="M160 0v1366h895v-152h-725v-440h710v-151h-710v-471h725v-152h-895z" />
<glyph unicode="F" horiz-adv-x="1128" d="M160 0v1366h895v-152h-725v-440h710v-151h-710v-623h-170z" />
<glyph unicode="G" horiz-adv-x="1460" d="M104 682q0 313 205 514q199 193 498 193q326 0 530 -254l-135 -86q-147 188 -395 188q-227 0 -375 -154q-151 -157 -151 -398q0 -245 151 -402q150 -156 375 -156q221 0 369 147v277h-471v151h638v-491q-211 -238 -536 -238q-297 0 -498 195q-205 201 -205 514z" />
<glyph unicode="H" horiz-adv-x="1458" d="M160 0v1366h170v-588h798v588h170v-1366h-170v627h-798v-627h-170z" />
<glyph unicode="I" horiz-adv-x="489" d="M160 0v1366h170v-1366h-170z" />
<glyph unicode="J" horiz-adv-x="972" d="M23 133l90 129q109 -135 256 -135q125 0 200 80q74 78 74 207v952h170v-954q0 -213 -125 -328q-117 -109 -309 -109q-221 0 -356 158z" />
<glyph unicode="K" horiz-adv-x="1230" d="M160 0v1366h170v-704l604 704h213l-569 -647l620 -719h-213l-518 614l-137 -155v-459h-170z" />
<glyph unicode="L" horiz-adv-x="1009" d="M137 0v1366h170v-1214h635v-152h-805z" />
<glyph unicode="M" horiz-adv-x="1656" d="M160 0v1366h243l426 -1053l424 1053h244v-1366h-170v1149l-463 -1149h-69l-465 1149v-1149h-170z" />
<glyph unicode="N" horiz-adv-x="1449" d="M160 0v1366h174l786 -1067v1067h170v-1366h-164l-796 1090v-1090h-170z" />
<glyph unicode="O" horiz-adv-x="1566" d="M104 682q0 305 189 504q190 203 489 203t492 -203q188 -199 188 -504t-188 -504q-193 -203 -492 -203t-489 203q-188 199 -189 504zM281 682q0 -242 135 -397q139 -158 366 -158q226 0 367 158q137 156 137 397q0 242 -137 397q-141 158 -367 158q-227 0 -366 -158 q-135 -154 -135 -397z" />
<glyph unicode="P" horiz-adv-x="1202" d="M160 0v1366h549q199 0 317 -123q111 -115 111 -289t-113 -288q-119 -123 -315 -123h-379v-543h-170zM330 694h358q121 0 197 72q76 74 76 188q0 115 -76 189q-75 71 -194 71h-3h-358v-520z" />
<glyph unicode="Q" horiz-adv-x="1566" d="M104 682q0 305 189 504q190 203 489 203t492 -203q188 -199 188 -504t-188 -506l129 -137l-117 -102l-133 141q-160 -102 -371 -103q-299 0 -489 203q-188 199 -189 504zM281 682q0 -242 135 -397q139 -158 366 -158q145 0 260 70l-194 211l119 100l192 -209 q127 156 127 383q0 242 -137 397q-141 158 -367 158q-227 0 -366 -158q-135 -154 -135 -397z" />
<glyph unicode="R" horiz-adv-x="1247" d="M160 0v1366h549q190 0 309 -111q121 -115 121 -301q0 -176 -109 -284q-98 -100 -248 -113l369 -557h-201l-346 543h-274v-543h-170zM330 692h358q121 0 199 74q76 74 76 188q0 117 -76 189q-77 71 -196 71h-3h-358v-522z" />
<glyph unicode="S" horiz-adv-x="1200" d="M78 193l102 131q170 -197 428 -197q166 0 252 80q70 63 70 158q0 117 -127 180q-57 31 -277 90q-195 53 -278 117q-127 92 -127 256q0 168 135 274q131 106 336 107q301 0 483 -193l-102 -125q-145 164 -395 164q-123 0 -201 -59q-80 -61 -80 -158q0 -100 127 -158 q39 -18 278 -86q188 -55 277 -125q127 -100 127 -272q0 -166 -113 -275q-135 -127 -391 -127q-331 1 -524 218z" />
<glyph unicode="T" horiz-adv-x="1167" d="M66 1214v152h1036v-152h-434v-1214h-170v1214h-432z" />
<glyph unicode="U" horiz-adv-x="1435" d="M160 530v836h172v-831q0 -190 98 -297q100 -111 287 -111q186 0 289 111q98 106 98 297v831h172v-834q0 -260 -141 -405q-145 -152 -418 -152q-271 0 -416 152q-141 145 -141 403z" />
<glyph unicode="V" horiz-adv-x="1347" d="M18 1366h195l461 -1180l461 1180h194l-549 -1366h-211z" />
<glyph unicode="W" horiz-adv-x="1808" d="M29 1366h188l303 -1139l314 1139h141l313 -1139l301 1139h191l-391 -1366h-185l-301 1102l-301 -1102h-184z" />
<glyph unicode="X" horiz-adv-x="1335" d="M25 0l532 700l-502 666h207l406 -545l403 545h209l-502 -664l533 -702h-207l-436 582l-437 -582h-206z" />
<glyph unicode="Y" horiz-adv-x="1282" d="M18 1366h199l424 -635l424 635h199l-537 -788v-578h-170v578z" />
<glyph unicode="Z" horiz-adv-x="1198" d="M98 0v141l768 1073h-768v152h987v-141l-770 -1073h785v-152h-1002z" />
<glyph unicode="[" horiz-adv-x="497" d="M82 -389v1778h381v-113h-260v-1552h260v-113h-381z" />
<glyph unicode="\" horiz-adv-x="606" d="M0 1407h121l485 -1448h-121z" />
<glyph unicode="]" horiz-adv-x="497" d="M35 -276h262v1552h-262v113h383v-1778h-383v113z" />
<glyph unicode="^" horiz-adv-x="884" d="M39 682l346 684h117l344 -684h-127l-277 571l-276 -571h-127z" />
<glyph unicode="_" horiz-adv-x="1155" d="M-6 -82h1167v-113h-1167v113z" />
<glyph unicode="`" horiz-adv-x="462" d="M0 1434h160l303 -295h-117z" />
<glyph unicode="a" horiz-adv-x="1081" d="M100 303q0 158 109 246q96 80 235 80q209 0 328 -133v178q0 96 -72 153q-68 53 -178 54q-178 0 -303 -138l-72 107q158 164 396 164q170 0 270 -78q113 -86 113 -256v-680h-154v113q-121 -137 -328 -138q-135 0 -233 84q-111 92 -111 244zM256 303q0 -96 68 -156 q70 -61 178 -61q182 0 270 123v188q-90 121 -270 121q-109 0 -178 -61q-68 -59 -68 -154z" />
<glyph unicode="b" horiz-adv-x="1177" d="M154 0v1366h153v-526q129 174 334 174q197 0 317 -142q123 -143 123 -378q0 -238 -123 -379q-121 -139 -317 -140q-207 0 -334 172v-147h-153zM307 268q95 -155 294 -155h3q145 0 234 108q84 104 84 273q0 168 -84 274q-88 109 -234 109q-199 0 -297 -160v-449z" />
<glyph unicode="c" horiz-adv-x="1015" d="M96 496q0 223 137 368q137 150 357 150q229 0 362 -172l-102 -92q-92 127 -252 127q-154 0 -250 -109q-92 -106 -92 -272q0 -168 92 -275q95 -108 247 -108h3q156 0 252 129l102 -95q-133 -172 -362 -172q-220 0 -357 150q-137 147 -137 371z" />
<glyph unicode="d" horiz-adv-x="1177" d="M96 494q0 236 123 378q123 141 318 142q205 0 333 -174v526h154v-1366h-154v147q-127 -172 -333 -172q-197 0 -318 140q-123 141 -123 379zM256 494q0 -168 84 -273q87 -108 232 -108h2.5h2.5q195 0 293 157v447q-98 160 -295 160q-147 0 -235 -109q-84 -106 -84 -274z " />
<glyph unicode="e" horiz-adv-x="1153" d="M96 496q0 217 137 366q141 152 351 152q219 0 350 -154q125 -147 125 -377v-39h-799q10 -145 102 -241q98 -100 252 -101q184 0 308 127l73 -100q-158 -154 -393 -154q-223 1 -362 144q-143 145 -144 377zM258 559h649q-2 125 -80 219q-90 109 -245 109q-147 0 -238 -109 q-80 -92 -86 -219z" />
<glyph unicode="f" horiz-adv-x="581" d="M33 854v135h164v76q0 152 77 238q77 83 206 83h3q127 0 209 -75l-63 -99q-53 47 -121 48q-158 0 -158 -195v-76h201v-135h-201v-854h-153v854h-164z" />
<glyph unicode="g" horiz-adv-x="1177" d="M96 500q0 236 123 377q121 137 318 137q205 0 333 -174v149h154v-975q0 -217 -145 -325q-123 -90 -328 -90h-3q-245 0 -396 149l77 111q113 -133 322 -133q135 0 221 65q98 76 98 223v150q-129 -176 -333 -176q-197 0 -318 137q-123 139 -123 375zM256 500 q0 -166 84 -269q88 -106 235 -106q193 0 295 160v434q-104 158 -295 158q-147 0 -235 -107q-84 -102 -84 -270z" />
<glyph unicode="h" horiz-adv-x="1130" d="M156 0v1366h153v-520q135 168 353 168q315 0 315 -316v-698h-154v651q0 225 -223 226q-180 0 -291 -154v-723h-153z" />
<glyph unicode="i" horiz-adv-x="460" d="M127 1233q0 43 31 74q30 30 70 30h3q43 0 74 -30q29 -31 29 -74t-29 -72q-31 -31 -74 -31q-42 0 -73 31q-31 29 -31 72zM154 0v989h153v-989h-153z" />
<glyph unicode="j" horiz-adv-x="460" d="M-201 -328l54 115q61 -61 141 -61q160 0 160 178v1085h153v-1085q0 -305 -293 -305h-3q-121 0 -212 73zM127 1233q0 43 31 74q30 30 70 30h3q43 0 74 -30q29 -31 29 -74t-29 -72q-31 -31 -74 -31q-42 0 -73 31q-31 29 -31 72z" />
<glyph unicode="k" horiz-adv-x="1052" d="M154 0v1366h153v-903l520 526h195l-438 -448l440 -541h-197l-354 444l-166 -161v-283h-153z" />
<glyph unicode="l" horiz-adv-x="460" d="M154 0v1366h153v-1366h-153z" />
<glyph unicode="m" horiz-adv-x="1654" d="M154 0v989h153v-143q115 168 322 168q213 0 264 -185q113 184 332 185q276 0 276 -299v-715h-153v672q0 205 -183 205q-166 0 -262 -152v-725h-153v672q0 205 -183 205q-158 0 -260 -154v-723h-153z" />
<glyph unicode="n" horiz-adv-x="1130" d="M154 0v989h153v-143q139 168 355 168q313 0 313 -320v-694h-152v647q0 229 -223 230q-178 0 -293 -154v-723h-153z" />
<glyph unicode="o" d="M96 496q0 221 131 366q137 152 359 152q221 0 358 -152q131 -145 131 -366t-131 -367q-137 -154 -358 -154q-222 0 -359 154q-131 145 -131 367zM258 496q0 -160 84 -269q91 -114 241 -114h2.5h3.5q149 0 240 114q84 109 84 269t-84 266q-92 115 -243 115 q-152 0 -244 -115q-84 -106 -84 -266z" />
<glyph unicode="p" d="M154 -377v1366h153v-147q123 172 334 172q197 0 317 -140q123 -141 123 -378q0 -238 -123 -379q-121 -141 -317 -142q-203 1 -334 175v-527h-153zM307 272q97 -159 293 -159h2h3q144 0 231 108q84 106 84 275q0 168 -84 272q-88 109 -234 109q-197 0 -295 -158v-447z" />
<glyph unicode="q" d="M90 496q0 238 123 378q121 139 317 140q211 0 334 -172v147h154v-1366h-154v527q-131 -174 -334 -175q-196 1 -317 142q-123 141 -123 379zM252 496q0 -168 84 -275q87 -108 230 -108h3h2q196 0 293 159v447q-98 158 -295 158q-145 0 -233 -109q-84 -104 -84 -272z" />
<glyph unicode="r" horiz-adv-x="675" d="M154 0v989h153v-158q141 180 330 181v-158q-37 4 -59 4q-72 0 -154 -49q-82 -47 -117 -109v-700h-153z" />
<glyph unicode="s" horiz-adv-x="952" d="M70 131l77 111q123 -141 326 -142q111 0 174 50q61 45 62 120q0 78 -97 121q-37 16 -209 62q-145 37 -210 84q-96 70 -97 192q0 121 94 201q102 84 273 84q227 0 366 -144l-71 -106q-104 125 -295 125q-100 0 -160 -45q-59 -43 -59 -111q0 -70 96 -108q18 -8 211 -58 q141 -37 209 -88q96 -74 96 -205t-98 -211q-104 -88 -289 -88q-249 0 -399 156z" />
<glyph unicode="t" horiz-adv-x="602" d="M20 854v135h164v271h156v-271h201v-135h-201v-614q0 -127 98 -127q66 0 105 43l45 -117q-68 -63 -182 -64q-222 1 -222 232v647h-164z" />
<glyph unicode="u" horiz-adv-x="1128" d="M154 291v698h153v-651q0 -225 223 -225q184 0 291 149v727h154v-989h-154v139q-143 -164 -352 -164q-315 0 -315 316z" />
<glyph unicode="v" horiz-adv-x="1003" d="M6 989h168l328 -811l329 811h166l-411 -989h-168z" />
<glyph unicode="w" horiz-adv-x="1503" d="M25 989h159l242 -788l260 788h133l258 -788l242 788h162l-316 -989h-155l-258 795l-258 -795h-154z" />
<glyph unicode="x" horiz-adv-x="997" d="M25 0l378 508l-358 481h178l275 -377l276 377h176l-358 -481l381 -508h-176l-299 406l-297 -406h-176z" />
<glyph unicode="y" horiz-adv-x="1003" d="M6 989h168l328 -811l329 811h166l-495 -1190q-82 -197 -291 -200q-63 0 -111 14l23 139q37 -16 84 -16q102 0 147 104l66 150z" />
<glyph unicode="z" horiz-adv-x="966" d="M106 0v121l545 733h-545v135h746v-117l-549 -737h557v-135h-754z" />
<glyph unicode="{" horiz-adv-x="534" d="M10 449v102q109 0 109 141v420q0 123 78 203q74 74 176 74h127v-113h-127q-55 0 -94 -45q-41 -47 -41 -117v-434q0 -141 -93 -180q92 -39 93 -181v-432q0 -70 41 -116q39 -47 94 -47h127v-113h-127q-102 0 -176 74q-78 80 -78 200v422q0 141 -109 142z" />
<glyph unicode="|" horiz-adv-x="432" d="M160 -41v1448h112v-1448h-112z" />
<glyph unicode="}" horiz-adv-x="534" d="M35 -276h125q55 0 96 47t41 116v432q0 141 92 181q-92 39 -92 180v434q0 70 -41 117q-39 45 -96 45h-125v113h125q102 0 178 -74q78 -80 78 -203v-420q0 -141 106 -141v-102q-106 0 -106 -142v-422q0 -121 -78 -200q-76 -74 -178 -74h-125v113z" />
<glyph unicode="~" horiz-adv-x="1030" d="M55 879q45 485 283 485q141 0 215 -195q41 -115 53 -135q35 -61 86 -61q129 0 168 393l113 -12q-45 -487 -281 -488q-141 0 -213 195q-43 113 -55 133q-33 61 -86 61q-129 0 -168 -391z" />
<glyph unicode="&#xa1;" horiz-adv-x="471" d="M123 897q0 47 33 80q35 33 80 33t77 -33q33 -33 33 -80q0 -45 -33 -78t-77 -33q-45 0 -80 33q-33 33 -33 78zM139 -377l31 983h129l33 -983h-193z" />
<glyph unicode="&#xa2;" horiz-adv-x="1015" d="M96 496q0 201 115 342q117 143 305 170v149h121v-145q193 -16 315 -170l-102 -92q-82 113 -213 124v-759q129 12 213 127l102 -95q-119 -154 -315 -170v-182h-121v187q-188 25 -305 168q-115 143 -115 346zM256 496q0 -144 70 -246t190 -129v747q-121 -27 -190 -129 q-70 -100 -70 -243z" />
<glyph unicode="&#xa3;" horiz-adv-x="1060" d="M41 549v110h215q-158 184 -158 324q0 168 138 287q133 117 321 116q295 0 414 -229l-137 -82q-66 168 -261 168q-121 0 -202 -69q-88 -74 -88 -193q0 -94 55 -182q18 -29 53 -70l55 -70h308v-110h-250q14 -47 14 -88q0 -160 -156 -271q55 18 107 19q68 0 158 -41 q90 -43 145 -43q135 0 195 82l73 -137q-100 -96 -276 -97q-96 0 -195 47q-98 47 -172 48q-86 0 -241 -82l-60 129q270 117 271 311q0 61 -31 123h-295z" />
<glyph unicode="&#xa5;" horiz-adv-x="1282" d="M18 1366h199l424 -635l424 635h199l-465 -682h440v-106h-512v-220h512v-108h-512v-250h-170v250h-512v108h512v220h-512v106h438z" />
<glyph unicode="&#xa7;" horiz-adv-x="958" d="M70 -6l77 100q121 -145 322 -145q106 0 172 47q68 47 68 129t-97 129q-41 18 -209 63q-145 39 -210 86q-96 70 -97 193q0 199 234 260q-233 74 -234 254q0 117 97 195q102 82 270 81q238 0 366 -145l-71 -92q-102 123 -289 123q-100 0 -162 -45q-63 -45 -63 -119 q0 -76 96 -115q27 -12 211 -57q143 -37 209 -88q96 -74 96 -203q0 -180 -188 -260q188 -74 188 -250q0 -141 -108 -221q-104 -80 -279 -80q-236 0 -399 160zM244 610q0 -80 90 -125q47 -23 201 -61q170 74 170 203q-1 127 -232 186q-229 -57 -229 -203z" />
<glyph unicode="&#xa8;" horiz-adv-x="557" d="M-29 1237q0 39 29 68q27 27 68 26q39 0 65 -26q29 -29 29 -68t-29 -66q-27 -29 -65 -28q-39 0 -68 28q-29 27 -29 66zM395 1237q0 39 29 68q27 27 65 26q41 0 68 -26q29 -29 29 -68t-29 -66q-29 -29 -68 -28q-39 0 -65 28q-29 27 -29 66z" />
<glyph unicode="&#xa9;" horiz-adv-x="1593" d="M90 684q0 293 207 500t500 207t499 -207q207 -207 207 -500t-207 -500t-499 -207q-291 0 -500 207q-207 209 -207 500zM154 684q0 -264 190 -453q188 -190 453 -190q266 0 454 190q188 188 189 453q-1 267 -189 455t-454 188q-264 0 -453 -188q-190 -188 -190 -455z M375 688q0 186 125 311q123 123 301 123q186 0 299 -133l-51 -51q-86 117 -248 117q-143 0 -244 -101q-106 -106 -106 -268q0 -158 106 -266q102 -104 244 -105q160 0 248 119l53 -51q-117 -135 -301 -135q-178 0 -301 127q-125 127 -125 313z" />
<glyph unicode="&#xaa;" horiz-adv-x="774" d="M84 864q0 100 72 158q66 53 157 53q139 0 222 -86v113q0 61 -50 98q-45 35 -114 35q-121 0 -201 -94l-53 78q106 109 268 108q266 0 266 -227v-432h-116v71q-84 -88 -222 -88q-90 0 -157 56q-72 59 -72 157zM203 864q0 -61 45 -98q43 -37 110 -37q116 0 177 78v115 q-61 78 -177 77q-68 0 -110 -36q-45 -39 -45 -99z" />
<glyph unicode="&#xab;" horiz-adv-x="899" d="M61 498l328 362h154l-328 -362l328 -369h-154zM356 498l328 362h154l-328 -362l328 -369h-154z" />
<glyph unicode="&#xac;" horiz-adv-x="1032" d="M59 827v109h904v-504h-113v395h-791z" />
<glyph unicode="&#xad;" horiz-adv-x="614" d="M61 428v135h492v-135h-492z" />
<glyph unicode="&#xae;" horiz-adv-x="1011" d="M72 952q0 180 127 308q127 127 307 126q182 0 307 -126q127 -125 127 -308q0 -180 -127 -307t-307 -127t-307 127t-127 307zM131 952q0 -154 111 -264q109 -111 264 -110q156 0 264 110q111 111 111 264q0 158 -111 267q-109 109 -264 108q-156 0 -264 -108 q-111 -109 -111 -267zM340 702v498h203q66 0 110 -41q47 -43 47 -110q0 -72 -53 -115q-39 -33 -74 -33l134 -199h-82l-129 197h-90v-197h-66zM406 958h137q33 0 61 27q29 27 29 64q0 38 -29 67q-27 27 -61 27h-137v-185z" />
<glyph unicode="&#xaf;" horiz-adv-x="743" d="M0 1210v99h743v-99h-743z" />
<glyph unicode="&#xb0;" horiz-adv-x="593" d="M47 1137q0 102 74 176q72 74 176 73q102 0 176 -73q74 -74 74 -176q0 -104 -74 -176q-74 -74 -176 -74q-104 0 -176 74q-74 72 -74 176zM147 1137q0 -63 43 -107q43 -43 107 -43q61 0 106 43q45 45 46 107q-1 61 -46 106t-106 45t-107 -45q-43 -45 -43 -106z" />
<glyph unicode="&#xb1;" horiz-adv-x="1021" d="M59 0v109h904v-109h-904zM59 664v106h394v424h116v-424h394v-106h-394v-437h-116v437h-394z" />
<glyph unicode="&#xb4;" horiz-adv-x="462" d="M0 1139l303 295h160l-346 -295h-117z" />
<glyph unicode="&#xb5;" horiz-adv-x="1128" d="M154 -377v1366h153v-651q0 -229 223 -229q180 0 291 153v727h154v-989h-154v139q-143 -164 -352 -164q-94 0 -162 29v-381h-153z" />
<glyph unicode="&#xb6;" horiz-adv-x="919" d="M55 1014q0 145 103 250q104 102 250 102h366v-1571h-92v1479h-182v-1479h-92v867q-145 0 -250 102q-102 104 -103 250z" />
<glyph unicode="&#xb7;" horiz-adv-x="473" d="M123 502q0 45 33 78q35 33 80 32q45 0 79 -32q33 -33 33 -78t-33 -80q-33 -33 -79 -33q-45 0 -80 33q-33 35 -33 80z" />
<glyph unicode="&#xb8;" horiz-adv-x="419" d="M0 -330l39 78q74 -59 164 -59q125 0 125 86q0 72 -76 71q-49 0 -78 -34l-68 38l64 173h92l-53 -136q29 23 76 23q59 0 96 -37q39 -39 39 -100q0 -74 -62 -119q-59 -45 -151 -45q-129 0 -207 61z" />
<glyph unicode="&#xba;" horiz-adv-x="829" d="M82 989q0 143 90 240q92 98 242 98q152 0 243 -98q90 -96 91 -240q0 -143 -91 -237q-92 -100 -243 -101q-148 1 -242 101q-90 96 -90 237zM205 989q0 -104 55 -170q57 -70 154 -69q98 -1 157 69q55 68 56 170q0 102 -56 168q-59 70 -157 70q-96 0 -154 -70 q-55 -66 -55 -168z" />
<glyph unicode="&#xbb;" horiz-adv-x="899" d="M61 129l328 369l-328 362h154l328 -362l-328 -369h-154zM356 129l328 369l-328 362h154l328 -362l-328 -369h-154z" />
<glyph unicode="&#xbf;" horiz-adv-x="806" d="M63 -84q0 168 199 309q111 80 135 103q61 59 62 125q0 61 -53 98l124 55q78 -66 78 -168q0 -135 -184 -264q-184 -131 -184 -233q0 -82 59 -134q66 -57 180 -57q203 0 328 166l102 -109q-160 -209 -444 -208q-182 0 -295 92q-106 90 -107 225zM375 897q0 47 33 80 q35 33 79 33q47 0 80 -33t33 -80q0 -45 -33 -80q-33 -33 -80 -33q-45 0 -79 33q-33 35 -33 80z" />
<glyph unicode="&#xc0;" horiz-adv-x="1347" d="M18 0l551 1366h211l549 -1366h-194l-121 305h-680l-121 -305h-195zM348 1786h160l303 -295h-117zM385 455h580l-291 737z" />
<glyph unicode="&#xc1;" horiz-adv-x="1347" d="M18 0l551 1366h211l549 -1366h-194l-121 305h-680l-121 -305h-195zM385 455h580l-291 737zM541 1491l303 295h160l-347 -295h-116z" />
<glyph unicode="&#xc2;" horiz-adv-x="1347" d="M18 0l551 1366h211l549 -1366h-194l-121 305h-680l-121 -305h-195zM385 455h580l-291 737zM406 1491l194 295h148l200 -295h-104l-170 217l-164 -217h-104z" />
<glyph unicode="&#xc3;" horiz-adv-x="1347" d="M18 0l551 1366h211l549 -1366h-194l-121 305h-680l-121 -305h-195zM354 1499q0 123 52 197q53 78 147 78q80 0 145 -95q63 -94 107 -94q98 0 98 176h92q0 -123 -51 -196q-53 -78 -147 -78q-81 0 -144 94q-66 94 -108 94q-98 0 -99 -176h-92zM385 455h580l-291 737z" />
<glyph unicode="&#xc4;" horiz-adv-x="1347" d="M18 0l551 1366h211l549 -1366h-194l-121 305h-680l-121 -305h-195zM369 1583q0 39 28 68q27 27 68 26q39 0 65 -26q29 -29 29 -68q0 -38 -29 -65q-27 -29 -65 -29q-39 0 -68 29q-29 27 -28 65zM385 455h580l-291 737zM793 1583q0 39 28 68q27 27 66 26q41 0 67 -26 q29 -29 29 -68q0 -38 -29 -65q-29 -29 -67 -29q-39 0 -66 29q-29 27 -28 65z" />
<glyph unicode="&#xc5;" horiz-adv-x="1347" d="M18 0l551 1366h211l549 -1366h-194l-121 305h-680l-121 -305h-195zM385 455h580l-291 737zM473 1620q0 84 59 143q61 59 144 60q82 0 141 -60q57 -59 57 -143t-57 -143q-59 -59 -141 -60q-83 1 -144 60q-59 61 -59 143zM555 1620q0 -49 35 -84q35 -37 86 -37q49 0 84 37 q35 35 35 84t-35 86q-35 35 -84 35q-51 0 -86 -35q-35 -37 -35 -86z" />
<glyph unicode="&#xc6;" horiz-adv-x="1941" d="M14 0l852 1366h963v-152h-725v-440h711v-151h-711v-471h725v-152h-895v305h-537l-188 -305h-195zM479 455h455v737z" />
<glyph unicode="&#xc7;" horiz-adv-x="1384" d="M104 682q0 311 205 510q199 197 498 197q330 0 518 -271l-141 -80q-133 199 -377 199q-227 0 -375 -154q-152 -158 -151 -401q0 -242 151 -399q150 -156 375 -156q242 0 377 199l143 -78q-195 -264 -500 -273l-30 -79q29 23 75 22q59 0 97 -37q39 -39 39 -100 q0 -74 -62 -119q-59 -45 -151 -45q-129 0 -207 61l39 78q74 -59 164 -59q125 0 124 86q0 72 -75 72q-49 0 -78 -35l-68 39l43 121q-274 23 -450 215q-182 195 -183 487z" />
<glyph unicode="&#xc8;" horiz-adv-x="1165" d="M160 0v1366h895v-152h-725v-440h710v-151h-710v-471h725v-152h-895zM281 1786h159l303 -295h-116z" />
<glyph unicode="&#xc9;" horiz-adv-x="1165" d="M160 0v1366h895v-152h-725v-440h710v-151h-710v-471h725v-152h-895zM471 1491l303 295h160l-346 -295h-117z" />
<glyph unicode="&#xca;" horiz-adv-x="1165" d="M160 0v1366h895v-152h-725v-440h710v-151h-710v-471h725v-152h-895zM334 1491l194 295h148l201 -295h-105l-170 217l-164 -217h-104z" />
<glyph unicode="&#xcb;" horiz-adv-x="1165" d="M160 0v1366h895v-152h-725v-440h710v-151h-710v-471h725v-152h-895zM299 1583q0 39 29 68q27 27 67 26q39 0 66 -26q29 -29 28 -68q1 -38 -28 -65q-27 -29 -66 -29t-67 29q-29 27 -29 65zM723 1583q0 39 29 68q27 27 65 26q41 0 68 -26q29 -29 28 -68q1 -38 -28 -65 q-29 -29 -68 -29t-65 29q-29 27 -29 65z" />
<glyph unicode="&#xcc;" horiz-adv-x="489" d="M-84 1786h160l303 -295h-117zM160 0v1366h170v-1366h-170z" />
<glyph unicode="&#xcd;" horiz-adv-x="489" d="M113 1491l303 295h159l-346 -295h-116zM160 0v1366h170v-1366h-170z" />
<glyph unicode="&#xce;" horiz-adv-x="489" d="M-27 1491l195 295h147l201 -295h-104l-170 217l-164 -217h-105zM160 0v1366h170v-1366h-170z" />
<glyph unicode="&#xcf;" horiz-adv-x="489" d="M-63 1583q0 39 28 68q27 27 68 26q39 0 65 -26q29 -29 29 -68q0 -38 -29 -65q-27 -29 -65 -29q-39 0 -68 29q-29 27 -28 65zM160 0v1366h170v-1366h-170zM360 1583q0 39 29 68q27 27 66 26q41 0 67 -26q29 -29 29 -68q0 -38 -29 -65q-29 -29 -67 -29q-39 0 -66 29 q-29 27 -29 65z" />
<glyph unicode="&#xd0;" horiz-adv-x="1490" d="M20 612v125h197v629h467q313 0 510 -197q190 -193 190 -487q0 -297 -190 -487q-195 -195 -510 -195h-467v612h-197zM387 152h297q242 0 387 155q137 147 137 375q0 229 -135 377q-143 156 -389 155h-297v-477h346v-125h-346v-460z" />
<glyph unicode="&#xd1;" horiz-adv-x="1449" d="M160 0v1366h174l786 -1067v1067h170v-1366h-164l-796 1090v-1090h-170zM401 1499q0 123 52 197q53 78 147 78q80 0 145 -95q63 -94 107 -94q98 0 98 176h92q0 -123 -51 -196q-53 -78 -147 -78q-81 0 -144 94q-66 94 -108 94q-98 0 -98 -176h-93z" />
<glyph unicode="&#xd2;" horiz-adv-x="1566" d="M104 682q0 305 189 504q190 203 489 203t492 -203q188 -199 188 -504t-188 -504q-193 -203 -492 -203t-489 203q-188 199 -189 504zM281 682q0 -242 135 -397q139 -158 366 -158q226 0 367 158q137 156 137 397q0 242 -137 397q-141 158 -367 158q-227 0 -366 -158 q-135 -154 -135 -397zM463 1786h160l303 -295h-117z" />
<glyph unicode="&#xd3;" horiz-adv-x="1566" d="M104 682q0 305 189 504q190 203 489 203t492 -203q188 -199 188 -504t-188 -504q-193 -203 -492 -203t-489 203q-188 199 -189 504zM281 682q0 -242 135 -397q139 -158 366 -158q226 0 367 158q137 156 137 397q0 242 -137 397q-141 158 -367 158q-227 0 -366 -158 q-135 -154 -135 -397zM651 1491l303 295h160l-346 -295h-117z" />
<glyph unicode="&#xd4;" horiz-adv-x="1566" d="M104 682q0 305 189 504q190 203 489 203t492 -203q188 -199 188 -504t-188 -504q-193 -203 -492 -203t-489 203q-188 199 -189 504zM281 682q0 -242 135 -397q139 -158 366 -158q226 0 367 158q137 156 137 397q0 242 -137 397q-141 158 -367 158q-227 0 -366 -158 q-135 -154 -135 -397zM516 1491l195 295h147l201 -295h-105l-170 217l-163 -217h-105z" />
<glyph unicode="&#xd5;" horiz-adv-x="1566" d="M104 682q0 305 189 504q190 203 489 203t492 -203q188 -199 188 -504t-188 -504q-193 -203 -492 -203t-489 203q-188 199 -189 504zM281 682q0 -242 135 -397q139 -158 366 -158q226 0 367 158q137 156 137 397q0 242 -137 397q-141 158 -367 158q-227 0 -366 -158 q-135 -154 -135 -397zM463 1499q0 123 51 197q53 78 148 78q80 0 145 -95q63 -94 106 -94q98 0 99 176h92q0 -123 -51 -196q-53 -78 -148 -78q-80 0 -143 94q-66 94 -109 94q-98 0 -98 -176h-92z" />
<glyph unicode="&#xd6;" horiz-adv-x="1566" d="M104 682q0 305 189 504q190 203 489 203t492 -203q188 -199 188 -504t-188 -504q-193 -203 -492 -203t-489 203q-188 199 -189 504zM281 682q0 -242 135 -397q139 -158 366 -158q226 0 367 158q137 156 137 397q0 242 -137 397q-141 158 -367 158q-227 0 -366 -158 q-135 -154 -135 -397zM475 1583q0 39 29 68q27 27 67 26q39 0 66 -26q29 -29 29 -68q0 -38 -29 -65q-27 -29 -66 -29t-67 29q-29 27 -29 65zM899 1583q0 39 29 68q27 27 65 26q41 0 68 -26q29 -29 29 -68q0 -38 -29 -65q-29 -29 -68 -29t-65 29q-29 27 -29 65z" />
<glyph unicode="&#xd8;" horiz-adv-x="1566" d="M104 682q0 305 189 504q190 203 489 203q188 0 342 -86l43 63h138l-86 -129q244 -205 243 -555q0 -305 -188 -504q-193 -203 -492 -203q-196 1 -352 93l-45 -68h-137l90 133q-233 201 -234 549zM281 682q-1 -256 149 -412l606 901q-115 66 -254 66q-227 0 -366 -158 q-135 -154 -135 -397zM518 199q113 -72 264 -72q226 0 367 158q137 156 137 397q0 264 -160 420z" />
<glyph unicode="&#xd9;" horiz-adv-x="1435" d="M160 530v836h172v-831q0 -190 98 -297q100 -111 287 -111q186 0 289 111q98 106 98 297v831h172v-834q0 -260 -141 -405q-145 -152 -418 -152q-271 0 -416 152q-141 145 -141 403zM393 1786h160l303 -295h-117z" />
<glyph unicode="&#xda;" horiz-adv-x="1435" d="M160 530v836h172v-831q0 -190 98 -297q100 -111 287 -111q186 0 289 111q98 106 98 297v831h172v-834q0 -260 -141 -405q-145 -152 -418 -152q-271 0 -416 152q-141 145 -141 403zM582 1491l303 295h159l-346 -295h-116z" />
<glyph unicode="&#xdb;" horiz-adv-x="1435" d="M160 530v836h172v-831q0 -190 98 -297q100 -111 287 -111q186 0 289 111q98 106 98 297v831h172v-834q0 -260 -141 -405q-145 -152 -418 -152q-271 0 -416 152q-141 145 -141 403zM457 1491l194 295h148l200 -295h-104l-170 217l-164 -217h-104z" />
<glyph unicode="&#xdc;" horiz-adv-x="1435" d="M160 530v836h172v-831q0 -190 98 -297q100 -111 287 -111q186 0 289 111q98 106 98 297v831h172v-834q0 -260 -141 -405q-145 -152 -418 -152q-271 0 -416 152q-141 145 -141 403zM412 1583q0 39 28 68q27 27 68 26q39 0 65 -26q29 -29 29 -68q0 -38 -29 -65 q-27 -29 -65 -29q-39 0 -68 29q-29 27 -28 65zM836 1583q0 39 28 68q27 27 66 26q41 0 67 -26q29 -29 29 -68q0 -38 -29 -65q-29 -29 -67 -29q-39 0 -66 29q-29 27 -28 65z" />
<glyph unicode="&#xdd;" horiz-adv-x="1282" d="M18 1366h199l424 -635l424 635h199l-537 -788v-578h-170v578zM514 1491l303 295h160l-346 -295h-117z" />
<glyph unicode="&#xde;" horiz-adv-x="1202" d="M160 0v1366h170v-244h379q199 0 317 -123q111 -115 111 -290q0 -174 -113 -289q-119 -121 -315 -121h-379v-299h-170zM330 451h358q121 0 197 71q76 72 76 187t-76 188q-76 74 -197 74h-358v-520z" />
<glyph unicode="&#xdf;" horiz-adv-x="1222" d="M156 0v1022q0 156 104 258q109 106 285 106q147 0 250 -69q109 -72 108 -189q0 -119 -153 -219q-154 -100 -154 -178q0 -70 92 -106q18 -8 203 -56q135 -37 201 -90q92 -72 92 -203q0 -126 -94 -210q-104 -90 -287 -91q-221 0 -381 160l78 107q104 -139 303 -140 q113 0 174 52q57 47 57 118q0 78 -92 121q-35 16 -201 64q-139 37 -202 84q-92 70 -93 190q0 121 150 223t149 158q0 63 -65 102q-57 35 -137 35q-100 0 -166 -61q-68 -63 -68 -166v-1022h-153z" />
<glyph unicode="&#xe0;" horiz-adv-x="1081" d="M100 303q0 158 109 246q96 80 235 80q209 0 328 -133v178q0 96 -72 153q-68 53 -178 54q-178 0 -303 -138l-72 107q158 164 396 164q170 0 270 -78q113 -86 113 -256v-680h-154v113q-121 -137 -328 -138q-135 0 -233 84q-111 92 -111 244zM217 1434h160l303 -295h-117z M256 303q0 -96 68 -156q70 -61 178 -61q182 0 270 123v188q-90 121 -270 121q-109 0 -178 -61q-68 -59 -68 -154z" />
<glyph unicode="&#xe1;" horiz-adv-x="1081" d="M100 303q0 158 109 246q96 80 235 80q209 0 328 -133v178q0 96 -72 153q-68 53 -178 54q-178 0 -303 -138l-72 107q158 164 396 164q170 0 270 -78q113 -86 113 -256v-680h-154v113q-121 -137 -328 -138q-135 0 -233 84q-111 92 -111 244zM256 303q0 -96 68 -156 q70 -61 178 -61q182 0 270 123v188q-90 121 -270 121q-109 0 -178 -61q-68 -59 -68 -154zM412 1139l303 295h159l-346 -295h-116z" />
<glyph unicode="&#xe2;" horiz-adv-x="1081" d="M100 303q0 158 109 246q96 80 235 80q209 0 328 -133v178q0 96 -72 153q-68 53 -178 54q-178 0 -303 -138l-72 107q158 164 396 164q170 0 270 -78q113 -86 113 -256v-680h-154v113q-121 -137 -328 -138q-135 0 -233 84q-111 92 -111 244zM256 303q0 -96 68 -156 q70 -61 178 -61q182 0 270 123v188q-90 121 -270 121q-109 0 -178 -61q-68 -59 -68 -154zM279 1139l194 295h148l200 -295h-104l-170 217l-164 -217h-104z" />
<glyph unicode="&#xe3;" horiz-adv-x="1081" d="M100 303q0 158 109 246q96 80 235 80q209 0 328 -133v178q0 96 -72 153q-68 53 -178 54q-178 0 -303 -138l-72 107q158 164 396 164q170 0 270 -78q113 -86 113 -256v-680h-154v113q-121 -137 -328 -138q-135 0 -233 84q-111 92 -111 244zM223 1147q0 123 51 196 q53 78 148 78q80 0 145 -94q63 -94 107 -94q98 0 98 176h92q0 -123 -51 -197q-53 -78 -147 -77q-81 0 -144 94q-66 94 -108 94q-98 0 -99 -176h-92zM256 303q0 -96 68 -156q70 -61 178 -61q182 0 270 123v188q-90 121 -270 121q-109 0 -178 -61q-68 -59 -68 -154z" />
<glyph unicode="&#xe4;" horiz-adv-x="1081" d="M100 303q0 158 109 246q96 80 235 80q209 0 328 -133v178q0 96 -72 153q-68 53 -178 54q-178 0 -303 -138l-72 107q158 164 396 164q170 0 270 -78q113 -86 113 -256v-680h-154v113q-121 -137 -328 -138q-135 0 -233 84q-111 92 -111 244zM233 1237q0 39 29 68 q27 27 68 26q39 0 65 -26q29 -29 29 -68t-29 -66q-27 -29 -65 -28q-39 0 -68 28q-29 27 -29 66zM256 303q0 -96 68 -156q70 -61 178 -61q182 0 270 123v188q-90 121 -270 121q-109 0 -178 -61q-68 -59 -68 -154zM657 1237q0 39 29 68q27 27 66 26q41 0 67 -26q29 -29 29 -68 t-29 -66q-29 -29 -67 -28q-39 0 -66 28q-29 27 -29 66z" />
<glyph unicode="&#xe5;" horiz-adv-x="1081" d="M100 303q0 158 109 246q96 80 235 80q209 0 328 -133v178q0 96 -72 153q-68 53 -178 54q-178 0 -303 -138l-72 107q158 164 396 164q170 0 270 -78q113 -86 113 -256v-680h-154v113q-121 -137 -328 -138q-135 0 -233 84q-111 92 -111 244zM256 303q0 -96 68 -156 q70 -61 178 -61q182 0 270 123v188q-90 121 -270 121q-109 0 -178 -61q-68 -59 -68 -154zM342 1323q0 84 59 143q61 59 144 60q82 0 141 -60q57 -59 57 -143t-57 -143q-59 -59 -141 -60q-83 1 -144 60q-59 61 -59 143zM424 1323q0 -49 35 -84q35 -37 86 -37q49 0 84 37 q35 35 35 84t-35 86q-35 35 -84 35q-51 0 -86 -35q-35 -37 -35 -86z" />
<glyph unicode="&#xe6;" horiz-adv-x="1820" d="M100 303q0 154 105 244q96 82 239 82q209 0 328 -131v176q0 96 -72 153q-68 53 -178 54q-178 0 -303 -138l-72 107q158 164 396 164q287 0 336 -217q123 217 378 217q215 0 345 -154q125 -147 124 -377v-39h-798q10 -145 102 -239q98 -98 252 -99q186 0 307 125l74 -102 q-158 -154 -393 -154q-262 0 -410 205q-145 -205 -407 -205q-141 0 -242 84q-111 92 -111 244zM256 303q0 -96 68 -156q70 -61 178 -61q205 0 301 174q-31 72 -31 133q-90 125 -270 125q-109 0 -178 -61q-68 -59 -68 -154zM926 559h649q-2 125 -80 219q-90 109 -246 109 q-147 0 -237 -109q-80 -92 -86 -219z" />
<glyph unicode="&#xe7;" horiz-adv-x="1015" d="M96 496q0 223 137 368q137 150 357 150q229 0 362 -172l-102 -92q-92 127 -252 127q-154 0 -250 -109q-92 -106 -92 -272q0 -168 92 -275q96 -109 250 -108q156 0 252 129l102 -95q-119 -156 -323 -170l-33 -86q29 23 76 23q59 0 96 -37q39 -39 39 -100q0 -74 -62 -119 q-59 -45 -151 -45q-129 0 -207 61l39 78q74 -59 164 -59q125 0 125 86q0 72 -76 71q-49 0 -78 -34l-67 39l45 125q-199 16 -322 163q-121 143 -121 353z" />
<glyph unicode="&#xe8;" horiz-adv-x="1153" d="M96 496q0 217 137 366q141 152 351 152q219 0 350 -154q125 -147 125 -377v-39h-799q10 -145 102 -241q98 -100 252 -101q184 0 308 127l73 -100q-158 -154 -393 -154q-223 1 -362 144q-143 145 -144 377zM258 559h649q-2 125 -80 219q-90 109 -245 109q-147 0 -238 -109 q-80 -92 -86 -219zM258 1434h160l303 -295h-117z" />
<glyph unicode="&#xe9;" horiz-adv-x="1153" d="M96 496q0 217 137 366q141 152 351 152q219 0 350 -154q125 -147 125 -377v-39h-799q10 -145 102 -241q98 -100 252 -101q184 0 308 127l73 -100q-158 -154 -393 -154q-223 1 -362 144q-143 145 -144 377zM258 559h649q-2 125 -80 219q-90 109 -245 109q-147 0 -238 -109 q-80 -92 -86 -219zM451 1139l303 295h159l-346 -295h-116z" />
<glyph unicode="&#xea;" horiz-adv-x="1153" d="M96 496q0 217 137 366q141 152 351 152q219 0 350 -154q125 -147 125 -377v-39h-799q10 -145 102 -241q98 -100 252 -101q184 0 308 127l73 -100q-158 -154 -393 -154q-223 1 -362 144q-143 145 -144 377zM258 559h649q-2 125 -80 219q-90 109 -245 109q-147 0 -238 -109 q-80 -92 -86 -219zM315 1139l195 295h147l201 -295h-104l-170 217l-164 -217h-105z" />
<glyph unicode="&#xeb;" horiz-adv-x="1153" d="M96 496q0 217 137 366q141 152 351 152q219 0 350 -154q125 -147 125 -377v-39h-799q10 -145 102 -241q98 -100 252 -101q184 0 308 127l73 -100q-158 -154 -393 -154q-223 1 -362 144q-143 145 -144 377zM258 559h649q-2 125 -80 219q-90 109 -245 109q-147 0 -238 -109 q-80 -92 -86 -219zM279 1237q0 39 28 68q27 27 68 26q39 0 65 -26q29 -29 29 -68t-29 -66q-27 -29 -65 -28q-39 0 -68 28q-29 27 -28 66zM702 1237q0 39 29 68q27 27 66 26q41 0 67 -26q29 -29 29 -68t-29 -66q-29 -29 -67 -28q-39 0 -66 28q-29 27 -29 66z" />
<glyph unicode="&#xec;" horiz-adv-x="460" d="M-98 1434h159l304 -295h-117zM154 0v989h153v-989h-153z" />
<glyph unicode="&#xed;" horiz-adv-x="460" d="M96 1139l303 295h160l-346 -295h-117zM154 0v989h153v-989h-153z" />
<glyph unicode="&#xee;" horiz-adv-x="460" d="M-39 1139l195 295h147l201 -295h-105l-170 217l-163 -217h-105zM154 0v989h153v-989h-153z" />
<glyph unicode="&#xef;" horiz-adv-x="460" d="M-76 1237q0 39 29 68q27 27 67 26q39 0 66 -26q29 -29 29 -68t-29 -66q-27 -29 -66 -28q-39 0 -67 28q-29 27 -29 66zM154 0v989h153v-989h-153zM348 1237q0 39 29 68q27 27 65 26q41 0 68 -26q29 -29 29 -68t-29 -66q-29 -29 -68 -28q-39 0 -65 28q-29 27 -29 66z" />
<glyph unicode="&#xf0;" d="M96 479q0 217 127 359q127 143 324 143q201 0 323 -180q-102 184 -327 348l-293 -131l-37 86l242 106l-154 99l84 127q137 -84 229 -156l222 98l34 -84l-176 -77q381 -324 381 -711q0 -233 -131 -379q-135 -152 -358 -152q-219 0 -355 146q-135 141 -135 358zM258 479 q0 -154 84 -256q92 -111 244 -110q151 -1 243 110q84 102 84 256q0 152 -84 254q-92 111 -243 111q-152 0 -244 -111q-84 -102 -84 -254z" />
<glyph unicode="&#xf1;" horiz-adv-x="1130" d="M160 0v989h153v-143q139 168 355 168q313 0 313 -320v-694h-152v647q0 229 -223 230q-178 0 -293 -154v-723h-153zM246 1147q0 123 51 196q53 78 147 78q80 0 146 -94q63 -94 106 -94q98 0 99 176h92q0 -123 -51 -197q-53 -78 -148 -77q-80 0 -143 94q-66 94 -109 94 q-98 0 -98 -176h-92z" />
<glyph unicode="&#xf2;" d="M96 496q0 221 131 366q137 152 359 152q221 0 358 -152q131 -145 131 -366t-131 -367q-137 -154 -358 -154q-222 0 -359 154q-131 145 -131 367zM258 496q0 -160 84 -269q92 -115 244 -114q151 -1 243 114q84 109 84 269t-84 266q-92 115 -243 115q-152 0 -244 -115 q-84 -106 -84 -266zM258 1434h160l303 -295h-117z" />
<glyph unicode="&#xf3;" d="M96 496q0 221 131 366q137 152 359 152q221 0 358 -152q131 -145 131 -366t-131 -367q-137 -154 -358 -154q-222 0 -359 154q-131 145 -131 367zM258 496q0 -160 84 -269q92 -115 244 -114q151 -1 243 114q84 109 84 269t-84 266q-92 115 -243 115q-152 0 -244 -115 q-84 -106 -84 -266zM451 1139l303 295h159l-346 -295h-116z" />
<glyph unicode="&#xf4;" d="M96 496q0 221 131 366q137 152 359 152q221 0 358 -152q131 -145 131 -366t-131 -367q-137 -154 -358 -154q-222 0 -359 154q-131 145 -131 367zM258 496q0 -160 84 -269q92 -115 244 -114q151 -1 243 114q84 109 84 269t-84 266q-92 115 -243 115q-152 0 -244 -115 q-84 -106 -84 -266zM317 1139l195 295h147l201 -295h-104l-170 217l-164 -217h-105z" />
<glyph unicode="&#xf5;" d="M96 496q0 221 131 366q137 152 359 152q221 0 358 -152q131 -145 131 -366t-131 -367q-137 -154 -358 -154q-222 0 -359 154q-131 145 -131 367zM258 496q0 -160 84 -269q92 -115 244 -114q151 -1 243 114q84 109 84 269t-84 266q-92 115 -243 115q-152 0 -244 -115 q-84 -106 -84 -266zM266 1147q0 123 51 196q53 78 148 78q80 0 145 -94q63 -94 107 -94q98 0 98 176h92q0 -123 -51 -197q-53 -78 -147 -77q-81 0 -144 94q-66 94 -108 94q-98 0 -99 -176h-92z" />
<glyph unicode="&#xf6;" d="M96 496q0 221 131 366q137 152 359 152q221 0 358 -152q131 -145 131 -366t-131 -367q-137 -154 -358 -154q-222 0 -359 154q-131 145 -131 367zM258 496q0 -160 84 -269q92 -115 244 -114q151 -1 243 114q84 109 84 269t-84 266q-92 115 -243 115q-152 0 -244 -115 q-84 -106 -84 -266zM279 1237q0 39 28 68q27 27 68 26q39 0 65 -26q29 -29 29 -68t-29 -66q-27 -29 -65 -28q-39 0 -68 28q-29 27 -28 66zM702 1237q0 39 29 68q27 27 66 26q41 0 67 -26q29 -29 29 -68t-29 -66q-29 -29 -67 -28q-39 0 -66 28q-29 27 -29 66z" />
<glyph unicode="&#xf7;" horiz-adv-x="1046" d="M59 637v106h928v-106h-928zM430 295q0 39 29 65q27 29 65 29q39 0 66 -29q29 -27 28 -65q1 -39 -28 -66q-27 -29 -66 -28q-39 0 -65 28q-29 27 -29 66zM430 1079q0 39 29 66q27 27 65 26q39 0 66 -26q29 -27 28 -66q1 -38 -28 -67q-27 -29 -66 -29t-65 29q-29 29 -29 67z " />
<glyph unicode="&#xf8;" d="M96 496q0 221 131 366q137 152 359 152q162 0 280 -84l47 59h113l-92 -117q141 -147 141 -376q0 -221 -131 -367q-137 -154 -358 -154q-170 0 -291 93l-53 -68h-111l98 125q-133 145 -133 371zM258 496q0 -148 70 -248l446 567q-78 61 -188 62q-152 0 -244 -115 q-84 -106 -84 -266zM385 182q82 -70 201 -69q151 -1 243 114q84 109 84 269q0 152 -77 254z" />
<glyph unicode="&#xf9;" horiz-adv-x="1128" d="M154 291v698h153v-651q0 -225 223 -225q184 0 291 149v727h154v-989h-154v139q-143 -164 -352 -164q-315 0 -315 316zM242 1434h159l304 -295h-117z" />
<glyph unicode="&#xfa;" horiz-adv-x="1128" d="M154 291v698h153v-651q0 -225 223 -225q184 0 291 149v727h154v-989h-154v139q-143 -164 -352 -164q-315 0 -315 316zM432 1139l303 295h160l-346 -295h-117z" />
<glyph unicode="&#xfb;" horiz-adv-x="1128" d="M154 291v698h153v-651q0 -225 223 -225q184 0 291 149v727h154v-989h-154v139q-143 -164 -352 -164q-315 0 -315 316zM295 1139l194 295h148l201 -295h-105l-170 217l-164 -217h-104z" />
<glyph unicode="&#xfc;" horiz-adv-x="1128" d="M154 291v698h153v-651q0 -225 223 -225q184 0 291 149v727h154v-989h-154v139q-143 -164 -352 -164q-315 0 -315 316zM264 1237q0 39 29 68q27 27 67 26q39 0 66 -26q29 -29 29 -68t-29 -66q-27 -29 -66 -28q-39 0 -67 28q-29 27 -29 66zM688 1237q0 39 29 68 q27 27 65 26q41 0 68 -26q29 -29 29 -68t-29 -66q-29 -29 -68 -28q-39 0 -65 28q-29 27 -29 66z" />
<glyph unicode="&#xfd;" horiz-adv-x="1003" d="M6 989h168l328 -811l329 811h166l-495 -1190q-82 -197 -291 -200q-63 0 -111 14l23 139q37 -16 84 -16q102 0 147 104l66 150zM369 1139l303 295h159l-346 -295h-116z" />
<glyph unicode="&#xfe;" d="M154 -377v1743h153v-524q123 172 334 172q197 0 317 -140q123 -141 123 -378q0 -238 -123 -379q-121 -141 -317 -142q-203 1 -334 175v-527h-153zM307 272q98 -160 295 -159q146 -1 234 108q84 106 84 275q0 168 -84 272q-88 109 -234 109q-197 0 -295 -158v-447z" />
<glyph unicode="&#xff;" horiz-adv-x="1003" d="M6 989h168l328 -811l329 811h166l-495 -1190q-82 -197 -291 -200q-63 0 -111 14l23 139q37 -16 84 -16q102 0 147 104l66 150zM195 1237q0 39 28 68q27 27 68 26q39 0 65 -26q29 -29 29 -68t-29 -66q-27 -29 -65 -28q-39 0 -68 28q-29 27 -28 66zM618 1237q0 39 29 68 q27 27 66 26q41 0 67 -26q29 -29 29 -68t-29 -66q-29 -29 -67 -28q-39 0 -66 28q-29 27 -29 66z" />
<glyph unicode="&#x10c;" horiz-adv-x="1384" d="M104 682q0 311 205 510q199 197 498 197q330 0 518 -271l-141 -80q-133 199 -377 199q-227 0 -375 -154q-152 -158 -151 -401q0 -242 151 -399q150 -156 375 -156q242 0 377 199l143 -78q-199 -272 -520 -273q-299 0 -498 197q-205 199 -205 510zM537 1786h104l170 -217 l164 217h104l-194 -295h-148z" />
<glyph unicode="&#x10d;" horiz-adv-x="1015" d="M96 496q0 223 137 368q137 150 357 150q229 0 362 -172l-102 -92q-92 127 -252 127q-154 0 -250 -109q-92 -106 -92 -272q0 -168 92 -275q96 -109 250 -108q156 0 252 129l102 -95q-133 -172 -362 -172q-220 0 -357 150q-137 147 -137 371zM328 1434h104l170 -217 l164 217h104l-194 -295h-148z" />
<glyph unicode="&#x10e;" horiz-adv-x="1433" d="M160 0v1366h467q313 0 510 -197q190 -193 190 -487q0 -297 -190 -487q-195 -195 -510 -195h-467zM330 152h297q242 0 387 155q137 147 137 375q0 229 -135 377q-143 156 -389 155h-297v-1062zM449 1786h104l170 -217l164 217h104l-194 -295h-148z" />
<glyph unicode="&#x10f;" horiz-adv-x="1318" d="M96 494q0 236 123 378q123 141 318 142q205 0 333 -174v526h154v-1366h-154v147q-127 -172 -333 -172q-197 0 -318 140q-123 141 -123 379zM256 494q0 -168 84 -273q88 -109 235 -108q197 -1 295 157v447q-98 160 -295 160q-147 0 -235 -109q-84 -106 -84 -274z M1116 1034q106 74 117 176l-23 -2q-86 0 -86 90q0 39 27 66q29 29 68 29q45 0 75 -35q33 -39 33 -103q0 -165 -145 -274z" />
<glyph unicode="&#x11a;" horiz-adv-x="1165" d="M160 0v1366h895v-152h-725v-440h710v-151h-710v-471h725v-152h-895zM338 1786h104l170 -217l164 217h105l-195 -295h-147z" />
<glyph unicode="&#x11b;" horiz-adv-x="1153" d="M96 496q0 217 137 366q141 152 351 152q219 0 350 -154q125 -147 125 -377v-39h-799q10 -145 102 -241q98 -100 252 -101q184 0 308 127l73 -100q-158 -154 -393 -154q-223 1 -362 144q-143 145 -144 377zM258 559h649q-2 125 -80 219q-90 109 -245 109q-147 0 -238 -109 q-80 -92 -86 -219zM313 1434h105l170 -217l164 217h104l-194 -295h-148z" />
<glyph unicode="&#x131;" horiz-adv-x="460" d="M154 0v989h153v-989h-153z" />
<glyph unicode="&#x147;" horiz-adv-x="1449" d="M160 0v1366h174l786 -1067v1067h170v-1366h-164l-796 1090v-1090h-170zM453 1786h104l170 -217l164 217h104l-194 -295h-148z" />
<glyph unicode="&#x148;" horiz-adv-x="1130" d="M160 0v989h153v-143q139 168 355 168q313 0 313 -320v-694h-152v647q0 229 -223 230q-178 0 -293 -154v-723h-153zM293 1434h104l170 -217l164 217h105l-195 -295h-147z" />
<glyph unicode="&#x152;" horiz-adv-x="2263" d="M104 682q0 305 183 504q186 201 481 200q336 0 489 -268v248h895v-152h-725v-440h711v-151h-711v-471h725v-152h-895v248q-156 -272 -489 -273q-295 0 -481 203q-182 199 -183 504zM281 682q0 -242 137 -397q139 -158 370 -158q344 0 469 332v448q-123 328 -469 328 q-231 0 -370 -156q-137 -154 -137 -397z" />
<glyph unicode="&#x153;" horiz-adv-x="1970" d="M96 496q0 221 131 366q137 152 359 152q287 0 409 -283q117 283 406 283q219 0 350 -154q125 -147 125 -377v-39h-799q10 -145 103 -241q98 -100 252 -101q184 0 307 127l73 -100q-158 -154 -393 -154q-299 0 -426 283q-127 -283 -407 -283q-221 0 -359 154 q-131 145 -131 367zM258 496q0 -164 86 -271q92 -115 242 -114q150 0 241 114q86 106 86 271q0 162 -86 268q-92 113 -241 113q-150 0 -242 -113q-86 -106 -86 -268zM1075 559h651q-4 125 -79 219q-92 109 -246 109q-147 0 -240 -109q-80 -92 -86 -219z" />
<glyph unicode="&#x158;" horiz-adv-x="1247" d="M160 0v1366h549q190 0 309 -111q121 -115 121 -301q0 -176 -109 -284q-98 -100 -248 -113l369 -557h-201l-346 543h-274v-543h-170zM330 692h358q121 0 199 74q76 74 76 188q0 117 -76 189q-78 72 -199 71h-358v-522zM354 1786h105l170 -217l164 217h104l-195 -295h-147z " />
<glyph unicode="&#x159;" horiz-adv-x="675" d="M121 1434h104l170 -217l164 217h105l-195 -295h-147zM154 0v989h153v-158q141 180 330 181v-158q-37 4 -59 4q-72 0 -154 -49q-82 -47 -117 -109v-700h-153z" />
<glyph unicode="&#x160;" horiz-adv-x="1200" d="M78 193l102 131q170 -197 428 -197q166 0 252 80q70 63 70 158q0 117 -127 180q-57 31 -277 90q-195 53 -278 117q-127 92 -127 256q0 168 135 274q131 106 336 107q301 0 483 -193l-102 -125q-145 164 -395 164q-123 0 -201 -59q-80 -61 -80 -158q0 -100 127 -158 q39 -18 278 -86q188 -55 277 -125q127 -100 127 -272q0 -166 -113 -275q-135 -127 -391 -127q-331 1 -524 218zM313 1786h105l170 -217l164 217h104l-194 -295h-148z" />
<glyph unicode="&#x161;" horiz-adv-x="952" d="M70 131l77 111q123 -141 326 -142q111 0 174 50q61 45 62 120q0 78 -97 121q-37 16 -209 62q-145 37 -210 84q-96 70 -97 192q0 121 94 201q102 84 273 84q227 0 366 -144l-71 -106q-104 125 -295 125q-100 0 -160 -45q-59 -43 -59 -111q0 -70 96 -108q18 -8 211 -58 q141 -37 209 -88q96 -74 96 -205t-98 -211q-104 -88 -289 -88q-249 0 -399 156zM197 1434h104l170 -217l164 217h104l-194 -295h-148z" />
<glyph unicode="&#x164;" horiz-adv-x="1167" d="M66 1214v152h1036v-152h-434v-1214h-170v1214h-432zM311 1786h105l170 -217l164 217h104l-195 -295h-147z" />
<glyph unicode="&#x165;" horiz-adv-x="641" d="M20 854v135h164v271h156v-271h201v-135h-201v-614q0 -127 98 -127q66 0 105 43l45 -117q-68 -63 -182 -64q-222 1 -222 232v647h-164zM455 1163q106 74 116 176l-22 -2q-86 0 -86 90q0 39 26 66q29 29 68 29q45 0 76 -35q33 -39 33 -103q-1 -165 -146 -274z" />
<glyph unicode="&#x16e;" horiz-adv-x="1435" d="M160 530v836h172v-831q0 -190 98 -297q100 -111 287 -111q186 0 289 111q98 106 98 297v831h172v-834q0 -260 -141 -405q-145 -152 -418 -152q-271 0 -416 152q-141 145 -141 403zM518 1620q0 84 60 143q61 59 143 60q82 0 141 -60q57 -59 58 -143q0 -84 -58 -143 q-59 -59 -141 -60q-82 1 -143 60q-59 61 -60 143zM600 1620q0 -49 35 -84q35 -37 86 -37q49 0 84 37q35 35 35 84t-35 86q-35 35 -84 35q-51 0 -86 -35q-35 -37 -35 -86z" />
<glyph unicode="&#x16f;" horiz-adv-x="1128" d="M154 291v698h153v-651q0 -225 223 -225q184 0 291 149v727h154v-989h-154v139q-143 -164 -352 -164q-315 0 -315 316zM362 1333q0 84 60 144q61 59 143 59t142 -59q57 -59 57 -144q0 -84 -57 -143q-59 -59 -142 -60q-82 1 -143 60q-59 61 -60 143zM444 1333q0 -49 35 -84 q35 -37 86 -37q49 0 84 37q35 35 35 84t-35 86q-35 35 -84 35q-51 0 -86 -35q-35 -37 -35 -86z" />
<glyph unicode="&#x178;" horiz-adv-x="1282" d="M18 1366h199l424 -635l424 635h199l-537 -788v-578h-170v578zM340 1583q0 39 29 68q27 27 67 26q39 0 66 -26q29 -29 28 -68q1 -38 -28 -65q-27 -29 -66 -29t-67 29q-29 27 -29 65zM764 1583q0 39 29 68q27 27 65 26q41 0 68 -26q29 -29 28 -68q1 -38 -28 -65 q-29 -29 -68 -29t-65 29q-29 27 -29 65z" />
<glyph unicode="&#x17d;" horiz-adv-x="1198" d="M98 0v141l768 1073h-768v152h987v-141l-770 -1073h785v-152h-1002zM328 1786h104l170 -217l164 217h104l-194 -295h-148z" />
<glyph unicode="&#x17e;" horiz-adv-x="966" d="M106 0v121l545 733h-545v135h746v-117l-549 -737h557v-135h-754zM199 1434h104l170 -217l164 217h104l-194 -295h-148z" />
<glyph unicode="&#x192;" horiz-adv-x="884" d="M51 -330l189 850h-140v139h168l94 418q31 143 127 226q96 84 230 83q125 0 192 -73l-75 -125q-35 47 -101 47q-164 0 -207 -188l-86 -388h285v-139h-313l-191 -850h-172z" />
<glyph unicode="&#x2c6;" horiz-adv-x="542" d="M0 1139l195 295h147l201 -295h-105l-170 217l-164 -217h-104z" />
<glyph unicode="&#x2c7;" horiz-adv-x="542" d="M0 1434h104l170 -217l164 217h105l-195 -295h-147z" />
<glyph unicode="&#x2d8;" horiz-adv-x="718" d="M0 1333l78 66q104 -147 282 -148q180 0 285 148l74 -66q-133 -180 -359 -180q-223 0 -360 180z" />
<glyph unicode="&#x2d9;" horiz-adv-x="229" d="M18 1270q0 39 29 67q29 29 68 29q41 0 67 -29q29 -27 29 -67q0 -39 -29 -68q-27 -29 -67 -28q-39 -1 -68 28t-29 68z" />
<glyph unicode="&#x2da;" horiz-adv-x="401" d="M0 1337q0 84 59 144q61 59 144 59q82 0 141 -59q57 -59 57 -144q0 -84 -57 -143q-59 -59 -141 -59q-83 0 -144 59q-59 61 -59 143zM82 1337q0 -49 35 -84q35 -37 86 -36q49 -1 84 36q35 35 35 84t-35 86q-35 35 -84 35q-51 0 -86 -35q-35 -37 -35 -86z" />
<glyph unicode="&#x2db;" horiz-adv-x="364" d="M0 -203q0 156 180 250l68 -47q-156 -78 -156 -199q0 -102 92 -102q76 0 105 86l76 -43q-53 -123 -181 -123q-78 0 -129 43q-55 47 -55 135z" />
<glyph unicode="&#x2dc;" horiz-adv-x="641" d="M0 1147q0 123 51 196q53 78 148 78q80 0 145 -94q63 -94 107 -94q98 0 98 176h92q0 -123 -51 -197q-53 -78 -148 -77q-80 0 -143 94q-66 94 -109 94q-98 0 -98 -176h-92z" />
<glyph unicode="&#x2dd;" horiz-adv-x="624" d="M0 1139l193 295h141l-236 -295h-98zM291 1139l192 295h142l-236 -295h-98z" />
<glyph unicode="&#x3a9;" horiz-adv-x="1566" d="M104 713q0 297 189 485q188 190 489 191q303 0 492 -191q188 -188 188 -485q0 -356 -313 -561h276v-152h-491v152q145 37 244 172q109 150 108 360q0 236 -129 389q-139 162 -375 162q-233 0 -372 -162q-129 -154 -129 -389q0 -211 108 -360q98 -135 244 -172v-152h-492 v152h277q-313 205 -314 561z" />
<glyph unicode="&#x3c0;" horiz-adv-x="1148" d="M66 887v137h1017v-137h-157v-887h-156v887h-391v-887h-156v887h-157z" />
<glyph unicode="&#x2000;" horiz-adv-x="911" />
<glyph unicode="&#x2001;" horiz-adv-x="1823" />
<glyph unicode="&#x2002;" horiz-adv-x="911" />
<glyph unicode="&#x2003;" horiz-adv-x="1823" />
<glyph unicode="&#x2004;" horiz-adv-x="607" />
<glyph unicode="&#x2005;" horiz-adv-x="455" />
<glyph unicode="&#x2006;" horiz-adv-x="303" />
<glyph unicode="&#x2007;" horiz-adv-x="303" />
<glyph unicode="&#x2008;" horiz-adv-x="227" />
<glyph unicode="&#x2009;" horiz-adv-x="364" />
<glyph unicode="&#x200a;" horiz-adv-x="101" />
<glyph unicode="&#x2010;" horiz-adv-x="614" d="M61 428v135h492v-135h-492z" />
<glyph unicode="&#x2011;" horiz-adv-x="614" d="M61 428v135h492v-135h-492z" />
<glyph unicode="&#x2012;" horiz-adv-x="614" d="M61 428v135h492v-135h-492z" />
<glyph unicode="&#x2013;" horiz-adv-x="1214" d="M61 428v135h1092v-135h-1092z" />
<glyph unicode="&#x2014;" horiz-adv-x="1705" d="M61 428v135h1584v-135h-1584z" />
<glyph unicode="&#x2018;" horiz-adv-x="471" d="M98 1079q0 190 164 307l78 -61q-119 -78 -133 -190l29 4q41 0 69 -31q29 -29 29 -74q0 -47 -31 -78q-33 -33 -78 -32q-53 0 -88 41q-39 43 -39 114z" />
<glyph unicode="&#x2019;" horiz-adv-x="471" d="M117 985q119 78 133 191q-8 -4 -29 -5q-41 0 -69 31q-29 29 -29 74t31 78q33 33 77 32q55 0 91 -40q39 -43 38 -115q1 -190 -165 -309z" />
<glyph unicode="&#x201a;" horiz-adv-x="471" d="M117 -197q119 78 133 191q-8 -4 -29 -4q-41 0 -69 30q-29 29 -29 74t31 78q33 33 77 33q55 0 91 -41q39 -43 38 -115q1 -190 -165 -309z" />
<glyph unicode="&#x201c;" horiz-adv-x="798" d="M111 1079q-1 192 165 307l76 -61q-117 -76 -131 -190l27 4q43 0 71 -31q29 -29 29 -74t-33 -78q-31 -33 -77 -32q-53 0 -88 41q-39 43 -39 114zM438 1079q0 192 166 307l76 -61q-117 -76 -131 -190l26 4q43 0 72 -31q29 -29 29 -74t-33 -78q-31 -33 -78 -32q-53 0 -88 41 q-39 43 -39 114z" />
<glyph unicode="&#x201d;" horiz-adv-x="798" d="M117 985q119 78 133 191q-8 -4 -29 -5q-41 0 -69 31q-29 29 -29 74t31 78q33 33 77 32q55 0 91 -40q39 -43 38 -115q1 -190 -165 -309zM446 985q117 76 132 191q-4 -4 -27 -5q-43 0 -72 31q-29 29 -28 74q0 45 32 78q33 33 78 32q53 0 88 -40q39 -43 39 -115 q0 -190 -166 -309z" />
<glyph unicode="&#x201e;" horiz-adv-x="798" d="M117 -197q119 78 133 191q-8 -4 -29 -4q-41 0 -69 30q-29 29 -29 74t31 78q33 33 77 33q55 0 91 -41q39 -43 38 -115q1 -190 -165 -309zM446 -197q117 78 132 191q-4 -4 -27 -4q-43 0 -72 30q-29 29 -28 74q0 45 32 78q33 33 78 33q53 0 88 -41q39 -43 39 -115 q0 -190 -166 -309z" />
<glyph unicode="&#x2020;" horiz-adv-x="538" d="M47 1087v89l182 -7l-10 217h98l-8 -217l183 7v-89l-183 9l8 -426h-98l10 426z" />
<glyph unicode="&#x2021;" horiz-adv-x="538" d="M47 580v88l180 -9v437l-180 -9v89l180 -7l-8 217h98l-8 -217l183 7v-89l-183 9v-437l183 9v-88l-183 6l8 -217h-98l8 217z" />
<glyph unicode="&#x2022;" horiz-adv-x="733" d="M147 496q0 90 66 155q66 66 156 66t155 -66q66 -66 66 -155q0 -91 -66 -154q-66 -66 -155 -66q-90 0 -156 66q-66 63 -66 154z" />
<glyph unicode="&#x2026;" horiz-adv-x="1415" d="M123 92q0 47 33 80q35 33 80 33q47 0 79 -33q33 -33 33 -80q0 -45 -33 -78q-35 -35 -79 -34q-45 0 -80 34q-33 33 -33 78zM594 92q0 47 33 80q35 33 80 33q47 0 79 -33q33 -33 33 -80q0 -45 -33 -78q-35 -35 -79 -34q-45 0 -80 34q-33 33 -33 78zM1067 92q0 47 33 80 q35 33 80 33t77 -33q33 -33 33 -80q0 -45 -33 -78q-33 -35 -77 -34q-45 0 -80 34q-33 33 -33 78z" />
<glyph unicode="&#x202f;" horiz-adv-x="364" />
<glyph unicode="&#x2030;" horiz-adv-x="2220" d="M63 1047q0 147 93 243q92 96 237 96t240 -96q90 -96 90 -243q0 -144 -90 -238q-94 -96 -240 -96q-145 0 -237 96q-92 94 -93 238zM186 1047q0 -100 58 -168q59 -70 149 -70t150 70q57 68 57 168q0 106 -57 174q-57 70 -150 69q-90 0 -149 -69q-57 -68 -58 -174zM262 0 l873 1366h114l-874 -1366h-113zM776 311q0 145 92 240q92 98 238 98q143 0 237 -98q90 -94 91 -240q-1 -145 -91 -239q-92 -96 -237 -97q-145 0 -238 97q-92 96 -92 239zM897 311q0 -102 57 -170q59 -70 152 -69q90 0 149 69q57 68 58 170q-1 104 -58 172q-57 70 -149 70 t-152 -70q-57 -68 -57 -172zM1497 311q0 145 92 240q92 98 238 98q145 0 237 -98q92 -94 93 -240q-1 -143 -93 -239t-237 -97q-145 0 -238 97q-92 96 -92 239zM1620 311q0 -102 57 -170q59 -70 150 -69q90 0 149 69q57 68 58 170q-1 104 -58 172q-57 70 -149 70t-150 -70 q-57 -68 -57 -172z" />
<glyph unicode="&#x2039;" horiz-adv-x="604" d="M61 498l328 362h154l-328 -362l328 -369h-154z" />
<glyph unicode="&#x203a;" horiz-adv-x="604" d="M61 129l328 369l-328 362h154l328 -362l-328 -369h-154z" />
<glyph unicode="&#x2044;" horiz-adv-x="284" d="M-350 0l872 1366h113l-875 -1366h-110z" />
<glyph unicode="&#x205f;" horiz-adv-x="455" />
<glyph unicode="&#x20ac;" horiz-adv-x="1423" d="M63 485v107h91q-4 57 -4 90t4 94h-91v109h113q61 229 246 366q184 137 430 138q330 0 518 -271l-141 -80q-133 199 -377 199q-174 0 -307 -96q-133 -94 -189 -256h619v-109h-643q-6 -45 -6 -94q0 -47 6 -90h643v-107h-619q53 -164 187 -260q135 -98 309 -98 q242 0 377 199l143 -78q-199 -272 -520 -273q-248 1 -432 140q-186 137 -246 370h-111z" />
<glyph unicode="&#x2122;" horiz-adv-x="929" d="M35 1313v53h311v-53h-127v-398h-57v398h-127zM420 915v451h88l131 -328l131 328h88v-451h-57v373l-154 -373h-16l-154 373v-373h-57z" />
<glyph unicode="&#x2202;" d="M96 479q0 213 125 357q129 145 326 145q203 0 317 -168q-135 303 -510 485l115 97q252 -133 416 -348q190 -252 190 -537q0 -236 -131 -383q-135 -152 -358 -152q-222 1 -359 148q-131 141 -131 356zM258 479q0 -156 84 -256q92 -111 244 -110q151 -1 243 110 q84 100 84 256q0 154 -84 256q-92 109 -243 109q-152 0 -244 -109q-84 -102 -84 -256z" />
<glyph unicode="&#x220f;" horiz-adv-x="1449" d="M66 1214v152h1318v-152h-225v-1398h-170v1398h-530v-1398h-170v1398h-223z" />
<glyph unicode="&#x2211;" horiz-adv-x="1179" d="M111 -33v-151h958v151h-754l476 645l-467 602h745v152h-956v-149l471 -607z" />
<glyph unicode="&#x221a;" horiz-adv-x="1484" d="M135 647l422 162l260 -649l481 1206h121l-545 -1366h-118l-267 670l-317 -125z" />
<glyph unicode="&#x221e;" horiz-adv-x="1343" d="M59 686q0 137 76 232q86 109 242 108q190 0 295 -225q104 225 297 225q156 0 241 -108q74 -92 74 -232q0 -135 -74 -229q-88 -109 -241 -109q-195 0 -297 225q-102 -225 -295 -225q-154 0 -242 109q-76 94 -76 229zM174 686q0 -100 57 -164q57 -66 156 -65q148 0 236 229 q-86 231 -236 232q-98 0 -156 -66q-57 -63 -57 -166zM723 686q88 -229 235 -229q99 -1 156 65q55 63 55 164q0 102 -55 166q-57 66 -156 66q-147 0 -235 -232z" />
<glyph unicode="&#x222b;" horiz-adv-x="712" d="M35 -92h125q55 0 96 47t41 117v1224q0 123 80 203q74 74 176 74h125v-113h-125q-57 0 -96 -45q-41 -47 -41 -117v-1228q0 -121 -78 -201q-76 -74 -178 -74h-125v113z" />
<glyph unicode="&#x2248;" horiz-adv-x="1021" d="M59 432v121q96 -68 226 -68q96 0 215 60q119 59 235 59q123 0 228 -55v-121q-100 70 -228 70q-96 0 -215 -60q-119 -61 -235 -61q-125 0 -226 55zM59 819v121q96 -68 226 -68q96 0 215 60q119 59 235 59q123 0 228 -55v-121q-96 68 -228 68q-96 0 -215 -60 q-119 -59 -235 -59q-125 0 -226 55z" />
<glyph unicode="&#x2260;" horiz-adv-x="1021" d="M59 432v109h303l183 286h-486v109h555l154 240h113l-154 -240h236v-109h-306l-182 -286h488v-109h-557l-154 -242h-111l154 242h-236z" />
<glyph unicode="&#x2264;" horiz-adv-x="1021" d="M59 0v109h904v-109h-904zM59 649v109l904 448v-129l-773 -375l773 -370v-129z" />
<glyph unicode="&#x2265;" horiz-adv-x="1021" d="M57 0v109h904v-109h-904zM59 203v129l770 370l-770 375v129l904 -448v-109z" />
<glyph unicode="&#x25ca;" horiz-adv-x="768" d="M39 684l323 682h44l323 -682l-323 -684h-44zM113 684l272 -600l270 600l-272 598z" />
<glyph unicode="&#xe000;" horiz-adv-x="993" d="M0 0v993h993v-993h-993z" />
</font>
</defs>
</svg>
